<svg version="1.1" xmlns="http://www.w3.org/2000/svg" viewBox="0 0 1618.5230490931388 1129.9924420100383" width="1618.5230490931388" height="1129.9924420100383" filter="invert(93%) hue-rotate(180deg)">
  <!-- svg-source:excalidraw -->
  
  <defs>
    <style class="style-fonts">
      @font-face {
        font-family: "Virgil";
        src: url("https://file%2B.vscode-resource.vscode-cdn.net/c%3A/Users/mp281x/.vscode/extensions/pomdtr.excalidraw-editor-3.5.1/public//dist/excalidraw-assets/Virgil.woff2");
      }
      @font-face {
        font-family: "Cascadia";
        src: url("https://file%2B.vscode-resource.vscode-cdn.net/c%3A/Users/mp281x/.vscode/extensions/pomdtr.excalidraw-editor-3.5.1/public//dist/excalidraw-assets/Cascadia.woff2");
      }
    </style>
  </defs>
  <g stroke-linecap="round" transform="translate(1033.0349178253634 562.6541396420098) rotate(0 71.5 38)"><path d="M19 0 M19 0 C55.96 0.95, 95.19 -0.95, 124 0 M19 0 C57.46 -0.13, 96.12 -0.76, 124 0 M124 0 C135.28 -0.23, 143.53 7.05, 143 19 M124 0 C138.63 0.78, 142.93 7.48, 143 19 M143 19 C142.24 28.86, 141.86 41.1, 143 57 M143 19 C144.2 29.56, 144.14 38.02, 143 57 M143 57 C144.83 70.19, 138.59 77.59, 124 76 M143 57 C145.26 67.77, 136.82 75.46, 124 76 M124 76 C101.03 75.17, 79.17 73.59, 19 76 M124 76 C91.91 76.01, 59.96 75.99, 19 76 M19 76 C6.38 74.21, 0.35 68.49, 0 57 M19 76 C7.21 77.83, 1.52 70.97, 0 57 M0 57 C-0.44 47.47, 1.38 41.11, 0 19 M0 57 C-0.06 47.5, -1.1 37.81, 0 19 M0 19 C1.22 8.05, 6.6 -1.47, 19 0 M0 19 C-0.54 7.81, 4.52 1.12, 19 0" stroke="#000000" stroke-width="1" fill="none"></path></g><g transform="translate(1068.8849468170627 588.1541396420098) rotate(0 35.64997100830078 12.5)"><text x="35.64997100830078" y="0" font-family="Virgil, Segoe UI Emoji" font-size="20px" fill="#000000" text-anchor="middle" style="white-space: pre;" direction="ltr" dominant-baseline="text-before-edge">ArgoCD</text></g><g stroke-linecap="round" transform="translate(514.836858402791 573.0707885314794) rotate(0 70.33527465912977 38.47753537056201)"><path d="M19.24 0 M19.24 0 C40.62 -0.27, 65.11 -0.69, 121.43 0 M19.24 0 C49 0.24, 78.83 -0.18, 121.43 0 M121.43 0 C132.4 0.85, 140.58 7.11, 140.67 19.24 M121.43 0 C136.52 1.6, 140.1 4.87, 140.67 19.24 M140.67 19.24 C139.35 28.6, 141.93 39.86, 140.67 57.72 M140.67 19.24 C140.2 33.25, 140.26 47.42, 140.67 57.72 M140.67 57.72 C139.38 70.22, 133.72 77.74, 121.43 76.96 M140.67 57.72 C140.31 68.47, 134.7 78.75, 121.43 76.96 M121.43 76.96 C96.41 79.49, 71.57 76.5, 19.24 76.96 M121.43 76.96 C99.31 75.86, 77.77 75.71, 19.24 76.96 M19.24 76.96 C8.24 75.18, 1.11 70.8, 0 57.72 M19.24 76.96 C5.22 76.24, -0.26 72.37, 0 57.72 M0 57.72 C-0.7 46.72, -1.92 32.78, 0 19.24 M0 57.72 C-0.46 46.93, 0.53 35.87, 0 19.24 M0 19.24 C-0.74 7.18, 5 -0.83, 19.24 0 M0 19.24 C0.06 6.68, 7.45 0.98, 19.24 0" stroke="#000000" stroke-width="1" fill="none"></path></g><g transform="translate(553.742163274323 599.0483239020414) rotate(0 31.429969787597656 12.5)"><text x="31.429969787597656" y="0" font-family="Virgil, Segoe UI Emoji" font-size="20px" fill="#000000" text-anchor="middle" style="white-space: pre;" direction="ltr" dominant-baseline="text-before-edge">Github</text></g><g stroke-linecap="round" transform="translate(1030.5471721801289 733.1093854972078) rotate(0 76.54134390265506 35.37450832454897)"><path d="M17.69 0 M17.69 0 C60.75 -0.31, 104.67 1.05, 135.4 0 M17.69 0 C51.68 0.87, 86.58 0.09, 135.4 0 M135.4 0 C145.34 -0.56, 153.98 6.35, 153.08 17.69 M135.4 0 C147.85 2.05, 150.83 4.81, 153.08 17.69 M153.08 17.69 C152.03 31.33, 153.13 45.27, 153.08 53.06 M153.08 17.69 C153.88 30.93, 152.55 42.56, 153.08 53.06 M153.08 53.06 C152.48 63.3, 145.45 69.82, 135.4 70.75 M153.08 53.06 C155.27 63.29, 148.42 69.78, 135.4 70.75 M135.4 70.75 C90.51 72.12, 43.8 69.78, 17.69 70.75 M135.4 70.75 C93.25 71.04, 52.93 71.12, 17.69 70.75 M17.69 70.75 C6.37 71.6, -0.74 63.29, 0 53.06 M17.69 70.75 C5.86 69.68, 2 65.55, 0 53.06 M0 53.06 C1.82 45.17, 1.39 37.74, 0 17.69 M0 53.06 C1.07 40.35, -0.72 29.77, 0 17.69 M0 17.69 C-0.94 6.94, 7.22 -0.57, 17.69 0 M0 17.69 C-0.62 4.66, 5.31 -1.46, 17.69 0" stroke="#000000" stroke-width="1" fill="none"></path></g><g transform="translate(1039.8085859680377 743.4838938217567) rotate(0 67.27993011474604 25)"><text x="67.2799301147461" y="0" font-family="Virgil, Segoe UI Emoji" font-size="20px" fill="#000000" text-anchor="middle" style="white-space: pre;" direction="ltr" dominant-baseline="text-before-edge">Secrets</text><text x="67.2799301147461" y="25" font-family="Virgil, Segoe UI Emoji" font-size="20px" fill="#000000" text-anchor="middle" style="white-space: pre;" direction="ltr" dominant-baseline="text-before-edge">(github token)</text></g><g stroke-linecap="round" transform="translate(1024.1850650030058 201.90023935786826) rotate(0 76.54134390265506 35.37450832454897)"><path d="M17.69 0 M17.69 0 C49.91 1.78, 84.42 -1.03, 135.4 0 M17.69 0 C56.08 -0.29, 95 -0.62, 135.4 0 M135.4 0 C146.99 1.42, 154.57 7.56, 153.08 17.69 M135.4 0 C149.23 1.15, 154.04 5.83, 153.08 17.69 M153.08 17.69 C153.71 24.65, 154.63 33.02, 153.08 53.06 M153.08 17.69 C153.52 29.98, 152.66 42.22, 153.08 53.06 M153.08 53.06 C151.18 62.91, 148.04 70.74, 135.4 70.75 M153.08 53.06 C152.75 66.49, 145.09 69.87, 135.4 70.75 M135.4 70.75 C97.39 71.07, 59.47 69.19, 17.69 70.75 M135.4 70.75 C111.42 70.46, 87.57 70.82, 17.69 70.75 M17.69 70.75 C7.29 69.19, 0.87 66.24, 0 53.06 M17.69 70.75 C4.04 71.93, -1.93 66.15, 0 53.06 M0 53.06 C-0.76 47.28, 1.6 37.37, 0 17.69 M0 53.06 C-0.61 45.43, 0.81 37.28, 0 17.69 M0 17.69 C-1.81 5.32, 7.41 0.97, 17.69 0 M0 17.69 C2.04 6.69, 7.85 -0.28, 17.69 0" stroke="#000000" stroke-width="1" fill="none"></path></g><g transform="translate(1033.4464787909146 212.27474768241723) rotate(0 67.2799301147461 25)"><text x="67.2799301147461" y="0" font-family="Virgil, Segoe UI Emoji" font-size="20px" fill="#000000" text-anchor="middle" style="white-space: pre;" direction="ltr" dominant-baseline="text-before-edge">Secrets</text><text x="67.2799301147461" y="25" font-family="Virgil, Segoe UI Emoji" font-size="20px" fill="#000000" text-anchor="middle" style="white-space: pre;" direction="ltr" dominant-baseline="text-before-edge">(github token)</text></g><g stroke-linecap="round"><g transform="translate(1106.6747892443152 723.1796686469675) rotate(0 0.4737385972328525 -35.0881586494896)"><path d="M-0.27 0.52 C-0.26 -11.42, -1.07 -58.78, -1 -70.7 M1.8 -0.25 C2.26 -12.07, 1.57 -57.54, 1.19 -69.14" stroke="#000000" stroke-width="1" fill="none"></path></g><g transform="translate(1106.6747892443152 723.1796686469675) rotate(0 0.4737385972328525 -35.0881586494896)"><path d="M12.94 -42.84 C9.6 -46.86, 6.76 -53.32, 0.83 -70.8 M12.93 -41.25 C9.85 -47.11, 8.15 -52.96, 1.37 -68.65" stroke="#000000" stroke-width="1" fill="none"></path></g><g transform="translate(1106.6747892443152 723.1796686469675) rotate(0 0.4737385972328525 -35.0881586494896)"><path d="M-7.58 -42.39 C-6.56 -46.46, -5.04 -53.01, 0.83 -70.8 M-7.59 -40.8 C-6.27 -46.81, -3.59 -52.75, 1.37 -68.65" stroke="#000000" stroke-width="1" fill="none"></path></g></g><mask></mask><g mask="url(#mask-PPgfYzBCagQ_ElW0Watfc)" stroke-linecap="round"><g transform="translate(1020.6175462388842 602.8589740601083) rotate(0 -175.66845941100314 1.831510849787577)"><path d="M0.15 -0.63 C-58.34 -0.2, -292.51 2.42, -351 2.91 M-1.23 1.65 C-59.8 2.23, -293.19 4.05, -351.49 4.29" stroke="#000000" stroke-width="1" fill="none"></path></g><g transform="translate(1020.6175462388842 602.8589740601083) rotate(0 -175.66845941100314 1.831510849787577)"><path d="M-28.99 11.37 C-20.13 8.54, -12.82 2.76, 1.35 0.95 M-27.98 10.29 C-19.57 7.64, -12.5 4.74, 0.05 -0.52" stroke="#000000" stroke-width="1" fill="none"></path></g><g transform="translate(1020.6175462388842 602.8589740601083) rotate(0 -175.66845941100314 1.831510849787577)"><path d="M-29.19 -9.15 C-20.21 -5.89, -12.84 -5.58, 1.35 0.95 M-28.19 -10.23 C-19.53 -7.16, -12.4 -4.36, 0.05 -0.52" stroke="#000000" stroke-width="1" fill="none"></path></g><g transform="translate(1020.6175462388842 602.8589740601083) rotate(0 -175.66845941100314 1.831510849787577)"><path d="M-324.41 -4.69 C-332.17 -1.23, -341.54 -0.78, -350.28 5.87 M-323.41 -5.77 C-330.45 -2.13, -339.04 0.8, -351.58 4.41" stroke="#000000" stroke-width="1" fill="none"></path></g><g transform="translate(1020.6175462388842 602.8589740601083) rotate(0 -175.66845941100314 1.831510849787577)"><path d="M-324.28 15.83 C-332.14 13.2, -341.54 7.56, -350.28 5.87 M-323.28 14.75 C-330.55 12.67, -339.17 9.9, -351.58 4.41" stroke="#000000" stroke-width="1" fill="none"></path></g></g><mask id="mask-PPgfYzBCagQ_ElW0Watfc"><rect x="0" y="0" fill="#fff" width="1472.4881228957277" height="706.064650332567"></rect><rect x="816.4622795779428" y="591.9618121963376" fill="#000" width="56.43995666503906" height="25" opacity="1"></rect></mask><g transform="translate(816.4622795779427 591.9618121963377) rotate(0 28.486807249938124 12.728672713558154)"><text x="28.21997833251953" y="0" font-family="Virgil, Segoe UI Emoji" font-size="20px" fill="#000000" text-anchor="middle" style="white-space: pre;" direction="ltr" dominant-baseline="text-before-edge">*.yaml</text></g><g stroke-linecap="round" transform="translate(346.2848269498307 453.54433458411734) rotate(0 56.68197080817151 34.96077391033039)"><path d="M17.48 0 M17.48 0 C37.02 1.28, 57.44 -1.55, 95.88 0 M17.48 0 C33.06 0.61, 50.52 0.32, 95.88 0 M95.88 0 C109.42 1.6, 111.68 4.62, 113.36 17.48 M95.88 0 C107.55 -1.6, 114.54 4.1, 113.36 17.48 M113.36 17.48 C114.3 30.26, 113.29 40.23, 113.36 52.44 M113.36 17.48 C113.75 25.92, 114.16 34.17, 113.36 52.44 M113.36 52.44 C113.51 65.19, 107.25 70.99, 95.88 69.92 M113.36 52.44 C112.75 64.4, 109.07 70.46, 95.88 69.92 M95.88 69.92 C69.19 69.26, 45.3 67.84, 17.48 69.92 M95.88 69.92 C72.16 70.32, 48.64 69.86, 17.48 69.92 M17.48 69.92 C7.82 69.54, 0.2 63.16, 0 52.44 M17.48 69.92 C6.75 71.95, 0.12 63.36, 0 52.44 M0 52.44 C-0.14 42.1, 0.38 33.46, 0 17.48 M0 52.44 C-0.62 45.93, 0.77 38.6, 0 17.48 M0 17.48 C-0.33 3.85, 7.59 -1.91, 17.48 0 M0 17.48 C-0.85 7.43, 7.39 -1.2, 17.48 0" stroke="#000000" stroke-width="1" fill="none"></path></g><g transform="translate(375.24681942548267 463.5051084944477) rotate(0 27.71997833251953 25)"><text x="27.71997833251953" y="0" font-family="Virgil, Segoe UI Emoji" font-size="20px" fill="#000000" text-anchor="middle" style="white-space: pre;" direction="ltr" dominant-baseline="text-before-edge">Repo </text><text x="27.71997833251953" y="25" font-family="Virgil, Segoe UI Emoji" font-size="20px" fill="#000000" text-anchor="middle" style="white-space: pre;" direction="ltr" dominant-baseline="text-before-edge">App 1</text></g><g stroke-linecap="round" transform="translate(244.41090330511946 579.2141651001747) rotate(0 56.68197080817151 34.960773910330374)"><path d="M17.48 0 M17.48 0 C37.45 -1.33, 56.33 -1.09, 95.88 0 M17.48 0 C33.37 0.01, 48.01 0.37, 95.88 0 M95.88 0 C107.85 -1.35, 114.82 7.24, 113.36 17.48 M95.88 0 C108.99 -0.38, 111.09 7.86, 113.36 17.48 M113.36 17.48 C114.6 23.59, 114.69 30.14, 113.36 52.44 M113.36 17.48 C114.07 26.56, 113.46 36.76, 113.36 52.44 M113.36 52.44 C111.87 63.39, 105.77 70.97, 95.88 69.92 M113.36 52.44 C115.1 65.6, 109.78 70.87, 95.88 69.92 M95.88 69.92 C65.92 70.79, 36.5 70.37, 17.48 69.92 M95.88 69.92 C68.94 70.61, 42.64 70.15, 17.48 69.92 M17.48 69.92 C5.87 68.22, -0.86 63.33, 0 52.44 M17.48 69.92 C4.78 68.18, -1.85 63.76, 0 52.44 M0 52.44 C-0.12 39.41, -0.87 29.58, 0 17.48 M0 52.44 C0.6 39.54, 0.71 25.25, 0 17.48 M0 17.48 C1.79 3.94, 6.33 0.69, 17.48 0 M0 17.48 C-1.91 7.78, 6 -2.1, 17.48 0" stroke="#000000" stroke-width="1" fill="none"></path></g><g transform="translate(272.5528960859472 589.1749390105051) rotate(0 28.53997802734375 25)"><text x="28.53997802734375" y="0" font-family="Virgil, Segoe UI Emoji" font-size="20px" fill="#000000" text-anchor="middle" style="white-space: pre;" direction="ltr" dominant-baseline="text-before-edge">Repo </text><text x="28.53997802734375" y="25" font-family="Virgil, Segoe UI Emoji" font-size="20px" fill="#000000" text-anchor="middle" style="white-space: pre;" direction="ltr" dominant-baseline="text-before-edge">App 2</text></g><g stroke-linecap="round" transform="translate(236.84154897963123 688.2011073701492) rotate(0 56.68197080817151 42.5)"><path d="M21.25 0 M21.25 0 C41.44 0.77, 64.91 0.51, 92.11 0 M21.25 0 C40.13 -0.46, 58.48 -1.45, 92.11 0 M92.11 0 C106.79 0.69, 111.7 8.78, 113.36 21.25 M92.11 0 C106.45 -2.1, 113.79 8.04, 113.36 21.25 M113.36 21.25 C112.4 34.15, 112.11 50.29, 113.36 63.75 M113.36 21.25 C113.81 29.59, 112.24 37.98, 113.36 63.75 M113.36 63.75 C111.37 75.99, 106.69 84.85, 92.11 85 M113.36 63.75 C111.49 78.95, 104.78 84.23, 92.11 85 M92.11 85 C73.35 85.74, 53.4 85.49, 21.25 85 M92.11 85 C63.39 83.68, 35.78 84.88, 21.25 85 M21.25 85 C6.22 84.44, -0.21 77.7, 0 63.75 M21.25 85 C5.97 86.14, 1.76 76.84, 0 63.75 M0 63.75 C-0.11 52.21, 0.74 37.54, 0 21.25 M0 63.75 C0.29 52.27, -0.15 41.49, 0 21.25 M0 21.25 C-0.27 6.88, 7.87 1.75, 21.25 0 M0 21.25 C-0.66 6.48, 6.69 1.54, 21.25 0" stroke="#000000" stroke-width="1" fill="none"></path></g><g transform="translate(252.9235594606543 693.2011073701492) rotate(0 40.59996032714844 37.5)"><text x="40.59996032714844" y="0" font-family="Virgil, Segoe UI Emoji" font-size="20px" fill="#000000" text-anchor="middle" style="white-space: pre;" direction="ltr" dominant-baseline="text-before-edge">Repo</text><text x="40.59996032714844" y="25" font-family="Virgil, Segoe UI Emoji" font-size="20px" fill="#000000" text-anchor="middle" style="white-space: pre;" direction="ltr" dominant-baseline="text-before-edge">Cluster </text><text x="40.59996032714844" y="50" font-family="Virgil, Segoe UI Emoji" font-size="20px" fill="#000000" text-anchor="middle" style="white-space: pre;" direction="ltr" dominant-baseline="text-before-edge">config</text></g><g stroke-linecap="round"><g transform="translate(361.64951819757215 728.220570253447) rotate(0 73.23458540573404 -42.394323003403684)"><path d="M0.11 -1.02 C24.66 -15.05, 121.95 -69.98, 146.36 -83.77" stroke="#000000" stroke-width="1.5" fill="none" stroke-dasharray="8 9"></path></g><g transform="translate(361.64951819757215 728.220570253447) rotate(0 73.23458540573404 -42.394323003403684)"><path d="M17.89 -24.19 C15.97 -18.83, 11.65 -12.45, 1.62 -2.65" stroke="#000000" stroke-width="1.5" fill="none"></path></g><g transform="translate(361.64951819757215 728.220570253447) rotate(0 73.23458540573404 -42.394323003403684)"><path d="M28 -6.33 C23.78 -4.92, 17.22 -2.5, 1.62 -2.65" stroke="#000000" stroke-width="1.5" fill="none"></path></g><g transform="translate(361.64951819757215 728.220570253447) rotate(0 73.23458540573404 -42.394323003403684)"><path d="M125.15 -61.32 C131.74 -66.11, 136.07 -69.85, 147.87 -85.39" stroke="#000000" stroke-width="1.5" fill="none"></path></g><g transform="translate(361.64951819757215 728.220570253447) rotate(0 73.23458540573404 -42.394323003403684)"><path d="M115.06 -79.19 C123.94 -80.02, 130.51 -79.8, 147.87 -85.39" stroke="#000000" stroke-width="1.5" fill="none"></path></g></g><mask></mask><g stroke-linecap="round"><g transform="translate(365.1517963791355 607.4657380357257) rotate(0 69.51184750285589 1.2305153370355981)"><path d="M0.46 0.51 C23.45 0.87, 115.4 1.97, 138.57 1.95" stroke="#000000" stroke-width="1.5" fill="none" stroke-dasharray="8 9"></path></g><g transform="translate(365.1517963791355 607.4657380357257) rotate(0 69.51184750285589 1.2305153370355981)"><path d="M29.61 -11.4 C19.47 -6.29, 6.93 -4.25, 1.66 -1.45" stroke="#000000" stroke-width="1.5" fill="none"></path></g><g transform="translate(365.1517963791355 607.4657380357257) rotate(0 69.51184750285589 1.2305153370355981)"><path d="M29.37 9.12 C19.35 7.01, 6.9 1.83, 1.66 -1.45" stroke="#000000" stroke-width="1.5" fill="none"></path></g><g transform="translate(365.1517963791355 607.4657380357257) rotate(0 69.51184750285589 1.2305153370355981)"><path d="M111.16 10.05 C120.94 7.9, 128.29 2.91, 139.77 -0.01" stroke="#000000" stroke-width="1.5" fill="none"></path></g><g transform="translate(365.1517963791355 607.4657380357257) rotate(0 69.51184750285589 1.2305153370355981)"><path d="M111.29 -10.47 C121 -5.4, 128.3 -3.18, 139.77 -0.01" stroke="#000000" stroke-width="1.5" fill="none"></path></g></g><mask></mask><g stroke-linecap="round"><g transform="translate(468.75094083048066 505.0033623871643) rotate(0 20.67525588292969 27.846054697752137)"><path d="M-0.7 -0.72 C6.33 8.63, 35.07 46.9, 42.05 56.41" stroke="#000000" stroke-width="1.5" fill="none" stroke-dasharray="8 9"></path></g><g transform="translate(468.75094083048066 505.0033623871643) rotate(0 20.67525588292969 27.846054697752137)"><path d="M23.22 16.7 C16.83 10.31, 9.46 7.25, 1.3 0.44" stroke="#000000" stroke-width="1.5" fill="none"></path></g><g transform="translate(468.75094083048066 505.0033623871643) rotate(0 20.67525588292969 27.846054697752137)"><path d="M6.8 29.01 C5.16 19.14, 2.56 12.5, 1.3 0.44" stroke="#000000" stroke-width="1.5" fill="none"></path></g><g transform="translate(468.75094083048066 505.0033623871643) rotate(0 20.67525588292969 27.846054697752137)"><path d="M15.8 40.93 C24.08 44.41, 31.31 50.92, 44.05 57.57" stroke="#000000" stroke-width="1.5" fill="none"></path></g><g transform="translate(468.75094083048066 505.0033623871643) rotate(0 20.67525588292969 27.846054697752137)"><path d="M32.26 28.69 C35.79 35.63, 38.23 45.7, 44.05 57.57" stroke="#000000" stroke-width="1.5" fill="none"></path></g></g><mask></mask><g stroke-linecap="round" transform="translate(514.3417149638644 387.51741629078975) rotate(0 67.5 45.5)"><path d="M22.75 0 M22.75 0 C47.55 -0.52, 73.88 -0.78, 112.25 0 M22.75 0 C50.78 0.49, 77.62 0.33, 112.25 0 M112.25 0 C128.69 -1.59, 133.1 8.08, 135 22.75 M112.25 0 C126.93 2.23, 135.46 7.35, 135 22.75 M135 22.75 C135.01 35.66, 135.65 52.21, 135 68.25 M135 22.75 C134.85 39.49, 135.22 55.05, 135 68.25 M135 68.25 C133.84 83.92, 128.21 89.44, 112.25 91 M135 68.25 C137.14 82.86, 126.4 89.45, 112.25 91 M112.25 91 C93.58 90.97, 73.31 90.65, 22.75 91 M112.25 91 C84.34 90.15, 57.28 91.34, 22.75 91 M22.75 91 C8.98 91.93, 0.49 84.54, 0 68.25 M22.75 91 C7.52 91.23, 1.99 83.9, 0 68.25 M0 68.25 C1.63 52.93, 0.18 43.01, 0 22.75 M0 68.25 C0.39 49.66, -0.35 32.39, 0 22.75 M0 22.75 C-0.66 6.68, 7.41 1.93, 22.75 0 M0 22.75 C0.28 7.41, 9.81 -0.04, 22.75 0" stroke="#000000" stroke-width="1" fill="none"></path></g><g transform="translate(545.4117451762668 408.01741629078975) rotate(0 36.429969787597656 25)"><text x="36.429969787597656" y="0" font-family="Virgil, Segoe UI Emoji" font-size="20px" fill="#000000" text-anchor="middle" style="white-space: pre;" direction="ltr" dominant-baseline="text-before-edge">Github </text><text x="36.429969787597656" y="25" font-family="Virgil, Segoe UI Emoji" font-size="20px" fill="#000000" text-anchor="middle" style="white-space: pre;" direction="ltr" dominant-baseline="text-before-edge">actions</text></g><g mask="url(#mask-MwPy4zpa9_qMKNK1N9p_9)" stroke-linecap="round"><g transform="translate(584.0603184862068 559.4174998320203) rotate(0 0.13640441080869437 -33.653082453973184)"><path d="M0.7 -0.6 C0.88 -11.92, 0.45 -55.97, 0.3 -67.29 M-0.39 1.7 C-0.27 -10.02, -0.36 -57.49, -0.47 -69.01" stroke="#000000" stroke-width="1" fill="none"></path></g><g transform="translate(584.0603184862068 559.4174998320203) rotate(0 0.13640441080869437 -33.653082453973184)"><path d="M8.93 -40.31 C8.57 -47.75, 4.11 -52.43, 0.53 -68.75 M10.85 -40.75 C6.9 -49.75, 2.67 -58.37, 0.11 -69.93" stroke="#000000" stroke-width="1" fill="none"></path></g><g transform="translate(584.0603184862068 559.4174998320203) rotate(0 0.13640441080869437 -33.653082453973184)"><path d="M-11.59 -40.21 C-7.07 -47.79, -6.66 -52.5, 0.53 -68.75 M-9.67 -40.65 C-6.97 -49.62, -4.57 -58.26, 0.11 -69.93" stroke="#000000" stroke-width="1" fill="none"></path></g></g><mask id="mask-MwPy4zpa9_qMKNK1N9p_9"><rect x="0" y="0" fill="#fff" width="684.0952786018296" height="727.4695711626823"></rect><rect x="542.2108605841572" y="505.3914641666893" fill="#000" width="83.66395568847656" height="40" opacity="1"></rect></mask><g transform="translate(542.210860584157 505.39146416668933) rotate(0 41.98586231285836 20.37295321135781)"><text x="41.83197784423828" y="0" font-family="Virgil, Segoe UI Emoji" font-size="16px" fill="#000000" text-anchor="middle" style="white-space: pre;" direction="ltr" dominant-baseline="text-before-edge">trigger on </text><text x="41.83197784423828" y="20" font-family="Virgil, Segoe UI Emoji" font-size="16px" fill="#000000" text-anchor="middle" style="white-space: pre;" direction="ltr" dominant-baseline="text-before-edge">new commit</text></g><g mask="url(#mask-FQA54A380CKiOTYZG8Zh3)" stroke-linecap="round"><g transform="translate(1188.1768201424322 593.5937456841588) rotate(0 86.7499322944443 -0.2016613159329097)"><path d="M0.86 -0.21 C29.94 -0.37, 144.97 -0.6, 173.65 -0.41 M-0.15 -1.36 C28.85 -1.4, 144.09 0.88, 172.75 0.96" stroke="#000000" stroke-width="1" fill="none"></path></g></g><mask id="mask-FQA54A380CKiOTYZG8Zh3"><rect x="0" y="0" fill="#fff" width="1461.7264837291011" height="693.6737712622853"></rect><rect x="1232.6016916086185" y="531.0537328950954" fill="#000" width="84.69992065429688" height="125" opacity="1"></rect></mask><g transform="translate(1232.6016916086182 531.0537328950954) rotate(0 42.3250608282583 62.33835147313036)"><text x="42.34996032714844" y="0" font-family="Virgil, Segoe UI Emoji" font-size="20px" fill="#000000" text-anchor="middle" style="white-space: pre;" direction="ltr" dominant-baseline="text-before-edge">deploy</text><text x="42.34996032714844" y="25" font-family="Virgil, Segoe UI Emoji" font-size="20px" fill="#000000" text-anchor="middle" style="white-space: pre;" direction="ltr" dominant-baseline="text-before-edge">delete</text><text x="42.34996032714844" y="50" font-family="Virgil, Segoe UI Emoji" font-size="20px" fill="#000000" text-anchor="middle" style="white-space: pre;" direction="ltr" dominant-baseline="text-before-edge">modify</text><text x="42.34996032714844" y="75" font-family="Virgil, Segoe UI Emoji" font-size="20px" fill="#000000" text-anchor="middle" style="white-space: pre;" direction="ltr" dominant-baseline="text-before-edge">recreate</text><text x="42.34996032714844" y="100" font-family="Virgil, Segoe UI Emoji" font-size="20px" fill="#000000" text-anchor="middle" style="white-space: pre;" direction="ltr" dominant-baseline="text-before-edge">monitor </text></g><g stroke-linecap="round" transform="translate(1460.111309787387 568.4218869870799) rotate(0 72.5 25.5)"><path d="M12.75 0 M12.75 0 C50.09 1.75, 87.88 1.82, 132.25 0 M12.75 0 C38.07 0.07, 63.59 0.59, 132.25 0 M132.25 0 C142.27 -0.08, 146.79 2.3, 145 12.75 M132.25 0 C139.95 2.25, 145.57 5.87, 145 12.75 M145 12.75 C143.22 20.89, 145.16 30.12, 145 38.25 M145 12.75 C144.93 23.04, 145.66 32.36, 145 38.25 M145 38.25 C143.33 46.67, 141.72 51.99, 132.25 51 M145 38.25 C147.17 45.07, 139.53 50.05, 132.25 51 M132.25 51 C85.67 51.53, 39.91 50.59, 12.75 51 M132.25 51 C106.99 50.87, 79.65 50.51, 12.75 51 M12.75 51 C5.58 50.16, 1.87 45.3, 0 38.25 M12.75 51 C3.71 48.77, -2.22 45.22, 0 38.25 M0 38.25 C0.63 29.02, 1.71 21.28, 0 12.75 M0 38.25 C-0.16 32.68, -0.7 27.67, 0 12.75 M0 12.75 C0.76 2.95, 4.25 0.77, 12.75 0 M0 12.75 C0.59 4.32, 2.44 1.61, 12.75 0" stroke="#000000" stroke-width="1" fill="none"></path></g><g transform="translate(1498.8513457981292 581.4218869870799) rotate(0 33.75996398925781 12.5)"><text x="33.75996398925781" y="0" font-family="Virgil, Segoe UI Emoji" font-size="20px" fill="#000000" text-anchor="middle" style="white-space: pre;" direction="ltr" dominant-baseline="text-before-edge">Service</text></g><g stroke-linecap="round" transform="translate(1457.1165695828981 480.36628107560887) rotate(0 74.66676435308602 29.037075026200114)"><path d="M14.52 0 M14.52 0 C42.02 1.45, 69.15 -1.22, 134.81 0 M14.52 0 C45.4 -0.22, 74.19 -0.46, 134.81 0 M134.81 0 C142.56 -1.33, 149.72 3.77, 149.33 14.52 M134.81 0 C143.44 0.57, 148.09 6.65, 149.33 14.52 M149.33 14.52 C148.13 22.16, 149.33 28.79, 149.33 43.56 M149.33 14.52 C149.44 25.9, 149.7 36.54, 149.33 43.56 M149.33 43.56 C147.76 54.64, 145.05 57.8, 134.81 58.07 M149.33 43.56 C148.03 54.98, 145.68 56.19, 134.81 58.07 M134.81 58.07 C95.45 57.24, 50.93 60.22, 14.52 58.07 M134.81 58.07 C89.8 59.99, 45.26 59.93, 14.52 58.07 M14.52 58.07 C3.31 57.8, -1.14 54.54, 0 43.56 M14.52 58.07 C4.33 56.91, 1.84 52.32, 0 43.56 M0 43.56 C1.96 33.57, -1.31 26.07, 0 14.52 M0 43.56 C-1.17 32.33, -1.13 22.46, 0 14.52 M0 14.52 C-1.91 6.14, 4.81 0.83, 14.52 0 M0 14.52 C-2.22 4.89, 6.35 1.99, 14.52 0" stroke="#000000" stroke-width="1" fill="none"></path></g><g transform="translate(1478.6033870365702 496.903356101809) rotate(0 53.17994689941406 12.5)"><text x="53.17994689941406" y="0" font-family="Virgil, Segoe UI Emoji" font-size="20px" fill="#000000" text-anchor="middle" style="white-space: pre;" direction="ltr" dominant-baseline="text-before-edge">Deployment</text></g><g stroke-linecap="round" transform="translate(1456.4240846701857 649.0117956357857) rotate(0 76.04948221147652 24.658457222043523)"><path d="M12.33 0 M12.33 0 C44.11 0.93, 77.49 0.76, 139.77 0 M12.33 0 C57.46 0.71, 101.13 0.26, 139.77 0 M139.77 0 C146.12 1.67, 151.67 5.58, 152.1 12.33 M139.77 0 C147.59 -0.17, 154.03 3.21, 152.1 12.33 M152.1 12.33 C154.28 18.51, 150.42 23.42, 152.1 36.99 M152.1 12.33 C151.24 19.16, 152.08 26.02, 152.1 36.99 M152.1 36.99 C150.65 47.16, 149.27 49.82, 139.77 49.32 M152.1 36.99 C152.07 45.83, 148.39 47.4, 139.77 49.32 M139.77 49.32 C94.95 50.04, 52.94 49, 12.33 49.32 M139.77 49.32 C108.4 50.22, 76.37 48.97, 12.33 49.32 M12.33 49.32 C3.95 49.68, -0.51 43.65, 0 36.99 M12.33 49.32 C3.23 50.33, 1.92 44.4, 0 36.99 M0 36.99 C-1.21 28.24, 0.27 18.94, 0 12.33 M0 36.99 C-0.92 27.51, 0.66 19.37, 0 12.33 M0 12.33 C0.27 2.54, 4.85 -1.18, 12.33 0 M0 12.33 C-0.31 2.81, 3.22 -1.06, 12.33 0" stroke="#000000" stroke-width="1" fill="none"></path></g><g transform="translate(1479.5336102166232 661.1702528578293) rotate(0 52.93995666503906 12.5)"><text x="52.93995666503906" y="0" font-family="Virgil, Segoe UI Emoji" font-size="20px" fill="#000000" text-anchor="middle" style="white-space: pre;" direction="ltr" dominant-baseline="text-before-edge">Helm Chart</text></g><g stroke-linecap="round"><g transform="translate(1362.3151757985331 594.0330329887848) rotate(0 44.726279584699796 -0.6792816614656374)"><path d="M1.04 -0.57 C15.67 -0.81, 72.54 -1.14, 87.05 -1.28 M0.12 1.75 C15.21 1.13, 74.77 -2.22, 89.33 -3.11" stroke="#000000" stroke-width="1" fill="none"></path></g><g transform="translate(1362.3151757985331 594.0330329887848) rotate(0 44.726279584699796 -0.6792816614656374)"><path d="M60.83 7.41 C69.21 6.15, 75.45 3.03, 87.47 -4.79 M61.65 9.39 C70.88 4.43, 79.56 0.26, 89.65 -3.17" stroke="#000000" stroke-width="1" fill="none"></path></g><g transform="translate(1362.3151757985331 594.0330329887848) rotate(0 44.726279584699796 -0.6792816614656374)"><path d="M59.65 -13.08 C68.34 -9.52, 74.85 -7.81, 87.47 -4.79 M60.46 -11.1 C70.18 -9.09, 79.26 -6.28, 89.65 -3.17" stroke="#000000" stroke-width="1" fill="none"></path></g></g><mask></mask><g stroke-linecap="round"><g transform="translate(1365.164706016414 590.9375780678649) rotate(0 39.268411360055666 -30.094789815460786)"><path d="M-1.1 0.13 C12.28 -9.8, 66.18 -50.13, 79.64 -60.32 M0.52 -0.85 C13.84 -10.5, 65.89 -48.86, 79 -58.71" stroke="#000000" stroke-width="1" fill="none"></path></g><g transform="translate(1365.164706016414 590.9375780678649) rotate(0 39.268411360055666 -30.094789815460786)"><path d="M62.7 -32.69 C66.95 -38.72, 69.91 -44.51, 77.81 -58.27 M62.47 -33.59 C69.46 -43.16, 74.82 -53.11, 78.59 -58.13" stroke="#000000" stroke-width="1" fill="none"></path></g><g transform="translate(1365.164706016414 590.9375780678649) rotate(0 39.268411360055666 -30.094789815460786)"><path d="M50.46 -49.16 C57.64 -51.01, 63.63 -52.72, 77.81 -58.27 M50.23 -50.06 C61.89 -53.46, 71.83 -57.25, 78.59 -58.13" stroke="#000000" stroke-width="1" fill="none"></path></g></g><mask></mask><g stroke-linecap="round"><g transform="translate(1364.2429166159936 595.5466601010068) rotate(0 40.676368359608546 32.126515982508295)"><path d="M0.69 -1.14 C14.51 9.89, 68.26 54.5, 81.76 65.4 M-0.4 0.87 C13.42 11.65, 67.54 52.98, 81.14 63.73" stroke="#000000" stroke-width="1" fill="none"></path></g><g transform="translate(1364.2429166159936 595.5466601010068) rotate(0 40.676368359608546 32.126515982508295)"><path d="M50.67 55.63 C59.74 57.22, 63.55 58.85, 80.2 63.15 M52.84 54.7 C61.79 57.96, 71.06 59.91, 81.11 64.07" stroke="#000000" stroke-width="1" fill="none"></path></g><g transform="translate(1364.2429166159936 595.5466601010068) rotate(0 40.676368359608546 32.126515982508295)"><path d="M63.25 39.41 C69.66 44.36, 70.93 49.26, 80.2 63.15 M65.42 38.48 C70.35 47.07, 75.47 54.39, 81.11 64.07" stroke="#000000" stroke-width="1" fill="none"></path></g></g><mask></mask><g stroke-linecap="round" transform="translate(1022.2538356733353 385.1400226463117) rotate(0 84.99999999999994 43.5)"><path d="M21.75 0 M21.75 0 C69.89 -1.33, 121.06 0.42, 148.25 0 M21.75 0 C66.73 0.99, 109.1 1.2, 148.25 0 M148.25 0 C162.75 -0.15, 171.69 7.64, 170 21.75 M148.25 0 C162.44 0.98, 171.65 8.88, 170 21.75 M170 21.75 C170.81 35.66, 171.09 48.3, 170 65.25 M170 21.75 C169.32 33.32, 170.75 46.77, 170 65.25 M170 65.25 C170.13 80.59, 162.4 88.6, 148.25 87 M170 65.25 C170.23 81.04, 163.84 86.92, 148.25 87 M148.25 87 C122.37 87.89, 94.73 86.2, 21.75 87 M148.25 87 C110.76 87.87, 74.35 87.23, 21.75 87 M21.75 87 C8.99 87.35, 1.85 78.51, 0 65.25 M21.75 87 C6.03 84.93, -1.64 81.01, 0 65.25 M0 65.25 C0.3 55.94, 0.22 41.55, 0 21.75 M0 65.25 C0.58 49.25, -0.94 32.07, 0 21.75 M0 21.75 C0.83 6.71, 5.28 1.42, 21.75 0 M0 21.75 C-1.2 5.7, 5.04 1.07, 21.75 0" stroke="#000000" stroke-width="1" fill="none"></path></g><g transform="translate(1039.353887553218 403.6400226463117) rotate(0 67.89994812011713 25)"><text x="67.89994812011719" y="0" font-family="Virgil, Segoe UI Emoji" font-size="20px" fill="#000000" text-anchor="middle" style="white-space: pre;" direction="ltr" dominant-baseline="text-before-edge">argocd image </text><text x="67.89994812011719" y="25" font-family="Virgil, Segoe UI Emoji" font-size="20px" fill="#000000" text-anchor="middle" style="white-space: pre;" direction="ltr" dominant-baseline="text-before-edge">updater</text></g><g stroke-linecap="round" transform="translate(281.20413487872554 146.25466392069396) rotate(0 88.3486029137716 45.04047495931755)"><path d="M22.52 0 M22.52 0 C64.31 -1.17, 111.47 -2.78, 154.18 0 M22.52 0 C73.37 0.66, 126.06 0.3, 154.18 0 M154.18 0 C170.56 1.87, 176.89 7.97, 176.7 22.52 M154.18 0 C169.23 -0.52, 176.85 8.17, 176.7 22.52 M176.7 22.52 C176.23 34.61, 175.31 44.2, 176.7 67.56 M176.7 22.52 C176.02 36.9, 177.13 52.81, 176.7 67.56 M176.7 67.56 C178.12 81.53, 167.43 89.77, 154.18 90.08 M176.7 67.56 C175.23 81.99, 167.46 89.76, 154.18 90.08 M154.18 90.08 C114.15 90.03, 77.26 90.28, 22.52 90.08 M154.18 90.08 C116.58 89.62, 78.22 89.75, 22.52 90.08 M22.52 90.08 C7.83 90.29, -0.79 81, 0 67.56 M22.52 90.08 C8.89 90.39, 0.94 83.07, 0 67.56 M0 67.56 C0.89 55.11, 1.52 44.72, 0 22.52 M0 67.56 C-0.54 53.49, 1.04 40.55, 0 22.52 M0 22.52 C-0.83 8.88, 5.97 0.39, 22.52 0 M0 22.52 C0.68 5.26, 9.2 -0.13, 22.52 0" stroke="#000000" stroke-width="1" fill="none"></path></g><g transform="translate(292.1228137812667 166.2951388800115) rotate(0 77.42992401123047 25)"><text x="77.42992401123047" y="0" font-family="Virgil, Segoe UI Emoji" font-size="20px" fill="#000000" text-anchor="middle" style="white-space: pre;" direction="ltr" dominant-baseline="text-before-edge">Kaniko Pod</text><text x="77.42992401123047" y="25" font-family="Virgil, Segoe UI Emoji" font-size="20px" fill="#000000" text-anchor="middle" style="white-space: pre;" direction="ltr" dominant-baseline="text-before-edge">with build config</text></g><g mask="url(#mask-TTueuyRYHm1krHMZGP3I_)" stroke-linecap="round"><g transform="translate(520.7918588736479 368.8597640949144) rotate(359.94355203794305 -50.41221564491525 -57.76097490906499)"><path d="M-0.12 -0.24 C-16.8 -19.27, -83.11 -96.3, -99.67 -115.28 M-1.65 -1.41 C-18.54 -20.18, -84.27 -94.85, -100.7 -113.96" stroke="#000000" stroke-width="1" fill="none"></path></g><g transform="translate(520.7918588736479 368.8597640949144) rotate(359.94355203794305 -50.41221564491525 -57.76097490906499)"><path d="M-74.84 -99.71 C-83.79 -104.26, -90.63 -111.18, -100.2 -115 M-74.84 -98.71 C-82.66 -103.37, -92.43 -108.42, -100.69 -113.6" stroke="#000000" stroke-width="1" fill="none"></path></g><g transform="translate(520.7918588736479 368.8597640949144) rotate(359.94355203794305 -50.41221564491525 -57.76097490906499)"><path d="M-90.31 -86.23 C-93.95 -95.28, -95.6 -106.71, -100.2 -115 M-90.31 -85.23 C-92.98 -94.24, -97.68 -103.72, -100.69 -113.6" stroke="#000000" stroke-width="1" fill="none"></path></g></g><mask id="mask-TTueuyRYHm1krHMZGP3I_"><rect x="0" y="0" fill="#fff" width="720.3076686880893" height="583.7314827364296"></rect><rect x="373.5943325473665" y="291.42325998771156" fill="#000" width="194.8798828125" height="40" opacity="1"></rect></mask><g transform="translate(373.5943325473664 291.4232599877116) rotate(0 96.78531068136624 19.675529198137795)"><text x="97.43994140625" y="0" font-family="Virgil, Segoe UI Emoji" font-size="16px" fill="#000000" text-anchor="middle" style="white-space: pre;" direction="ltr" dominant-baseline="text-before-edge">delete the pod</text><text x="97.43994140625" y="20" font-family="Virgil, Segoe UI Emoji" font-size="16px" fill="#000000" text-anchor="middle" style="white-space: pre;" direction="ltr" dominant-baseline="text-before-edge">argocd recreate the pod</text></g><g stroke-linecap="round"><g transform="translate(365.18846223766144 258.6401319091663) rotate(0 -0.4615567749847145 91.84232650295158)"><path d="M0.55 -0.11 C0.21 30.64, -1.43 153.23, -1.48 183.79" stroke="#000000" stroke-width="1.5" fill="none" stroke-dasharray="8 9"></path></g><g transform="translate(365.18846223766144 258.6401319091663) rotate(0 -0.4615567749847145 91.84232650295158)"><path d="M10.29 26.28 C8.26 19.42, 3.99 7.02, 0.09 1.64" stroke="#000000" stroke-width="1.5" fill="none"></path></g><g transform="translate(365.18846223766144 258.6401319091663) rotate(0 -0.4615567749847145 91.84232650295158)"><path d="M-10.23 26.03 C-5.15 19.16, -2.3 6.85, 0.09 1.64" stroke="#000000" stroke-width="1.5" fill="none"></path></g><g transform="translate(365.18846223766144 258.6401319091663) rotate(0 -0.4615567749847145 91.84232650295158)"><path d="M-11.69 153.6 C-7.13 166.25, -4.48 173.47, -1.94 185.55" stroke="#000000" stroke-width="1.5" fill="none"></path></g><g transform="translate(365.18846223766144 258.6401319091663) rotate(0 -0.4615567749847145 91.84232650295158)"><path d="M8.84 153.77 C6.28 166.46, 1.81 173.62, -1.94 185.55" stroke="#000000" stroke-width="1.5" fill="none"></path></g></g><mask></mask><g stroke-linecap="round"><g transform="translate(307.71628122226576 249.3456168433181) rotate(0 -0.6398300154882719 159.0478125363856)"><path d="M-0.52 1.13 C-0.53 54.09, -0.74 264.39, -0.76 316.96" stroke="#000000" stroke-width="1.5" fill="none" stroke-dasharray="8 9"></path></g><g transform="translate(307.71628122226576 249.3456168433181) rotate(0 -0.6398300154882719 159.0478125363856)"><path d="M11.6 29.49 C7.19 22.86, 4.03 16.94, -1.83 2.01" stroke="#000000" stroke-width="1.5" fill="none"></path></g><g transform="translate(307.71628122226576 249.3456168433181) rotate(0 -0.6398300154882719 159.0478125363856)"><path d="M-8.92 29.48 C-8.39 22.94, -6.6 17.02, -1.83 2.01" stroke="#000000" stroke-width="1.5" fill="none"></path></g><g transform="translate(307.71628122226576 249.3456168433181) rotate(0 -0.6398300154882719 159.0478125363856)"><path d="M-9.11 288.93 C-8.95 295.97, -7.17 303.64, -2.06 317.85" stroke="#000000" stroke-width="1.5" fill="none"></path></g><g transform="translate(307.71628122226576 249.3456168433181) rotate(0 -0.6398300154882719 159.0478125363856)"><path d="M11.41 288.94 C6.63 295.89, 3.46 303.55, -2.06 317.85" stroke="#000000" stroke-width="1.5" fill="none"></path></g></g><mask></mask><g stroke-linecap="round" transform="translate(695.7542546081002 388.6836425489704) rotate(0 60.728719512592704 46.25450523228167)"><path d="M23.13 0 M23.13 0 C37.41 -0.9, 54.76 1.61, 98.33 0 M23.13 0 C39.15 -1.04, 56.45 -1.35, 98.33 0 M98.33 0 C113.47 -1.31, 119.57 7.51, 121.46 23.13 M98.33 0 C113.8 0.55, 120.93 7.07, 121.46 23.13 M121.46 23.13 C122.28 42.87, 119.8 59.36, 121.46 69.38 M121.46 23.13 C121.17 35.3, 120.99 48.87, 121.46 69.38 M121.46 69.38 C121.8 84.2, 113.65 93.85, 98.33 92.51 M121.46 69.38 C121.36 83.87, 112.33 91.99, 98.33 92.51 M98.33 92.51 C68.14 91.14, 43.62 92.11, 23.13 92.51 M98.33 92.51 C83.45 91.22, 68.72 92.21, 23.13 92.51 M23.13 92.51 C6.26 90.68, 0.11 84.34, 0 69.38 M23.13 92.51 C7.49 91.5, -1.24 85.79, 0 69.38 M0 69.38 C1.19 54.53, -1.6 37.04, 0 23.13 M0 69.38 C1.1 59.57, 1.19 50.39, 0 23.13 M0 23.13 C-0.33 6.2, 6.02 1.87, 23.13 0 M0 23.13 C1.24 7.95, 6.15 0.37, 23.13 0" stroke="#000000" stroke-width="1" fill="none"></path></g><g transform="translate(717.1389876094624 404.93814778125204) rotate(0 39.34398651123047 30)"><text x="39.34398651123047" y="0" font-family="Virgil, Segoe UI Emoji" font-size="16px" fill="#000000" text-anchor="middle" style="white-space: pre;" direction="ltr" dominant-baseline="text-before-edge">Github </text><text x="39.34398651123047" y="20" font-family="Virgil, Segoe UI Emoji" font-size="16px" fill="#000000" text-anchor="middle" style="white-space: pre;" direction="ltr" dominant-baseline="text-before-edge">container </text><text x="39.34398651123047" y="40" font-family="Virgil, Segoe UI Emoji" font-size="16px" fill="#000000" text-anchor="middle" style="white-space: pre;" direction="ltr" dominant-baseline="text-before-edge">registry</text></g><g stroke-linecap="round"><g transform="translate(652.3316578594277 568.6671441431497) rotate(0 26.060461566166737 -36.52652282299361)"><path d="M-1.1 0.06 C7.76 -11.98, 44.21 -60.83, 53.22 -73.12 M0.53 -0.95 C9.2 -12.72, 43.56 -59.69, 52.12 -71.64" stroke="#000000" stroke-width="1" fill="none"></path></g><g transform="translate(652.3316578594277 568.6671441431497) rotate(0 26.060461566166737 -36.52652282299361)"><path d="M43.99 -43.25 C46.43 -52.46, 48.08 -59.58, 53.03 -72.35 M43 -43 C46.07 -54.97, 50.59 -64.79, 52.02 -70.81" stroke="#000000" stroke-width="1" fill="none"></path></g><g transform="translate(652.3316578594277 568.6671441431497) rotate(0 26.060461566166737 -36.52652282299361)"><path d="M27.37 -55.3 C34.83 -60.66, 41.59 -64.08, 53.03 -72.35 M26.39 -55.05 C36.06 -62.37, 47.11 -67.46, 52.02 -70.81" stroke="#000000" stroke-width="1" fill="none"></path></g></g><mask></mask><g stroke-linecap="round"><g transform="translate(476.12403424339396 189.191430385663) rotate(0 130.9359113162896 92.67749904661953)"><path d="M0.56 -0.42 C43.76 30.49, 217.01 154.59, 260.25 185.77 M-0.61 -1.69 C42.88 29.36, 218.67 156.01, 262.48 187.04" stroke="#000000" stroke-width="1" fill="none"></path></g><g transform="translate(476.12403424339396 189.191430385663) rotate(0 130.9359113162896 92.67749904661953)"><path d="M232.88 177.46 C243.89 180, 256.46 184.59, 263.19 188.53 M234.28 179.08 C240.48 181.68, 246.4 183.1, 263.4 187.79" stroke="#000000" stroke-width="1" fill="none"></path></g><g transform="translate(476.12403424339396 189.191430385663) rotate(0 130.9359113162896 92.67749904661953)"><path d="M244.82 160.77 C251.27 169.79, 259.24 180.81, 263.19 188.53 M246.22 162.39 C249.59 168.96, 252.73 174.28, 263.4 187.79" stroke="#000000" stroke-width="1" fill="none"></path></g></g><mask></mask><g mask="url(#mask-_D9h7nlUM6kBZsXBZbp65)" stroke-linecap="round"><g transform="translate(834.2031445349403 425.8157898479991) rotate(0 89.06071782345282 2.333921924849406)"><path d="M-0.25 1.18 C29.37 1.83, 148.81 3.31, 178.37 3.49" stroke="#000000" stroke-width="1.5" fill="none" stroke-dasharray="8 9"></path></g><g transform="translate(834.2031445349403 425.8157898479991) rotate(0 89.06071782345282 2.333921924849406)"><path d="M30.05 -7.73 C19.69 -6.42, 7.65 -3.29, 0.46 -0.58" stroke="#000000" stroke-width="1.5" fill="none"></path></g><g transform="translate(834.2031445349403 425.8157898479991) rotate(0 89.06071782345282 2.333921924849406)"><path d="M29.76 12.79 C19.58 6.87, 7.63 2.76, 0.46 -0.58" stroke="#000000" stroke-width="1.5" fill="none"></path></g><g transform="translate(834.2031445349403 425.8157898479991) rotate(0 89.06071782345282 2.333921924849406)"><path d="M152.05 14.43 C161.73 8.86, 169.66 4.99, 179.09 1.73" stroke="#000000" stroke-width="1.5" fill="none"></path></g><g transform="translate(834.2031445349403 425.8157898479991) rotate(0 89.06071782345282 2.333921924849406)"><path d="M152.25 -6.09 C161.79 -4.43, 169.65 -1.06, 179.09 1.73" stroke="#000000" stroke-width="1.5" fill="none"></path></g></g><mask id="mask-_D9h7nlUM6kBZsXBZbp65"><rect x="0" y="0" fill="#fff" width="1111.9997192335218" height="528.3207971400711"></rect><rect x="881.2374563593287" y="407.0682934940352" fill="#000" width="83.72795104980469" height="40" opacity="1"></rect></mask><g transform="translate(881.2374563593287 407.0682934940352) rotate(0 42.02640599906442 21.08141827881336)"><text x="41.863975524902344" y="0" font-family="Virgil, Segoe UI Emoji" font-size="16px" fill="#000000" text-anchor="middle" style="white-space: pre;" direction="ltr" dominant-baseline="text-before-edge">check for </text><text x="41.863975524902344" y="20" font-family="Virgil, Segoe UI Emoji" font-size="16px" fill="#000000" text-anchor="middle" style="white-space: pre;" direction="ltr" dominant-baseline="text-before-edge">new images</text></g><g mask="url(#mask-ZYnJzqvmk1j5TeCDMsyP6)" stroke-linecap="round"><g transform="translate(1205.1988398434705 420.6836018982217) rotate(0 119.91506560824644 32.33961845356781)"><path d="M0.74 1.07 C40.75 11.82, 200.33 53.92, 240.16 64.1 M-0.33 0.58 C39.52 11.05, 199.41 52.07, 239.26 62.47" stroke="#000000" stroke-width="1" fill="none"></path></g><g transform="translate(1205.1988398434705 420.6836018982217) rotate(0 119.91506560824644 32.33961845356781)"><path d="M211.18 65.5 C220.18 63.69, 226.14 62, 241.11 62.34 M208.97 65.61 C216.29 65.1, 222.87 64.35, 238.38 62.18" stroke="#000000" stroke-width="1" fill="none"></path></g><g transform="translate(1205.1988398434705 420.6836018982217) rotate(0 119.91506560824644 32.33961845356781)"><path d="M216.31 45.63 C223.66 49.98, 228.04 54.41, 241.11 62.34 M214.11 45.74 C220.37 49.84, 225.75 53.74, 238.38 62.18" stroke="#000000" stroke-width="1" fill="none"></path></g></g><mask id="mask-ZYnJzqvmk1j5TeCDMsyP6"><rect x="0" y="0" fill="#fff" width="1545.2661254544914" height="583.8426170614849"></rect><rect x="1221.5365521680237" y="432.26310947985337" fill="#000" width="207.39186096191406" height="40" opacity="1"></rect></mask><g transform="translate(1221.536552168024 432.26310947985337) rotate(0 103.57735328369301 20.76011087193619)"><text x="103.69593048095703" y="0" font-family="Virgil, Segoe UI Emoji" font-size="16px" fill="#000000" text-anchor="middle" style="white-space: pre;" direction="ltr" dominant-baseline="text-before-edge">restart the pod with the </text><text x="103.69593048095703" y="20" font-family="Virgil, Segoe UI Emoji" font-size="16px" fill="#000000" text-anchor="middle" style="white-space: pre;" direction="ltr" dominant-baseline="text-before-edge">old image</text></g><g stroke-linecap="round"><g transform="translate(1102.9320046889495 278.15058133066356) rotate(0 -0.39965617330972236 47.69440301755526)"><path d="M0.91 0.58 C0.87 16.56, -0.94 79.81, -1.32 95.55 M-0.07 -0.16 C-0.08 15.48, -1.45 77.58, -1.71 93.64" stroke="#000000" stroke-width="1" fill="none"></path></g><g transform="translate(1102.9320046889495 278.15058133066356) rotate(0 -0.39965617330972236 47.69440301755526)"><path d="M-10.46 67.03 C-8.78 72.83, -7.68 78.69, -0.71 94.51 M-11.7 65.14 C-9.64 72.45, -6.66 80.27, -2.31 94.56" stroke="#000000" stroke-width="1" fill="none"></path></g><g transform="translate(1102.9320046889495 278.15058133066356) rotate(0 -0.39965617330972236 47.69440301755526)"><path d="M10.06 67.42 C7.43 73.3, 4.23 79.07, -0.71 94.51 M8.82 65.53 C5.31 72.81, 2.72 80.53, -2.31 94.56" stroke="#000000" stroke-width="1" fill="none"></path></g></g><mask></mask><g stroke-linecap="round"><g transform="translate(334.7891511811826 489.93145872420826) rotate(0 -103.27133725319513 -3.318051677027853)"><path d="M0.5 0.37 C-33.94 -0.64, -171.53 -5.62, -206.02 -7 M-0.7 -0.49 C-35.36 -1.22, -172.57 -4.46, -207.04 -5.59" stroke="#000000" stroke-width="1" fill="none"></path></g><g transform="translate(334.7891511811826 489.93145872420826) rotate(0 -103.27133725319513 -3.318051677027853)"><path d="M-177.97 -15.29 C-188.99 -12.56, -200.5 -6.81, -206.84 -4.58 M-179.06 -15.95 C-186.07 -12.9, -192.39 -10.91, -206.75 -5.69" stroke="#000000" stroke-width="1" fill="none"></path></g><g transform="translate(334.7891511811826 489.93145872420826) rotate(0 -103.27133725319513 -3.318051677027853)"><path d="M-178.53 5.23 C-189.18 0.79, -200.51 -0.62, -206.84 -4.58 M-179.62 4.57 C-186.5 2.84, -192.69 0.06, -206.75 -5.69" stroke="#000000" stroke-width="1" fill="none"></path></g></g><mask></mask><g stroke-linecap="round"><g transform="translate(233.29253037480925 616.6455702874916) rotate(0 -51.10717024461991 -58.341088046877815)"><path d="M1.16 -0.85 C-16.14 -20.71, -85.55 -98.41, -102.91 -118 M0.31 1.32 C-17.15 -17.85, -86.1 -96.76, -103.38 -116.55" stroke="#000000" stroke-width="1" fill="none"></path></g><g transform="translate(233.29253037480925 616.6455702874916) rotate(0 -51.10717024461991 -58.341088046877815)"><path d="M-78.51 -100.54 C-87.41 -105.91, -97.98 -114.19, -101.95 -116.78 M-76.14 -102.94 C-85.66 -107.46, -94.99 -113.11, -103.52 -116.59" stroke="#000000" stroke-width="1" fill="none"></path></g><g transform="translate(233.29253037480925 616.6455702874916) rotate(0 -51.10717024461991 -58.341088046877815)"><path d="M-93.96 -87.03 C-97.17 -97.65, -101.9 -111.02, -101.95 -116.78 M-91.59 -89.43 C-95.47 -98.89, -99.24 -109.4, -103.52 -116.59" stroke="#000000" stroke-width="1" fill="none"></path></g></g><mask></mask><g transform="translate(10 476.3986054493684) rotate(0 53.30397033691406 20)"><text x="53.30397033691406" y="0" font-family="Virgil, Segoe UI Emoji" font-size="16px" fill="#000000" text-anchor="middle" style="white-space: pre;" direction="ltr" dominant-baseline="text-before-edge">Config in the </text><text x="53.30397033691406" y="20" font-family="Virgil, Segoe UI Emoji" font-size="16px" fill="#000000" text-anchor="middle" style="white-space: pre;" direction="ltr" dominant-baseline="text-before-edge">/k8s folder</text></g><g stroke-linecap="round"><g transform="translate(288.9920240709055 789.5881251245025) rotate(0 -0.19911006529467556 40.737654829951566)"><path d="M0.13 1.09 C0.27 14.7, 0.58 67.67, 0.86 80.87 M-1.26 0.61 C-1.29 13.96, -0.61 65.63, -0.14 79.13" stroke="#000000" stroke-width="1" fill="none"></path></g><g transform="translate(288.9920240709055 789.5881251245025) rotate(0 -0.19911006529467556 40.737654829951566)"><path d="M12.43 29.01 C8.87 22.14, 4.64 13.5, -0.25 -0.21 M10.31 29.24 C5.96 19.78, 3.48 11.3, -0.52 1.65" stroke="#000000" stroke-width="1" fill="none"></path></g><g transform="translate(288.9920240709055 789.5881251245025) rotate(0 -0.19911006529467556 40.737654829951566)"><path d="M-8.1 29.17 C-5.43 22.24, -3.44 13.55, -0.25 -0.21 M-10.21 29.4 C-7.69 19.97, -3.31 11.44, -0.52 1.65" stroke="#000000" stroke-width="1" fill="none"></path></g></g><mask></mask><g stroke-linecap="round" transform="translate(206.6984924229228 882.9445209895571) rotate(0 84.5 55)"><path d="M27.5 0 M27.5 0 C55.04 -0.35, 80.61 0.38, 141.5 0 M27.5 0 C69.42 1.57, 109.65 0.28, 141.5 0 M141.5 0 C161.48 1.48, 168.32 8.96, 169 27.5 M141.5 0 C160.79 -0.74, 169.52 7.77, 169 27.5 M169 27.5 C169.59 45.86, 169.44 59.66, 169 82.5 M169 27.5 C168.84 44.44, 168.98 60.84, 169 82.5 M169 82.5 C167.89 101.18, 158.07 108.54, 141.5 110 M169 82.5 C167.78 102.1, 161.17 110.58, 141.5 110 M141.5 110 C99.01 111.01, 59.46 108.9, 27.5 110 M141.5 110 C108.24 111.42, 72.45 111.73, 27.5 110 M27.5 110 C7.9 109.3, 1.41 101.78, 0 82.5 M27.5 110 C7.94 109.23, -1.36 100.1, 0 82.5 M0 82.5 C-0.45 64.28, 1 43.13, 0 27.5 M0 82.5 C-1.14 66.88, -0.96 51.6, 0 27.5 M0 27.5 C0.34 10.42, 11.15 1.67, 27.5 0 M0 27.5 C0.48 9.18, 9.18 0.08, 27.5 0" stroke="#000000" stroke-width="1" fill="none"></path></g><g transform="translate(215.63854064069625 887.9445209895571) rotate(0 75.55995178222656 50)"><text x="75.55995178222656" y="0" font-family="Virgil, Segoe UI Emoji" font-size="16px" fill="#000000" text-anchor="middle" style="white-space: pre;" direction="ltr" dominant-baseline="text-before-edge">config for where to</text><text x="75.55995178222656" y="20" font-family="Virgil, Segoe UI Emoji" font-size="16px" fill="#000000" text-anchor="middle" style="white-space: pre;" direction="ltr" dominant-baseline="text-before-edge">find the *.yaml file</text><text x="75.55995178222656" y="40" font-family="Virgil, Segoe UI Emoji" font-size="16px" fill="#000000" text-anchor="middle" style="white-space: pre;" direction="ltr" dominant-baseline="text-before-edge"></text><text x="75.55995178222656" y="60" font-family="Virgil, Segoe UI Emoji" font-size="16px" fill="#000000" text-anchor="middle" style="white-space: pre;" direction="ltr" dominant-baseline="text-before-edge">configured in the </text><text x="75.55995178222656" y="80" font-family="Virgil, Segoe UI Emoji" font-size="16px" fill="#000000" text-anchor="middle" style="white-space: pre;" direction="ltr" dominant-baseline="text-before-edge">/app/project folder</text></g><g mask="url(#mask-qGjfPpRpT8uNN0pDiQakW)" stroke-linecap="round"><g transform="translate(210.75025607719672 875.5433259694105) rotate(0 -72.7892781022997 -175.0210300844861)"><path d="M0.09 -0.92 C-24.21 -59.15, -121.4 -291.23, -145.67 -349.12" stroke="#000000" stroke-width="1.5" fill="none" stroke-dasharray="8 9"></path></g><g transform="translate(210.75025607719672 875.5433259694105) rotate(0 -72.7892781022997 -175.0210300844861)"><path d="M-126.85 -328.77 C-132.43 -335.39, -137.34 -338.98, -145.43 -348.37" stroke="#000000" stroke-width="1.5" fill="none"></path></g><g transform="translate(210.75025607719672 875.5433259694105) rotate(0 -72.7892781022997 -175.0210300844861)"><path d="M-145.77 -320.84 C-145.48 -329.94, -144.5 -336, -145.43 -348.37" stroke="#000000" stroke-width="1.5" fill="none"></path></g></g><mask id="mask-qGjfPpRpT8uNN0pDiQakW"><rect x="0" y="0" fill="#fff" width="455.4042039617983" height="1324.2171715251834"></rect><rect x="71.90332363880216" y="671.2064031915239" fill="#000" width="133.0399169921875" height="60" opacity="1"></rect></mask><g transform="translate(71.90332363880216 671.206403191524) rotate(0 66.05765433609486 29.3158926934004)"><text x="66.51995849609375" y="0" font-family="Virgil, Segoe UI Emoji" font-size="16px" fill="#000000" text-anchor="middle" style="white-space: pre;" direction="ltr" dominant-baseline="text-before-edge">reference </text><text x="66.51995849609375" y="20" font-family="Virgil, Segoe UI Emoji" font-size="16px" fill="#000000" text-anchor="middle" style="white-space: pre;" direction="ltr" dominant-baseline="text-before-edge">other *.yaml</text><text x="66.51995849609375" y="40" font-family="Virgil, Segoe UI Emoji" font-size="16px" fill="#000000" text-anchor="middle" style="white-space: pre;" direction="ltr" dominant-baseline="text-before-edge">file in other repo</text></g><g stroke-linecap="round"><g transform="translate(294.322428603162 1004.2645721071525) rotate(0 1.8903015396137874 31.761672994663286)"><path d="M1.16 0.36 C1.68 11.02, 2.59 52.54, 2.63 63.17" stroke="#000000" stroke-width="1.5" fill="none" stroke-dasharray="8 9"></path></g><g transform="translate(294.322428603162 1004.2645721071525) rotate(0 1.8903015396137874 31.761672994663286)"><path d="M-7.45 35.69 C-5.73 40.77, -1.38 48.71, 4.42 62.88" stroke="#000000" stroke-width="1.5" fill="none"></path></g><g transform="translate(294.322428603162 1004.2645721071525) rotate(0 1.8903015396137874 31.761672994663286)"><path d="M13.07 35.39 C9.48 40.74, 8.52 48.77, 4.42 62.88" stroke="#000000" stroke-width="1.5" fill="none"></path></g></g><mask></mask><g transform="translate(198.13047312075065 1079.9924420100383) rotate(0 103.43993377685547 20)"><text x="103.43993377685547" y="0" font-family="Virgil, Segoe UI Emoji" font-size="16px" fill="#000000" text-anchor="middle" style="white-space: pre;" direction="ltr" dominant-baseline="text-before-edge">reference other *.yaml file</text><text x="103.43993377685547" y="20" font-family="Virgil, Segoe UI Emoji" font-size="16px" fill="#000000" text-anchor="middle" style="white-space: pre;" direction="ltr" dominant-baseline="text-before-edge">in the /app/** folders</text></g><g transform="translate(602.4047041811903 10) rotate(0 161.06393432617188 22.5)"><text x="161.06393432617188" y="0" font-family="Virgil, Segoe UI Emoji" font-size="36px" fill="#000000" text-anchor="middle" style="white-space: pre;" direction="ltr" dominant-baseline="text-before-edge">Kubernetes CI/CD</text></g></svg>