<svg version="1.1" xmlns="http://www.w3.org/2000/svg" viewBox="0 0 1823.1017538403698 1030.1791598439354" width="3646.2035076807397" height="2060.358319687871">
  <!-- svg-source:excalidraw -->
  
  <defs>
    <style class="style-fonts">
      @font-face {
        font-family: "Virgil";
        src: url("https://file%2B.vscode-resource.vscode-cdn.net/c%3A/Users/mp281x/.vscode/extensions/pomdtr.excalidraw-editor-3.5.1/public//dist/excalidraw-assets/Virgil.woff2");
      }
      @font-face {
        font-family: "Cascadia";
        src: url("https://file%2B.vscode-resource.vscode-cdn.net/c%3A/Users/mp281x/.vscode/extensions/pomdtr.excalidraw-editor-3.5.1/public//dist/excalidraw-assets/Cascadia.woff2");
      }
    </style>
  </defs>
  <g stroke-linecap="round" transform="translate(470.27469368586344 92.04763139997158) rotate(0 671.4135300772532 464.0657642219819)"><path d="M32 0 M32 0 C435.31 -4.2, 840.35 -3.88, 1310.83 0 M32 0 C318.16 -2.06, 604.5 -1.55, 1310.83 0 M1310.83 0 C1333.43 -0.07, 1342.06 9.43, 1342.83 32 M1310.83 0 C1330.48 0.93, 1344.25 11.83, 1342.83 32 M1342.83 32 C1343.55 291.11, 1342.52 549.82, 1342.83 896.13 M1342.83 32 C1345.2 280.85, 1344.93 530.14, 1342.83 896.13 M1342.83 896.13 C1341.6 917.9, 1331.41 929.06, 1310.83 928.13 M1342.83 896.13 C1344.26 915.79, 1332.36 928.47, 1310.83 928.13 M1310.83 928.13 C1042.98 929.62, 775.27 930.13, 32 928.13 M1310.83 928.13 C929.13 932.05, 546.89 932.02, 32 928.13 M32 928.13 C11.34 926.17, 1.56 915.71, 0 896.13 M32 928.13 C8.45 929.68, 0.45 916.36, 0 896.13 M0 896.13 C-0.07 570.39, -0.77 243.46, 0 32 M0 896.13 C-0.31 699.65, -0.42 503.94, 0 32 M0 32 C-1.79 9.24, 9.2 1.34, 32 0 M0 32 C1.94 10.09, 12.95 -2.22, 32 0" stroke="#000000" stroke-width="1" fill="none"></path></g><g stroke-linecap="round" transform="translate(756.3097587464338 129.2858151744656) rotate(0 197.4999956403459 310.10275303483706)"><path d="M32 0 M32 0 C145.38 -0.67, 258.05 -1.48, 363 0 M32 0 C113.65 0.9, 194.28 1.18, 363 0 M363 0 C382.39 -1.29, 393.05 11.3, 395 32 M363 0 C382.81 0.43, 395.14 8.9, 395 32 M395 32 C393.69 199.87, 393.13 368.21, 395 588.21 M395 32 C394.16 148.82, 394.01 264.7, 395 588.21 M395 588.21 C393.16 611.05, 383.63 618.95, 363 620.21 M395 588.21 C393.92 609.11, 383.14 621.29, 363 620.21 M363 620.21 C266.99 618.46, 169.37 620.14, 32 620.21 M363 620.21 C271.34 622.02, 178.85 621.96, 32 620.21 M32 620.21 C11.32 619.38, -1.32 607.54, 0 588.21 M32 620.21 C9.45 620.07, 1.02 608.64, 0 588.21 M0 588.21 C-1.44 388.41, -1.9 188.8, 0 32 M0 588.21 C0.51 391.19, 0.5 194.59, 0 32 M0 32 C-1.76 9.26, 11.62 -1.7, 32 0 M0 32 C2.28 12.03, 9.91 0.73, 32 0" stroke="#000000" stroke-width="1" fill="none"></path></g><g transform="translate(838.384813335354 154.203517124467) rotate(0 111.41989135742188 25)"><text x="111.41989135742188" y="0" font-family="Virgil, Segoe UI Emoji" font-size="20px" fill="#000000" text-anchor="middle" style="white-space: pre;" direction="ltr" dominant-baseline="text-before-edge">Kubernetes Ingress</text><text x="111.41989135742188" y="25" font-family="Virgil, Segoe UI Emoji" font-size="20px" fill="#000000" text-anchor="middle" style="white-space: pre;" direction="ltr" dominant-baseline="text-before-edge">(traefik IngressRoute)</text></g><g stroke-linecap="round" transform="translate(849.9506462682 412.00180941353983) rotate(0 104.5 62)"><path d="M31 0 M31 0 C89.21 0.15, 142.45 -2.8, 178 0 M31 0 C74.89 0.59, 121.3 -0.03, 178 0 M178 0 C197.37 0.02, 210.64 11.62, 209 31 M178 0 C199.95 1.09, 207.52 9.13, 209 31 M209 31 C208.82 50.49, 210.05 74.58, 209 93 M209 31 C207.98 44.5, 209.49 58.71, 209 93 M209 93 C210.66 115.02, 196.9 125.36, 178 124 M209 93 C207.05 113.15, 200.85 125.16, 178 124 M178 124 C136.01 123.64, 93.14 124.03, 31 124 M178 124 C146.18 123.19, 114.58 123.47, 31 124 M31 124 C9.45 124.01, 1.56 112.5, 0 93 M31 124 C10.85 122.69, -1.29 113.27, 0 93 M0 93 C1.1 73.54, 0.6 52.78, 0 31 M0 93 C-0.73 76.29, 0.75 58.08, 0 31 M0 31 C1.79 10.62, 8.85 0.93, 31 0 M0 31 C1.7 10.47, 12.03 1.48, 31 0" stroke="#000000" stroke-width="1" fill="none"></path></g><g transform="translate(910.9806831944695 436.50180941353983) rotate(0 43.46996307373047 37.5)"><text x="43.46996307373047" y="0" font-family="Virgil, Segoe UI Emoji" font-size="20px" fill="#000000" text-anchor="middle" style="white-space: pre;" direction="ltr" dominant-baseline="text-before-edge">Ingress 1</text><text x="43.46996307373047" y="25" font-family="Virgil, Segoe UI Emoji" font-size="20px" fill="#000000" text-anchor="middle" style="white-space: pre;" direction="ltr" dominant-baseline="text-before-edge">traefik</text><text x="43.46996307373047" y="50" font-family="Virgil, Segoe UI Emoji" font-size="20px" fill="#000000" text-anchor="middle" style="white-space: pre;" direction="ltr" dominant-baseline="text-before-edge">(public)</text></g><g stroke-linecap="round" transform="translate(849.5954294356079 597.0746226066765) rotate(0 104.5 62)"><path d="M31 0 M31 0 C60.19 -0.54, 90.91 0.11, 178 0 M31 0 C69.57 -1.06, 109.64 -1.93, 178 0 M178 0 C197.58 -1.98, 207.31 9.47, 209 31 M178 0 C200.14 0.72, 208.3 10.15, 209 31 M209 31 C209.89 56.43, 208.22 80.01, 209 93 M209 31 C209.74 46.57, 208.54 63.23, 209 93 M209 93 C210.86 115.15, 198.56 123.86, 178 124 M209 93 C207.08 115, 199.25 122.17, 178 124 M178 124 C135.63 124.2, 94.42 121.45, 31 124 M178 124 C136.54 123.52, 95.57 123.81, 31 124 M31 124 C9.82 122.77, 0.08 112.51, 0 93 M31 124 C8.05 124.12, 1.99 113.58, 0 93 M0 93 C-0.09 69.34, -1.1 46.27, 0 31 M0 93 C0.47 69.23, -0.06 48.27, 0 31 M0 31 C-1.47 9.33, 8.5 0.61, 31 0 M0 31 C-0.83 10.68, 11.25 0.43, 31 0" stroke="#000000" stroke-width="1" fill="none"></path></g><g transform="translate(875.4955072554321 621.5746226066765) rotate(0 78.59992218017578 37.5)"><text x="78.59992218017578" y="0" font-family="Virgil, Segoe UI Emoji" font-size="20px" fill="#000000" text-anchor="middle" style="white-space: pre;" direction="ltr" dominant-baseline="text-before-edge">Ingress 2</text><text x="78.59992218017578" y="25" font-family="Virgil, Segoe UI Emoji" font-size="20px" fill="#000000" text-anchor="middle" style="white-space: pre;" direction="ltr" dominant-baseline="text-before-edge">traefik-external</text><text x="78.59992218017578" y="50" font-family="Virgil, Segoe UI Emoji" font-size="20px" fill="#000000" text-anchor="middle" style="white-space: pre;" direction="ltr" dominant-baseline="text-before-edge">(private)</text></g><g stroke-linecap="round" transform="translate(494.9335304236996 418.14317720436725) rotate(0 102 55)"><path d="M27.5 0 M27.5 0 C62.76 2.52, 94.97 2.76, 176.5 0 M27.5 0 C71.79 -0.17, 113.65 0.14, 176.5 0 M176.5 0 C193.29 0.51, 203.75 9.45, 204 27.5 M176.5 0 C193.07 -2, 202.7 9.68, 204 27.5 M204 27.5 C204.27 48.33, 205.09 66.05, 204 82.5 M204 27.5 C204.2 43.49, 204.24 60.39, 204 82.5 M204 82.5 C203.86 100.83, 196.13 108.48, 176.5 110 M204 82.5 C202.93 100.96, 194.02 108.2, 176.5 110 M176.5 110 C128.61 112.69, 83.94 110.39, 27.5 110 M176.5 110 C128.58 109.3, 80.48 110.12, 27.5 110 M27.5 110 C9.67 109.62, 1.56 101.39, 0 82.5 M27.5 110 C10.66 109.91, 1.27 100.21, 0 82.5 M0 82.5 C-0.85 67.86, 1.27 57.58, 0 27.5 M0 82.5 C-0.32 70.19, -0.12 56.78, 0 27.5 M0 27.5 C-0.49 10.27, 10.45 0.51, 27.5 0 M0 27.5 C-1.5 7.85, 11.15 -1.5, 27.5 0" stroke="#000000" stroke-width="1" fill="none"></path></g><g transform="translate(502.1736198402035 448.14317720436725) rotate(0 94.7599105834961 25)"><text x="94.7599105834961" y="0" font-family="Virgil, Segoe UI Emoji" font-size="20px" fill="#000000" text-anchor="middle" style="white-space: pre;" direction="ltr" dominant-baseline="text-before-edge">Klipper LB</text><text x="94.7599105834961" y="25" font-family="Virgil, Segoe UI Emoji" font-size="20px" fill="#000000" text-anchor="middle" style="white-space: pre;" direction="ltr" dominant-baseline="text-before-edge">Host port-&gt;80-443</text></g><g stroke-linecap="round"><g transform="translate(715.4626916650191 470.00271226574023) rotate(0 59.03211607341376 0.29914197005484766)"><path d="M-0.94 0.31 C18.7 0.16, 99.03 -0.21, 119.01 -0.29 M0.76 -0.58 C20.14 -0.58, 98.44 0.9, 117.98 1.18" stroke="#000000" stroke-width="1" fill="none"></path></g><g transform="translate(715.4626916650191 470.00271226574023) rotate(0 59.03211607341376 0.29914197005484766)"><path d="M27.71 -10.35 C15.93 -6.65, 4.97 -1.62, 0.54 -1.35 M27.5 -10.81 C20.4 -7.37, 15.45 -5.19, -0.12 -0.67" stroke="#000000" stroke-width="1" fill="none"></path></g><g transform="translate(715.4626916650191 470.00271226574023) rotate(0 59.03211607341376 0.29914197005484766)"><path d="M27.81 10.17 C15.9 5.78, 4.9 2.72, 0.54 -1.35 M27.61 9.71 C20.63 8.89, 15.65 6.8, -0.12 -0.67" stroke="#000000" stroke-width="1" fill="none"></path></g><g transform="translate(715.4626916650191 470.00271226574023) rotate(0 59.03211607341376 0.29914197005484766)"><path d="M90.13 10.72 C100.53 6.9, 111.84 3.96, 119.46 -0.48 M89.93 10.25 C94.72 9.98, 101.52 7.96, 118.8 0.2" stroke="#000000" stroke-width="1" fill="none"></path></g><g transform="translate(715.4626916650191 470.00271226574023) rotate(0 59.03211607341376 0.29914197005484766)"><path d="M90.47 -9.8 C100.84 -5.53, 112.01 -0.38, 119.46 -0.48 M90.27 -10.26 C94.85 -6.27, 101.57 -4.03, 118.8 0.2" stroke="#000000" stroke-width="1" fill="none"></path></g></g><mask></mask><g transform="translate(947.8129304301244 10) rotate(0 195.44393920898438 22.5)"><text x="195.44393920898438" y="0" font-family="Virgil, Segoe UI Emoji" font-size="36px" fill="#000000" text-anchor="middle" style="white-space: pre;" direction="ltr" dominant-baseline="text-before-edge">Kubernetes Networking</text></g><g stroke-linecap="round" transform="translate(499.18907335069366 880.9258578904221) rotate(0 98 51)"><path d="M25.5 0 M25.5 0 C78.25 0.94, 131.4 -2.29, 170.5 0 M25.5 0 C70.32 0.91, 116.99 -0.1, 170.5 0 M170.5 0 C189.21 -1.41, 194.83 10.38, 196 25.5 M170.5 0 C188.26 1.54, 197.85 10.26, 196 25.5 M196 25.5 C196.65 38.56, 195.54 50.28, 196 76.5 M196 25.5 C196.29 37.1, 195.07 48.78, 196 76.5 M196 76.5 C196.76 94.01, 185.51 103.28, 170.5 102 M196 76.5 C196.31 95.8, 186.71 101.2, 170.5 102 M170.5 102 C116.38 101.3, 59.3 101.89, 25.5 102 M170.5 102 C139.79 104.22, 109.57 104.24, 25.5 102 M25.5 102 C9.4 102.64, 1.55 95.07, 0 76.5 M25.5 102 C10.17 99.8, -0.98 92.95, 0 76.5 M0 76.5 C-0.85 62.72, -2.11 44.51, 0 25.5 M0 76.5 C0.45 57.17, -0.94 37.11, 0 25.5 M0 25.5 C0.51 8.18, 9.47 0.23, 25.5 0 M0 25.5 C0.01 7.07, 8.84 2.17, 25.5 0" stroke="#000000" stroke-width="1" fill="none"></path></g><g transform="translate(509.8091447618265 906.9258578904221) rotate(0 87.37992858886719 25)"><text x="87.37992858886719" y="0" font-family="Virgil, Segoe UI Emoji" font-size="20px" fill="#000000" text-anchor="middle" style="white-space: pre;" direction="ltr" dominant-baseline="text-before-edge">Tailscale Subnet </text><text x="87.37992858886719" y="25" font-family="Virgil, Segoe UI Emoji" font-size="20px" fill="#000000" text-anchor="middle" style="white-space: pre;" direction="ltr" dominant-baseline="text-before-edge">Router</text></g><g mask="url(#mask-rNNoRkUBlqOY9I-B4jNuL)" stroke-linecap="round"><g transform="translate(694.9548226254301 870.376763399252) rotate(0 67.9346043789821 -75.91712666600506)"><path d="M-0.36 0.81 C22.21 -24.6, 113.63 -127.02, 136.23 -152.64 M1.66 0.19 C24.04 -25.04, 113.46 -125.97, 135.55 -151.34" stroke="#000000" stroke-width="1" fill="none"></path></g><g transform="translate(694.9548226254301 870.376763399252) rotate(0 67.9346043789821 -75.91712666600506)"><path d="M12.08 -26.21 C5.86 -17.65, 1.3 -5.82, 0.38 1.94 M11.29 -27.35 C8.87 -19.47, 4.75 -13.89, -0.08 0.03" stroke="#000000" stroke-width="1" fill="none"></path></g><g transform="translate(694.9548226254301 870.376763399252) rotate(0 67.9346043789821 -75.91712666600506)"><path d="M27.4 -12.56 C15.57 -9.07, 5.36 -2.26, 0.38 1.94 M26.61 -13.7 C20.23 -9.39, 12.24 -7.25, -0.08 0.03" stroke="#000000" stroke-width="1" fill="none"></path></g><g transform="translate(694.9548226254301 870.376763399252) rotate(0 67.9346043789821 -75.91712666600506)"><path d="M125.98 -122.54 C127.96 -134.46, 131.5 -143.19, 136.29 -150.2 M125.19 -123.68 C127.89 -129.68, 129.31 -138.16, 135.83 -152.12" stroke="#000000" stroke-width="1" fill="none"></path></g><g transform="translate(694.9548226254301 870.376763399252) rotate(0 67.9346043789821 -75.91712666600506)"><path d="M110.57 -136.09 C118.2 -142.98, 127.42 -146.71, 136.29 -150.2 M109.78 -137.23 C116.47 -139.68, 121.78 -144.75, 135.83 -152.12" stroke="#000000" stroke-width="1" fill="none"></path></g></g><mask id="mask-rNNoRkUBlqOY9I-B4jNuL"><rect x="0" y="0" fill="#fff" width="930.6682035645833" height="1122.5756585541367"></rect><rect x="722.8715488005732" y="769.2773158218097" fill="#000" width="79.87992858886719" height="50" opacity="1"></rect></mask><g transform="translate(722.8715488005731 769.2773158218097) rotate(0 40.017878203839075 25.182320911437273)"><text x="39.939964294433594" y="0" font-family="Virgil, Segoe UI Emoji" font-size="20px" fill="#000000" text-anchor="middle" style="white-space: pre;" direction="ltr" dominant-baseline="text-before-edge">HTTP</text><text x="39.939964294433594" y="25" font-family="Virgil, Segoe UI Emoji" font-size="20px" fill="#000000" text-anchor="middle" style="white-space: pre;" direction="ltr" dominant-baseline="text-before-edge">Request</text></g><g stroke-linecap="round"><g transform="translate(450.81098968360584 916.1556588802823) rotate(0 -68.58707734091149 0.21239582344639985)"><path d="M-0.94 -0.43 C-23.87 -0.36, -114.54 0.23, -137.4 0.5 M0.77 -1.69 C-22.26 -1.42, -114.68 1.96, -137.94 2.12" stroke="#000000" stroke-width="1" fill="none"></path></g><g transform="translate(450.81098968360584 916.1556588802823) rotate(0 -68.58707734091149 0.21239582344639985)"><path d="M-29.78 11.31 C-20.02 7.1, -10.07 5.29, -2.93 -0.39 M-29.89 10.95 C-20.27 7.28, -12.85 3.29, -1.27 -0.58" stroke="#000000" stroke-width="1" fill="none"></path></g><g transform="translate(450.81098968360584 916.1556588802823) rotate(0 -68.58707734091149 0.21239582344639985)"><path d="M-29.9 -9.21 C-20.09 -6.99, -10.1 -2.38, -2.93 -0.39 M-30.01 -9.57 C-20.15 -7.14, -12.7 -5.02, -1.27 -0.58" stroke="#000000" stroke-width="1" fill="none"></path></g><g transform="translate(450.81098968360584 916.1556588802823) rotate(0 -68.58707734091149 0.21239582344639985)"><path d="M-110.71 -7.5 C-118.48 -5.46, -126.09 -0.59, -139.93 2.16 M-110.82 -7.86 C-117.67 -4.82, -126.94 -2.45, -138.27 1.97" stroke="#000000" stroke-width="1" fill="none"></path></g><g transform="translate(450.81098968360584 916.1556588802823) rotate(0 -68.58707734091149 0.21239582344639985)"><path d="M-110.23 13.01 C-118.17 8.63, -125.92 7.08, -139.93 2.16 M-110.34 12.66 C-117.53 9.6, -126.94 5.86, -138.27 1.97" stroke="#000000" stroke-width="1" fill="none"></path></g></g><mask></mask><g stroke-linecap="round"><g transform="translate(452.7549887095098 473.83487472741444) rotate(0 -66.15479896173095 1.018660477414528)"><path d="M-0.03 0.24 C-22.06 0.8, -110.25 2.37, -132.28 2.71 M-1.51 -0.67 C-23.16 -0.43, -108.73 0.12, -130.11 0.84" stroke="#000000" stroke-width="1" fill="none"></path></g><g transform="translate(452.7549887095098 473.83487472741444) rotate(0 -66.15479896173095 1.018660477414528)"><path d="M-27.61 9.32 C-19.07 6.36, -11.64 3.46, -1.53 1.64 M-28.59 10.42 C-19.76 8.52, -9.61 3.81, 0.24 0.44" stroke="#000000" stroke-width="1" fill="none"></path></g><g transform="translate(452.7549887095098 473.83487472741444) rotate(0 -66.15479896173095 1.018660477414528)"><path d="M-28.01 -11.2 C-19.45 -8.22, -11.91 -5.17, -1.53 1.64 M-28.98 -10.1 C-20.13 -5.28, -9.86 -3.27, 0.24 0.44" stroke="#000000" stroke-width="1" fill="none"></path></g><g transform="translate(452.7549887095098 473.83487472741444) rotate(0 -66.15479896173095 1.018660477414528)"><path d="M-101.7 -11.65 C-109.49 -8.38, -118.27 -5.04, -131.61 2.23 M-102.68 -10.55 C-112.29 -5.47, -120.48 -3.12, -129.84 1.04" stroke="#000000" stroke-width="1" fill="none"></path></g><g transform="translate(452.7549887095098 473.83487472741444) rotate(0 -66.15479896173095 1.018660477414528)"><path d="M-101.33 8.86 C-109.12 6.19, -118.01 3.6, -131.61 2.23 M-102.31 9.96 C-111.93 8.33, -120.24 3.96, -129.84 1.04" stroke="#000000" stroke-width="1" fill="none"></path></g></g><mask></mask><g transform="translate(100.91769348400902 465.9129249524219) rotate(0 105.77991485595703 12.5)"><text x="105.77991485595703" y="0" font-family="Virgil, Segoe UI Emoji" font-size="20px" fill="#000000" text-anchor="middle" style="white-space: pre;" direction="ltr" dominant-baseline="text-before-edge">HTTP Request (TLS)</text></g><g transform="translate(10 895.6393224154313) rotate(0 146.86990356445312 25)"><text x="146.86990356445312" y="0" font-family="Virgil, Segoe UI Emoji" font-size="20px" fill="#000000" text-anchor="middle" style="white-space: pre;" direction="ltr" dominant-baseline="text-before-edge">HTTP Request (TLS) / TCP </text><text x="146.86990356445312" y="25" font-family="Virgil, Segoe UI Emoji" font-size="20px" fill="#000000" text-anchor="middle" style="white-space: pre;" direction="ltr" dominant-baseline="text-before-edge">Wireguard (tailscale)</text></g><g mask="url(#mask-wIkaQlYJaB0R0rvKSoa0e)" stroke-linecap="round"><g transform="translate(710.619852701823 926.1454528088807) rotate(0 245.4200859290611 -1.3041040854516268)"><path d="M-0.1 0.78 C81.92 0.64, 410.43 -1.24, 492.45 -1.65 M-1.61 0.14 C80.3 -0.26, 409.81 -2.75, 492.02 -3.39" stroke="#000000" stroke-width="1" fill="none"></path></g><g transform="translate(710.619852701823 926.1454528088807) rotate(0 245.4200859290611 -1.3041040854516268)"><path d="M29.33 -8 C19.94 -5.26, 10.58 -2.49, 0.89 -0.03 M28.47 -10.56 C21.28 -7.7, 16.56 -5.23, -0.9 0.11" stroke="#000000" stroke-width="1" fill="none"></path></g><g transform="translate(710.619852701823 926.1454528088807) rotate(0 245.4200859290611 -1.3041040854516268)"><path d="M29.43 12.52 C20.15 8.5, 10.76 4.51, 0.89 -0.03 M28.57 9.96 C21.37 8.37, 16.63 6.39, -0.9 0.11" stroke="#000000" stroke-width="1" fill="none"></path></g><g transform="translate(710.619852701823 926.1454528088807) rotate(0 245.4200859290611 -1.3041040854516268)"><path d="M465.2 8.7 C474.48 4.62, 483.65 0.52, 493.01 -4.19 M464.34 6.14 C469.36 4.28, 476.83 2.22, 491.22 -4.06" stroke="#000000" stroke-width="1" fill="none"></path></g><g transform="translate(710.619852701823 926.1454528088807) rotate(0 245.4200859290611 -1.3041040854516268)"><path d="M465.04 -11.82 C474.23 -9.14, 483.45 -6.49, 493.01 -4.19 M464.18 -14.38 C469.22 -11.8, 476.73 -9.4, 491.22 -4.06" stroke="#000000" stroke-width="1" fill="none"></path></g></g><mask id="mask-wIkaQlYJaB0R0rvKSoa0e"><rect x="0" y="0" fill="#fff" width="1302.104982326301" height="1028.5429617385946"></rect><rect x="893.7224486419916" y="899.9466983440238" fill="#000" width="125.27993774414062" height="50" opacity="1"></rect></mask><g transform="translate(893.7224486419917 899.9466983440238) rotate(0 62.31748998889236 24.89465037940522)"><text x="62.63996887207031" y="0" font-family="Virgil, Segoe UI Emoji" font-size="20px" fill="#000000" text-anchor="middle" style="white-space: pre;" direction="ltr" dominant-baseline="text-before-edge">TCP / UDP </text><text x="62.63996887207031" y="25" font-family="Virgil, Segoe UI Emoji" font-size="20px" fill="#000000" text-anchor="middle" style="white-space: pre;" direction="ltr" dominant-baseline="text-before-edge">Request</text></g><g stroke-linecap="round" transform="translate(1231.111970559563 414.8701666434288) rotate(0 91 55)"><path d="M27.5 0 M27.5 0 C55.89 -2.32, 86.04 0.15, 154.5 0 M27.5 0 C61.08 1.78, 93.94 1.77, 154.5 0 M154.5 0 C173.96 -1, 181.26 8.38, 182 27.5 M154.5 0 C170.66 -0.41, 182.43 7.88, 182 27.5 M182 27.5 C181.57 39.05, 180.28 48.1, 182 82.5 M182 27.5 C182.63 42.7, 181.53 55.82, 182 82.5 M182 82.5 C183.39 100.59, 171.54 111.5, 154.5 110 M182 82.5 C181.3 101.76, 170.66 109.86, 154.5 110 M154.5 110 C110.05 109.71, 68.01 111.3, 27.5 110 M154.5 110 C128.59 109.15, 102.49 108.99, 27.5 110 M27.5 110 C9.44 108.15, 0.24 100.86, 0 82.5 M27.5 110 C10 109.45, 1.09 100.65, 0 82.5 M0 82.5 C-0.26 64.72, -0.21 42.06, 0 27.5 M0 82.5 C0.11 61.47, -0.28 39.15, 0 27.5 M0 27.5 C-0.43 7.83, 8.49 0.69, 27.5 0 M0 27.5 C-2.19 7.12, 9.52 0.96, 27.5 0" stroke="#000000" stroke-width="1" fill="none"></path></g><g transform="translate(1280.6420074858324 457.3701666434288) rotate(0 41.46996307373047 12.5)"><text x="41.46996307373047" y="0" font-family="Virgil, Segoe UI Emoji" font-size="20px" fill="#000000" text-anchor="middle" style="white-space: pre;" direction="ltr" dominant-baseline="text-before-edge">Service 1</text></g><g stroke-linecap="round" transform="translate(1227.713665743242 600.6238015417302) rotate(0 91 55)"><path d="M27.5 0 M27.5 0 C70 2.79, 110.88 0.12, 154.5 0 M27.5 0 C57.88 -1.61, 87.76 -1.32, 154.5 0 M154.5 0 C173.72 -1.85, 182.99 7.41, 182 27.5 M154.5 0 C174.34 -2.08, 184.21 7.35, 182 27.5 M182 27.5 C180.92 47.3, 181.77 63.75, 182 82.5 M182 27.5 C182.18 39.91, 182.51 51.19, 182 82.5 M182 82.5 C183.83 102.55, 174.25 108.99, 154.5 110 M182 82.5 C183.35 102.27, 172.82 109.6, 154.5 110 M154.5 110 C113.14 107.97, 71.87 108.58, 27.5 110 M154.5 110 C128.13 108.16, 100.83 108.11, 27.5 110 M27.5 110 C11.04 108.51, 0.68 101.83, 0 82.5 M27.5 110 C11.14 108.48, -0.79 99.49, 0 82.5 M0 82.5 C-0.88 63.74, -1.8 40.5, 0 27.5 M0 82.5 C0.86 70.08, -0.28 57.72, 0 27.5 M0 27.5 C1.06 8.48, 9.53 -1.41, 27.5 0 M0 27.5 C1.08 8.55, 10.51 -1.46, 27.5 0" stroke="#000000" stroke-width="1" fill="none"></path></g><g transform="translate(1272.8337066367967 643.1238015417302) rotate(0 45.87995910644531 12.5)"><text x="45.87995910644531" y="0" font-family="Virgil, Segoe UI Emoji" font-size="20px" fill="#000000" text-anchor="middle" style="white-space: pre;" direction="ltr" dominant-baseline="text-before-edge">Service 2</text></g><g stroke-linecap="round" transform="translate(1225.2796533177445 871.7121157771321) rotate(0 91 55)"><path d="M27.5 0 M27.5 0 C73.97 2.07, 120.46 -0.63, 154.5 0 M27.5 0 C56.31 1.1, 83.54 1.03, 154.5 0 M154.5 0 C173.89 -0.69, 182.36 7.76, 182 27.5 M154.5 0 C173.91 -0.61, 183.34 7.7, 182 27.5 M182 27.5 C181.57 40.23, 181.71 56.51, 182 82.5 M182 27.5 C182.3 44.45, 183.02 60.81, 182 82.5 M182 82.5 C180.46 102.44, 173.53 109.13, 154.5 110 M182 82.5 C180.96 100.83, 173.68 109.85, 154.5 110 M154.5 110 C128.06 108.58, 102.89 111.25, 27.5 110 M154.5 110 C119.05 109.07, 81.04 110.34, 27.5 110 M27.5 110 C9.2 109.63, 0.42 101.98, 0 82.5 M27.5 110 C7.55 107.94, -1.21 99.37, 0 82.5 M0 82.5 C-1.62 63.3, 0.18 43.33, 0 27.5 M0 82.5 C0.43 68.81, -0.34 55.03, 0 27.5 M0 27.5 C-1.52 7.77, 9.82 0.5, 27.5 0 M0 27.5 C-0.19 8.87, 7.29 2.11, 27.5 0" stroke="#000000" stroke-width="1" fill="none"></path></g><g transform="translate(1266.0197045872758 901.7121157771321) rotate(0 50.25994873046875 25)"><text x="50.25994873046875" y="0" font-family="Virgil, Segoe UI Emoji" font-size="20px" fill="#000000" text-anchor="middle" style="white-space: pre;" direction="ltr" dominant-baseline="text-before-edge">Service 3</text><text x="50.25994873046875" y="25" font-family="Virgil, Segoe UI Emoji" font-size="20px" fill="#000000" text-anchor="middle" style="white-space: pre;" direction="ltr" dominant-baseline="text-before-edge">(static ip)</text></g><g stroke-linecap="round"><g transform="translate(1074.0919828869048 654.0351555771799) rotate(0 71.8436406186288 -2.102159937585725)"><path d="M-0.33 -0.42 C23.55 -0.9, 120.19 -3.34, 144.01 -3.78 M1.7 -1.69 C25.4 -1.9, 119.44 -1.74, 143.34 -2.32" stroke="#000000" stroke-width="1" fill="none"></path></g><g transform="translate(1074.0919828869048 654.0351555771799) rotate(0 71.8436406186288 -2.102159937585725)"><path d="M26.91 -10.49 C17.16 -8.89, 8.19 -5.11, -0.48 -0.02 M28.1 -11.17 C17.77 -6.52, 6.62 -2.19, -0.6 0.41" stroke="#000000" stroke-width="1" fill="none"></path></g><g transform="translate(1074.0919828869048 654.0351555771799) rotate(0 71.8436406186288 -2.102159937585725)"><path d="M27.4 10.02 C17.62 4.17, 8.48 0.49, -0.48 -0.02 M28.58 9.35 C17.99 6.01, 6.66 2.36, -0.6 0.41" stroke="#000000" stroke-width="1" fill="none"></path></g><g transform="translate(1074.0919828869048 654.0351555771799) rotate(0 71.8436406186288 -2.102159937585725)"><path d="M114.54 9.07 C125.31 3.02, 136.7 -0.99, 143.18 -1.92 M115.73 8.39 C127.14 4.43, 137.8 0.42, 143.07 -1.49" stroke="#000000" stroke-width="1" fill="none"></path></g><g transform="translate(1074.0919828869048 654.0351555771799) rotate(0 71.8436406186288 -2.102159937585725)"><path d="M114.35 -11.46 C125.03 -10.04, 136.49 -6.6, 143.18 -1.92 M115.53 -12.13 C127.09 -8.1, 137.83 -4.13, 143.07 -1.49" stroke="#000000" stroke-width="1" fill="none"></path></g></g><mask></mask><g stroke-linecap="round"><g transform="translate(1077.3043425766402 471.4477420410076) rotate(0 70.22277784705818 1.5224335476871147)"><path d="M1.03 -0.73 C24.13 -0.23, 114.93 3.14, 138.1 3.78 M0.11 1.5 C23.63 1.56, 117.05 1.36, 140.34 1.82" stroke="#000000" stroke-width="1" fill="none"></path></g><g transform="translate(1077.3043425766402 471.4477420410076) rotate(0 70.22277784705818 1.5224335476871147)"><path d="M28.32 -11.57 C22.79 -5.67, 14.33 -5.72, 0.48 -0.57 M29.43 -9.4 C21.36 -6.26, 11.25 -4.69, 0.63 -0.7" stroke="#000000" stroke-width="1" fill="none"></path></g><g transform="translate(1077.3043425766402 471.4477420410076) rotate(0 70.22277784705818 1.5224335476871147)"><path d="M27.64 8.94 C22.16 9.55, 13.87 4.22, 0.48 -0.57 M28.75 11.11 C20.87 7.94, 10.97 3.19, 0.63 -0.7" stroke="#000000" stroke-width="1" fill="none"></path></g><g transform="translate(1077.3043425766402 471.4477420410076) rotate(0 70.22277784705818 1.5224335476871147)"><path d="M110.85 10.37 C119.82 10.79, 125.98 5.75, 139.79 1.99 M111.96 12.54 C121.35 9.46, 128.72 5.05, 139.94 1.85" stroke="#000000" stroke-width="1" fill="none"></path></g><g transform="translate(1077.3043425766402 471.4477420410076) rotate(0 70.22277784705818 1.5224335476871147)"><path d="M111 -10.15 C120.06 -4.45, 126.18 -4.21, 139.79 1.99 M112.11 -7.99 C121.48 -4.75, 128.8 -2.83, 139.94 1.85" stroke="#000000" stroke-width="1" fill="none"></path></g></g><mask></mask><g stroke-linecap="round" transform="translate(1567.1267675121344 873.5332130148556) rotate(0 76.5 54.5)"><path d="M27.25 0 M27.25 0 C61.17 -0.38, 95.64 2.1, 125.75 0 M27.25 0 C65.41 0.62, 102.23 0.55, 125.75 0 M125.75 0 C144.39 -0.59, 152.85 7.3, 153 27.25 M125.75 0 C143.26 -0.49, 154.13 9.6, 153 27.25 M153 27.25 C152.9 47.79, 154.17 67.22, 153 81.75 M153 27.25 C152.67 39.33, 153.75 49.85, 153 81.75 M153 81.75 C152.58 98.95, 144.66 109.62, 125.75 109 M153 81.75 C151.67 101.48, 142.24 109.87, 125.75 109 M125.75 109 C96.15 110.55, 67.31 109.6, 27.25 109 M125.75 109 C89.63 107.8, 54.63 107.62, 27.25 109 M27.25 109 C7.37 108.69, -0.03 100.94, 0 81.75 M27.25 109 C11.15 110.66, 0.77 99.52, 0 81.75 M0 81.75 C-1.12 64.36, 0.37 42.66, 0 27.25 M0 81.75 C1.07 64.66, -0.32 47.72, 0 27.25 M0 27.25 C0.77 8.6, 9.45 0.83, 27.25 0 M0 27.25 C1.03 8.39, 10.1 2.01, 27.25 0" stroke="#000000" stroke-width="1" fill="none"></path></g><g transform="translate(1628.5567754467047 915.5332130148556) rotate(0 15.069992065429688 12.5)"><text x="15.069992065429688" y="0" font-family="Virgil, Segoe UI Emoji" font-size="20px" fill="#000000" text-anchor="middle" style="white-space: pre;" direction="ltr" dominant-baseline="text-before-edge">DB</text></g><g stroke-linecap="round" transform="translate(1558.9109679119615 606.5769728208497) rotate(0 81.25 50.83331298828125)"><path d="M25.42 0 M25.42 0 C68.11 0.88, 114.46 -0.55, 137.08 0 M25.42 0 C69.24 -0.44, 112.95 -0.71, 137.08 0 M137.08 0 C152.25 -1.68, 164.32 9.62, 162.5 25.42 M137.08 0 C151.76 -0.02, 162.61 9.54, 162.5 25.42 M162.5 25.42 C163.56 41.88, 164.08 61.09, 162.5 76.25 M162.5 25.42 C163.16 44.11, 162.27 64.31, 162.5 76.25 M162.5 76.25 C161.78 93.07, 154.13 102.51, 137.08 101.67 M162.5 76.25 C164.53 95.25, 154.77 100.65, 137.08 101.67 M137.08 101.67 C99.23 100.15, 55.88 101.15, 25.42 101.67 M137.08 101.67 C101.48 101.98, 66.68 101.9, 25.42 101.67 M25.42 101.67 C7.54 101.77, 0.02 92.82, 0 76.25 M25.42 101.67 C7.6 101.3, 1.88 92.8, 0 76.25 M0 76.25 C-0.38 61.07, 1.6 45.08, 0 25.42 M0 76.25 C0.41 63.49, -0.63 50.38, 0 25.42 M0 25.42 C-1.17 8.42, 8.18 -0.54, 25.42 0 M0 25.42 C0.74 7.98, 8.93 -0.91, 25.42 0" stroke="#000000" stroke-width="1" fill="none"></path></g><g transform="translate(1590.1510115520982 632.410285809131) rotate(0 50.00995635986328 25)"><text x="50.00995635986328" y="0" font-family="Virgil, Segoe UI Emoji" font-size="20px" fill="#000000" text-anchor="middle" style="white-space: pre;" direction="ltr" dominant-baseline="text-before-edge">private</text><text x="50.00995635986328" y="25" font-family="Virgil, Segoe UI Emoji" font-size="20px" fill="#000000" text-anchor="middle" style="white-space: pre;" direction="ltr" dominant-baseline="text-before-edge">dashboard</text></g><g stroke-linecap="round" transform="translate(1550.9599454247066 412.93068296142155) rotate(0 85.8333740234375 50)"><path d="M25 0 M25 0 C67.36 -0.64, 112.55 0.24, 146.67 0 M25 0 C58.41 -0.13, 92.39 -0.05, 146.67 0 M146.67 0 C164.24 0.78, 173.53 9.77, 171.67 25 M146.67 0 C161.9 -1.93, 170.85 9.46, 171.67 25 M171.67 25 C170.41 44.78, 173.81 62.87, 171.67 75 M171.67 25 C170.93 38.1, 172 51.75, 171.67 75 M171.67 75 C171.89 92.24, 163.41 100.04, 146.67 100 M171.67 75 C170.05 93.79, 162.57 101.28, 146.67 100 M146.67 100 C108.03 99.15, 74.13 98.81, 25 100 M146.67 100 C111.12 100.27, 75.59 100.11, 25 100 M25 100 C9.12 100.79, -1.06 93.52, 0 75 M25 100 C8.26 99.7, 0.66 91.36, 0 75 M0 75 C-1.58 58.07, 0.23 43.2, 0 25 M0 75 C-0.68 56.34, 0.6 37.75, 0 25 M0 25 C-0.99 7.17, 6.86 -1.42, 25 0 M0 25 C1.87 9.3, 8.05 2, 25 0" stroke="#000000" stroke-width="1" fill="none"></path></g><g transform="translate(1589.7333676659175 450.43068296142155) rotate(0 47.05995178222656 12.5)"><text x="47.05995178222656" y="0" font-family="Virgil, Segoe UI Emoji" font-size="20px" fill="#000000" text-anchor="middle" style="white-space: pre;" direction="ltr" dominant-baseline="text-before-edge">public app</text></g><g stroke-linecap="round"><g transform="translate(1421.5613654410704 925.4645966591202) rotate(0 65.40577271127972 -1.588657691294543)"><path d="M-0.68 0.48 C21.03 0.06, 109.51 -3.05, 131.49 -3.66 M1.16 -0.31 C22.65 -0.44, 109.21 -1.29, 130.77 -2.12" stroke="#000000" stroke-width="1" fill="none"></path></g><g transform="translate(1421.5613654410704 925.4645966591202) rotate(0 65.40577271127972 -1.588657691294543)"><path d="M27.97 -9.94 C15.96 -6.1, 5.63 -2.56, -1.3 1.79 M27.57 -11.58 C17.57 -7.34, 8.88 -3.31, 0.21 1.08" stroke="#000000" stroke-width="1" fill="none"></path></g><g transform="translate(1421.5613654410704 925.4645966591202) rotate(0 65.40577271127972 -1.588657691294543)"><path d="M28.61 10.57 C16.54 6.22, 5.95 1.57, -1.3 1.79 M28.21 8.93 C18.06 6.21, 9.15 3.28, 0.21 1.08" stroke="#000000" stroke-width="1" fill="none"></path></g><g transform="translate(1421.5613654410704 925.4645966591202) rotate(0 65.40577271127972 -1.588657691294543)"><path d="M103.61 9.47 C114.09 4.85, 126.04 -0.4, 130.15 -0.8 M103.21 7.83 C112.23 4.45, 122.49 1.01, 131.66 -1.51" stroke="#000000" stroke-width="1" fill="none"></path></g><g transform="translate(1421.5613654410704 925.4645966591202) rotate(0 65.40577271127972 -1.588657691294543)"><path d="M103.16 -11.04 C113.63 -7.48, 125.75 -4.54, 130.15 -0.8 M102.76 -12.68 C111.87 -9.1, 122.28 -5.57, 131.66 -1.51" stroke="#000000" stroke-width="1" fill="none"></path></g></g><mask></mask><g stroke-linecap="round"><g transform="translate(1423.0231895527656 649.4543813705457) rotate(0 60.70358249838023 0.43982670142827374)"><path d="M1.16 0.77 C21.12 0.85, 98.98 -0.32, 118.96 -0.22 M0.32 0.13 C20.7 0.45, 101.01 1.18, 121.09 1.1" stroke="#000000" stroke-width="1" fill="none"></path></g><g transform="translate(1423.0231895527656 649.4543813705457) rotate(0 60.70358249838023 0.43982670142827374)"><path d="M30.54 -11.58 C21.97 -5.37, 18.05 -3.68, 1.91 0.96 M29.85 -10.5 C24.26 -7.6, 18.65 -6.5, 1.94 0.11" stroke="#000000" stroke-width="1" fill="none"></path></g><g transform="translate(1423.0231895527656 649.4543813705457) rotate(0 60.70358249838023 0.43982670142827374)"><path d="M30.73 8.94 C22.24 10.36, 18.27 7.26, 1.91 0.96 M30.04 10.02 C24.28 8.75, 18.63 5.7, 1.94 0.11" stroke="#000000" stroke-width="1" fill="none"></path></g><g transform="translate(1423.0231895527656 649.4543813705457) rotate(0 60.70358249838023 0.43982670142827374)"><path d="M94.14 9.43 C98.84 10.27, 108.07 7.13, 121.83 1.3 M93.46 10.51 C99.16 9.34, 104.98 6.25, 121.87 0.45" stroke="#000000" stroke-width="1" fill="none"></path></g><g transform="translate(1423.0231895527656 649.4543813705457) rotate(0 60.70358249838023 0.43982670142827374)"><path d="M94.22 -11.09 C98.77 -5.46, 107.98 -3.81, 121.83 1.3 M93.53 -10.01 C99.36 -7.02, 105.16 -5.95, 121.87 0.45" stroke="#000000" stroke-width="1" fill="none"></path></g></g><mask></mask><g stroke-linecap="round"><g transform="translate(1425.9055670997413 462.67334189389976) rotate(0 55.57907506386482 -0.6610551198612029)"><path d="M0.81 -0.17 C19.12 -0.02, 90.85 0.17, 109.15 0.17 M-0.23 -1.3 C18.52 -1.42, 93 -1.34, 111.39 -1.5" stroke="#000000" stroke-width="1" fill="none"></path></g><g transform="translate(1425.9055670997413 462.67334189389976) rotate(0 55.57907506386482 -0.6610551198612029)"><path d="M28.75 -11.83 C23.66 -6.82, 16.34 -6.75, 0.77 1.02 M29.79 -11.07 C22.05 -8.27, 14.83 -5.19, 0.8 -0.68" stroke="#000000" stroke-width="1" fill="none"></path></g><g transform="translate(1425.9055670997413 462.67334189389976) rotate(0 55.57907506386482 -0.6610551198612029)"><path d="M28.68 8.69 C23.72 8.79, 16.43 3.96, 0.77 1.02 M29.71 9.45 C22.12 6.96, 14.93 4.74, 0.8 -0.68" stroke="#000000" stroke-width="1" fill="none"></path></g><g transform="translate(1425.9055670997413 462.67334189389976) rotate(0 55.57907506386482 -0.6610551198612029)"><path d="M82.95 7.34 C91.46 7.07, 97.64 2.24, 111.35 -0.31 M83.98 8.1 C90.93 5.85, 98.26 3.64, 111.38 -2" stroke="#000000" stroke-width="1" fill="none"></path></g><g transform="translate(1425.9055670997413 462.67334189389976) rotate(0 55.57907506386482 -0.6610551198612029)"><path d="M82.88 -13.18 C91.29 -8.54, 97.48 -8.46, 111.35 -0.31 M83.92 -12.42 C90.75 -9.37, 98.1 -6.29, 111.38 -2" stroke="#000000" stroke-width="1" fill="none"></path></g></g><mask></mask><g stroke-linecap="round" transform="translate(1228.745182036605 261.98316990413196) rotate(0 80 40.5)"><path d="M20.25 0 M20.25 0 C49.19 1.32, 79.04 -0.66, 139.75 0 M20.25 0 C46.18 -0.53, 74.47 0.39, 139.75 0 M139.75 0 C152.93 -1.93, 161.09 5.01, 160 20.25 M139.75 0 C153.07 -0.03, 158.67 7.43, 160 20.25 M160 20.25 C158.27 31.85, 161.28 38.97, 160 60.75 M160 20.25 C159.55 34.58, 160.04 49.12, 160 60.75 M160 60.75 C161.66 73.88, 151.6 82.84, 139.75 81 M160 60.75 C161.6 76.02, 154.7 80.7, 139.75 81 M139.75 81 C106.23 84.08, 75.88 83.5, 20.25 81 M139.75 81 C110.95 80.34, 82.7 80.39, 20.25 81 M20.25 81 C8.47 80.49, 1.49 74.79, 0 60.75 M20.25 81 C7.38 82.74, -1.55 74.66, 0 60.75 M0 60.75 C-1.33 43.24, -1.07 30.24, 0 20.25 M0 60.75 C1.02 48.25, 0.32 36.48, 0 20.25 M0 20.25 C1.06 5.29, 8.68 0.49, 20.25 0 M0 20.25 C-0.53 6.4, 5.14 -1.91, 20.25 0" stroke="#000000" stroke-width="1" fill="none"></path></g><g transform="translate(1245.0752372734214 289.98316990413196) rotate(0 63.669944763183594 12.5)"><text x="63.669944763183594" y="0" font-family="Virgil, Segoe UI Emoji" font-size="20px" fill="#000000" text-anchor="middle" style="white-space: pre;" direction="ltr" dominant-baseline="text-before-edge">cert-manager</text></g><g stroke-linecap="round" transform="translate(855.0655027669369 259.51315331814203) rotate(0 97.5 38.5)"><path d="M19.25 0 M19.25 0 C53.16 0.54, 88.92 -0.4, 175.75 0 M19.25 0 C64.53 1.62, 111.16 0.87, 175.75 0 M175.75 0 C187.8 1.49, 195.03 5.65, 195 19.25 M175.75 0 C189.31 0.12, 196.57 6.93, 195 19.25 M195 19.25 C196.89 31.65, 197.09 41.66, 195 57.75 M195 19.25 C194.25 32.58, 195.08 44.94, 195 57.75 M195 57.75 C196.34 68.88, 186.79 78.84, 175.75 77 M195 57.75 C195.18 72.78, 189.62 79, 175.75 77 M175.75 77 C136.65 74.95, 96.29 75.65, 19.25 77 M175.75 77 C114.07 76.63, 53.21 76.68, 19.25 77 M19.25 77 C7.96 78.22, -1.94 69.48, 0 57.75 M19.25 77 C4.87 78.02, -0.3 71.73, 0 57.75 M0 57.75 C0.25 45.51, -1.57 32.48, 0 19.25 M0 57.75 C-0.71 44.61, -0.79 30.61, 0 19.25 M0 19.25 C1.95 7.97, 5.13 0.76, 19.25 0 M0 19.25 C0.79 7.55, 4.46 0.4, 19.25 0" stroke="#000000" stroke-width="1" fill="none"></path></g><g transform="translate(864.0155836385189 285.51315331814203) rotate(0 88.54991912841797 12.5)"><text x="88.54991912841797" y="0" font-family="Virgil, Segoe UI Emoji" font-size="20px" fill="#000000" text-anchor="middle" style="white-space: pre;" direction="ltr" dominant-baseline="text-before-edge">Traefik TLSStore</text></g><g stroke-linecap="round"><g transform="translate(1221.3149802955966 301.8244277911774) rotate(0 -80.67669451203585 -0.4217546334296003)"><path d="M-1.14 0.66 C-27.82 0.33, -133.67 -1.23, -160.21 -1.51" stroke="#000000" stroke-width="1.5" fill="none" stroke-dasharray="8 9"></path></g><g transform="translate(1221.3149802955966 301.8244277911774) rotate(0 -80.67669451203585 -0.4217546334296003)"><path d="M-130.79 -12.58 C-140.56 -10.26, -147.93 -4.44, -160.23 -2.77" stroke="#000000" stroke-width="1.5" fill="none"></path></g><g transform="translate(1221.3149802955966 301.8244277911774) rotate(0 -80.67669451203585 -0.4217546334296003)"><path d="M-131.05 7.94 C-140.82 4.32, -148.12 4.19, -160.23 -2.77" stroke="#000000" stroke-width="1.5" fill="none"></path></g></g><mask></mask><g stroke-linecap="round"><g transform="translate(959.5900320467771 344.68654337333805) rotate(0 -0.4875977800163014 25.629045891312785)"><path d="M-0.47 -0.24 C-0.49 8.21, -0.43 42.78, -0.51 51.5" stroke="#495057" stroke-width="1.5" fill="none" stroke-dasharray="8 9"></path></g><g transform="translate(959.5900320467771 344.68654337333805) rotate(0 -0.4875977800163014 25.629045891312785)"><path d="M-9.68 27.38 C-7.13 33.04, -3.89 39.18, -0.57 49.52" stroke="#495057" stroke-width="1.5" fill="none"></path></g><g transform="translate(959.5900320467771 344.68654337333805) rotate(0 -0.4875977800163014 25.629045891312785)"><path d="M8.01 27.44 C5.88 33.01, 4.46 39.14, -0.57 49.52" stroke="#495057" stroke-width="1.5" fill="none"></path></g></g><mask></mask><g stroke-linecap="round"><g transform="translate(1022.9842343274606 343.7654676153445) rotate(0 -1.0884324274109076 120.38709640850584)"><path d="M0.22 -0.22 C-0.09 39.82, -1.83 200.56, -2.39 241" stroke="#495057" stroke-width="1.5" fill="none" stroke-dasharray="8 9"></path></g><g transform="translate(1022.9842343274606 343.7654676153445) rotate(0 -1.0884324274109076 120.38709640850584)"><path d="M-12.68 213.35 C-10.93 219.3, -6.07 225.58, -2 242.39" stroke="#495057" stroke-width="1.5" fill="none"></path></g><g transform="translate(1022.9842343274606 343.7654676153445) rotate(0 -1.0884324274109076 120.38709640850584)"><path d="M7.84 213.6 C4.34 219.52, 3.96 225.74, -2 242.39" stroke="#495057" stroke-width="1.5" fill="none"></path></g></g><mask></mask></svg>