<svg version="1.1" xmlns="http://www.w3.org/2000/svg" viewBox="0 0 1288.5317113967171 587.4066015576561" width="1288.5317113967171" height="587.4066015576561" filter="invert(93%) hue-rotate(180deg)">
  <!-- svg-source:excalidraw -->
  
  <defs>
    <style class="style-fonts">
      @font-face {
        font-family: "Virgil";
        src: url("https://file%2B.vscode-resource.vscode-cdn.net/c%3A/Users/mp281x/.vscode/extensions/pomdtr.excalidraw-editor-3.5.1/public//dist/excalidraw-assets/Virgil.woff2");
      }
      @font-face {
        font-family: "Cascadia";
        src: url("https://file%2B.vscode-resource.vscode-cdn.net/c%3A/Users/mp281x/.vscode/extensions/pomdtr.excalidraw-editor-3.5.1/public//dist/excalidraw-assets/Cascadia.woff2");
      }
    </style>
  </defs>
  <g transform="translate(439.0277688162663 10) rotate(0 172.38592529296875 22.5)"><text x="0" y="0" font-family="Virgil, Segoe UI Emoji" font-size="36px" fill="#000000" text-anchor="start" style="white-space: pre;" direction="ltr" dominant-baseline="text-before-edge">Kubernetes Secrets</text></g><g stroke-linecap="round" transform="translate(498.6586696079793 175.68843720451247) rotate(0 118.5 48.5)"><path d="M24.25 0 M24.25 0 C100.35 -1.61, 172.9 -2.8, 212.75 0 M24.25 0 C77.54 -0.3, 130.21 0.66, 212.75 0 M212.75 0 C229.44 0.21, 237.98 9.17, 237 24.25 M212.75 0 C227.3 -1.58, 238.4 6.32, 237 24.25 M237 24.25 C235.64 38.46, 237.79 49.89, 237 72.75 M237 24.25 C236.89 36.05, 236.83 46.82, 237 72.75 M237 72.75 C238.18 88.17, 227.75 98.53, 212.75 97 M237 72.75 C234.95 86.81, 230.19 98.94, 212.75 97 M212.75 97 C169.89 95.9, 125.25 96.86, 24.25 97 M212.75 97 C154.38 97.91, 97.37 97.75, 24.25 97 M24.25 97 C7.43 95.03, -1.74 89.69, 0 72.75 M24.25 97 C8.15 97.71, -1.49 88.51, 0 72.75 M0 72.75 C1.2 63.5, 1.04 49.59, 0 24.25 M0 72.75 C-0.95 56.32, -0.96 41.44, 0 24.25 M0 24.25 C-0.21 7.04, 7.39 -1.51, 24.25 0 M0 24.25 C-1.34 6.33, 9.09 -0.87, 24.25 0" stroke="#000000" stroke-width="1" fill="none"></path></g><g transform="translate(544.9187480381551 199.18843720451247) rotate(0 72.23992156982422 25)"><text x="72.23992156982422" y="0" font-family="Virgil, Segoe UI Emoji" font-size="20px" fill="#000000" text-anchor="middle" style="white-space: pre;" direction="ltr" dominant-baseline="text-before-edge">sealed-secrets</text><text x="72.23992156982422" y="25" font-family="Virgil, Segoe UI Emoji" font-size="20px" fill="#000000" text-anchor="middle" style="white-space: pre;" direction="ltr" dominant-baseline="text-before-edge">controller</text></g><g stroke-linecap="round" transform="translate(10 163.29947831895618) rotate(0 104 48.99999999999997)"><path d="M24.5 0 M24.5 0 C57.78 1.27, 92.75 -1.7, 183.5 0 M24.5 0 C77.29 -0.91, 131.66 -2.11, 183.5 0 M183.5 0 C198.29 1.3, 207.85 9.36, 208 24.5 M183.5 0 C198.11 -1.29, 206.17 6.3, 208 24.5 M208 24.5 C206.02 44.09, 206.33 59.81, 208 73.5 M208 24.5 C207.81 35.91, 207.65 48.35, 208 73.5 M208 73.5 C209.24 91.01, 199.88 96.03, 183.5 98 M208 73.5 C209.53 88.22, 198.47 96.79, 183.5 98 M183.5 98 C126.37 97.48, 72.33 98.12, 24.5 98 M183.5 98 C151.84 98.08, 117.79 97.23, 24.5 98 M24.5 98 C7.94 97.6, -1.29 87.97, 0 73.5 M24.5 98 C10.25 96.15, 0.99 91.22, 0 73.5 M0 73.5 C-0.45 56.23, -0.49 36.4, 0 24.5 M0 73.5 C-0.53 57.28, -0.45 39.23, 0 24.5 M0 24.5 C-1.7 7.77, 8.79 1.49, 24.5 0 M0 24.5 C-1.42 9.07, 9.11 2.01, 24.5 0" stroke="#000000" stroke-width="1" fill="none"></path></g><g transform="translate(62.890045166015625 187.29947831895618) rotate(0 51.109954833984375 25)"><text x="51.109954833984375" y="0" font-family="Virgil, Segoe UI Emoji" font-size="20px" fill="#000000" text-anchor="middle" style="white-space: pre;" direction="ltr" dominant-baseline="text-before-edge">Kubeseal</text><text x="51.109954833984375" y="25" font-family="Virgil, Segoe UI Emoji" font-size="20px" fill="#000000" text-anchor="middle" style="white-space: pre;" direction="ltr" dominant-baseline="text-before-edge">(win client)</text></g><g mask="url(#mask-xJd47-njfPiL3VJKP7o9a)" stroke-linecap="round"><g transform="translate(231.71495988315155 216.2224039303972) rotate(0 125.63819515081343 0.18367658563954592)"><path d="M0.57 0.37 C42.02 0.56, 207.9 0.85, 249.68 0.94 M-0.58 -0.48 C41.15 -0.58, 209.97 -0.52, 251.86 -0.58" stroke="#000000" stroke-width="1" fill="none"></path></g><g transform="translate(231.71495988315155 216.2224039303972) rotate(0 125.63819515081343 0.18367658563954592)"><path d="M29.4 -11.5 C19.93 -4.89, 9.15 -0.25, -1.16 -0.15 M28.05 -10.07 C22.2 -7.59, 15.08 -4.62, 0.43 0.98" stroke="#000000" stroke-width="1" fill="none"></path></g><g transform="translate(231.71495988315155 216.2224039303972) rotate(0 125.63819515081343 0.18367658563954592)"><path d="M29.35 9.02 C19.94 7.81, 9.18 4.63, -1.16 -0.15 M28 10.45 C22.02 7.78, 14.92 5.59, 0.43 0.98" stroke="#000000" stroke-width="1" fill="none"></path></g><g transform="translate(231.71495988315155 216.2224039303972) rotate(0 125.63819515081343 0.18367658563954592)"><path d="M224.29 8.02 C236.35 6.56, 247.07 3.4, 250.13 -1.09 M222.94 9.45 C231.11 7.03, 238.17 4.86, 251.71 0.03" stroke="#000000" stroke-width="1" fill="none"></path></g><g transform="translate(231.71495988315155 216.2224039303972) rotate(0 125.63819515081343 0.18367658563954592)"><path d="M224.28 -12.51 C236.31 -6.14, 247.03 -1.47, 250.13 -1.09 M222.93 -11.07 C231.24 -8.33, 238.3 -5.35, 251.71 0.03" stroke="#000000" stroke-width="1" fill="none"></path></g></g><mask id="mask-xJd47-njfPiL3VJKP7o9a"><rect x="0" y="0" fill="#fff" width="582.4013974592339" height="316.4290873181622"></rect><rect x="308.15820766289187" y="203.61906223651476" fill="#000" width="97.79994201660156" height="25" opacity="1"></rect></mask><g transform="translate(308.158207662892 203.61906223651465) rotate(0 49.194947371073056 12.787018279522044)"><text x="48.89997100830078" y="0" font-family="Virgil, Segoe UI Emoji" font-size="20px" fill="#000000" text-anchor="middle" style="white-space: pre;" direction="ltr" dominant-baseline="text-before-edge">Raw Mode</text></g><g stroke-linecap="round" transform="translate(36.16669718424464 464.96631283230255) rotate(0 93 52.5)"><path d="M26.25 0 M26.25 0 C79.2 -0.75, 133.51 0.79, 159.75 0 M26.25 0 C56.82 -0.78, 85.02 0.14, 159.75 0 M159.75 0 C175.72 -0.99, 186.52 9.37, 186 26.25 M159.75 0 C177.76 -0.59, 188.26 8.3, 186 26.25 M186 26.25 C184.85 46.85, 184.43 64.98, 186 78.75 M186 26.25 C185.06 40.51, 185.3 55.23, 186 78.75 M186 78.75 C185.84 97.09, 175.74 104.9, 159.75 105 M186 78.75 C187.53 97.02, 176.4 105.82, 159.75 105 M159.75 105 C133.56 103.05, 104.4 102.73, 26.25 105 M159.75 105 C122.1 105.65, 83.22 106.05, 26.25 105 M26.25 105 C10.26 103.79, 1.77 97.73, 0 78.75 M26.25 105 C7.62 103.61, 0.04 96.38, 0 78.75 M0 78.75 C-0.7 67.52, -0.65 55.02, 0 26.25 M0 78.75 C-0.52 64.2, 1.15 50.94, 0 26.25 M0 26.25 C0.44 6.9, 7.16 0.57, 26.25 0 M0 26.25 C-2.07 6.89, 10.09 1.29, 26.25 0" stroke="#000000" stroke-width="1" fill="none"></path></g><g transform="translate(47.536783854166515 504.96631283230255) rotate(0 81.62991333007812 12.5)"><text x="81.62991333007812" y="0" font-family="Virgil, Segoe UI Emoji" font-size="20px" fill="#000000" text-anchor="middle" style="white-space: pre;" direction="ltr" dominant-baseline="text-before-edge">Powershell script</text></g><g mask="url(#mask-MZURIzcDUvZBoiOH902GC)" stroke-linecap="round"><g transform="translate(230.72556335729053 519.9499616710445) rotate(0 139.1053770963535 1.4325171084304316)"><path d="M-0.74 0.49 C45.68 0.74, 232.34 1.75, 278.95 2.15 M1.07 -0.29 C47.26 0, 231.59 2.43, 277.72 3.16" stroke="#000000" stroke-width="1" fill="none"></path></g><g transform="translate(230.72556335729053 519.9499616710445) rotate(0 139.1053770963535 1.4325171084304316)"><path d="M28.33 -10.5 C16.43 -7.39, 8.24 -3.79, -0.31 -0.75 M28.24 -9.31 C17.18 -5.9, 7.96 -1.42, -1.09 1.41" stroke="#000000" stroke-width="1" fill="none"></path></g><g transform="translate(230.72556335729053 519.9499616710445) rotate(0 139.1053770963535 1.4325171084304316)"><path d="M28.22 10.02 C16.24 6.28, 8.08 3.02, -0.31 -0.75 M28.12 11.21 C17.15 7.48, 7.97 4.84, -1.09 1.41" stroke="#000000" stroke-width="1" fill="none"></path></g><g transform="translate(230.72556335729053 519.9499616710445) rotate(0 139.1053770963535 1.4325171084304316)"><path d="M250.21 12.12 C257.1 8.91, 267.81 5.85, 278.15 1.91 M250.11 13.31 C258.77 9.38, 269.21 6.93, 277.37 4.08" stroke="#000000" stroke-width="1" fill="none"></path></g><g transform="translate(230.72556335729053 519.9499616710445) rotate(0 139.1053770963535 1.4325171084304316)"><path d="M250.5 -8.4 C257.41 -4.75, 268.02 -0.96, 278.15 1.91 M250.4 -7.21 C258.91 -4, 269.25 0.68, 277.37 4.08" stroke="#000000" stroke-width="1" fill="none"></path></g></g><mask id="mask-MZURIzcDUvZBoiOH902GC"><rect x="0" y="0" fill="#fff" width="610.2131198446989" height="623.1216150626467"></rect><rect x="310.6394008050962" y="509.03578836684574" fill="#000" width="119.65988159179688" height="25" opacity="1"></rect></mask><g transform="translate(310.6394008050962 509.0357883668456) rotate(0 59.1915396485478 12.346690412629357)"><text x="59.82994079589844" y="0" font-family="Virgil, Segoe UI Emoji" font-size="20px" fill="#000000" text-anchor="middle" style="white-space: pre;" direction="ltr" dominant-baseline="text-before-edge">secrets.yaml</text></g><g stroke-linecap="round" transform="translate(515.8492591494602 473.4066015576561) rotate(0 105 52)"><path d="M26 0 M26 0 C79.49 -0.3, 132.32 -1.53, 184 0 M26 0 C71.29 0, 117.23 -0.41, 184 0 M184 0 C200.32 -0.15, 209.82 7.3, 210 26 M184 0 C203.23 -1.35, 208.45 9.19, 210 26 M210 26 C209.22 42.74, 209.57 56.84, 210 78 M210 26 C210.22 39.65, 209.01 54.98, 210 78 M210 78 C208.13 94.29, 199.85 104.58, 184 104 M210 78 C212.14 96.76, 202.37 105.31, 184 104 M184 104 C124.95 103.9, 67.28 103.61, 26 104 M184 104 C142.91 104.69, 98.95 104.44, 26 104 M26 104 C8.08 102.87, -1.92 94.07, 0 78 M26 104 C10.14 104.69, 1.13 94.31, 0 78 M0 78 C-0.52 68.83, 0.86 57.23, 0 26 M0 78 C0.84 67.82, 0.24 57.13, 0 26 M0 26 C0.54 7.12, 8.35 -0.48, 26 0 M0 26 C-2.2 6.67, 10.58 0.13, 26 0" stroke="#000000" stroke-width="1" fill="none"></path></g><g transform="translate(530.8293311709446 512.9066015576561) rotate(0 90.01992797851562 12.5)"><text x="90.01992797851562" y="0" font-family="Virgil, Segoe UI Emoji" font-size="20px" fill="#000000" text-anchor="middle" style="white-space: pre;" direction="ltr" dominant-baseline="text-before-edge">SealedSecret CRD</text></g><g stroke-linecap="round"><g transform="translate(619.7792379550393 466.5044145574529) rotate(0 0.6521087665821028 -92.95937012014497)"><path d="M1.05 -1.11 C1.31 -32.11, 1.06 -155.96, 1.06 -186.84 M0.14 0.92 C0.35 -29.85, 0.45 -154.55, 0.54 -185.55" stroke="#000000" stroke-width="1" fill="none"></path></g><g transform="translate(619.7792379550393 466.5044145574529) rotate(0 0.6521087665821028 -92.95937012014497)"><path d="M8.9 -155.96 C7.51 -163.23, 5.63 -171.01, 0.3 -186.13 M10.39 -156.98 C5.95 -167.81, 3.49 -179.84, 1.34 -186.5" stroke="#000000" stroke-width="1" fill="none"></path></g><g transform="translate(619.7792379550393 466.5044145574529) rotate(0 0.6521087665821028 -92.95937012014497)"><path d="M-11.62 -156 C-7.68 -163.44, -4.24 -171.21, 0.3 -186.13 M-10.13 -157.01 C-6.54 -167.65, -0.97 -179.67, 1.34 -186.5" stroke="#000000" stroke-width="1" fill="none"></path></g></g><mask></mask><g stroke-linecap="round"><g transform="translate(743.6580223110027 219.48127523040108) rotate(0 48.183658966940754 -0.18619958662421254)"><path d="M-0.08 0.56 C16.27 0.31, 81.7 -0.71, 97.95 -0.93 M-1.59 -0.2 C14.68 -0.3, 80.94 0.41, 97.32 0.54" stroke="#000000" stroke-width="1" fill="none"></path></g><g transform="translate(743.6580223110027 219.48127523040108) rotate(0 48.183658966940754 -0.18619958662421254)"><path d="M69.96 11.53 C76.78 7.84, 85.05 5.79, 98.05 2.36 M68.6 11.39 C78.2 6.3, 87.64 3.61, 96.86 0.54" stroke="#000000" stroke-width="1" fill="none"></path></g><g transform="translate(743.6580223110027 219.48127523040108) rotate(0 48.183658966940754 -0.18619958662421254)"><path d="M70.15 -8.99 C77.01 -6.86, 85.23 -3.09, 98.05 2.36 M68.78 -9.13 C78.16 -7.69, 87.54 -3.85, 96.86 0.54" stroke="#000000" stroke-width="1" fill="none"></path></g></g><mask></mask><g stroke-linecap="round" transform="translate(849.7876688639313 163.20776088654048) rotate(0 97.5 49.5)"><path d="M24.75 0 M24.75 0 C71.4 0.32, 119.64 1.7, 170.25 0 M24.75 0 C59.38 0.16, 93.28 0.37, 170.25 0 M170.25 0 C188.38 -1.94, 193.21 6.76, 195 24.75 M170.25 0 C185.52 -0.81, 193.24 7.5, 195 24.75 M195 24.75 C192.96 34.1, 193.74 45.04, 195 74.25 M195 24.75 C194.55 36.51, 195.41 47.5, 195 74.25 M195 74.25 C194.88 90.73, 185.82 100.43, 170.25 99 M195 74.25 C193.61 91.8, 185.41 98.93, 170.25 99 M170.25 99 C113.3 96.24, 57.02 97.98, 24.75 99 M170.25 99 C123 98.33, 76.52 96.56, 24.75 99 M24.75 99 C10.1 98.48, -0.06 92.7, 0 74.25 M24.75 99 C9.1 97.01, -0.18 91.72, 0 74.25 M0 74.25 C-0.29 56.78, -0.22 36.06, 0 24.75 M0 74.25 C-0.57 56.1, 0.61 36.7, 0 24.75 M0 24.75 C0.68 8.98, 7.73 -1.29, 24.75 0 M0 24.75 C0.59 10.42, 8.11 -0.1, 24.75 0" stroke="#000000" stroke-width="1" fill="none"></path></g><g transform="translate(888.937723795572 187.70776088654048) rotate(0 58.349945068359375 25)"><text x="58.349945068359375" y="0" font-family="Virgil, Segoe UI Emoji" font-size="20px" fill="#000000" text-anchor="middle" style="white-space: pre;" direction="ltr" dominant-baseline="text-before-edge">Kubernetes </text><text x="58.349945068359375" y="25" font-family="Virgil, Segoe UI Emoji" font-size="20px" fill="#000000" text-anchor="middle" style="white-space: pre;" direction="ltr" dominant-baseline="text-before-edge">secrets</text></g><g stroke-linecap="round"><g transform="translate(1049.107497240123 211.33569435345288) rotate(0 26.05074863173604 0.7801323274463527)"><path d="M0.31 0.69 C9.34 0.85, 44.22 -0.04, 53.09 0.08 M-0.98 0.01 C7.99 0.44, 43.16 1.61, 52.17 1.54" stroke="#000000" stroke-width="1" fill="none"></path></g><g transform="translate(1049.107497240123 211.33569435345288) rotate(0 26.05074863173604 0.7801323274463527)"><path d="M28.26 10.3 C32.15 9.17, 39.51 8.16, 53.81 0.58 M27.99 9.28 C35.55 6.37, 46.41 2.8, 52.26 1.88" stroke="#000000" stroke-width="1" fill="none"></path></g><g transform="translate(1049.107497240123 211.33569435345288) rotate(0 26.05074863173604 0.7801323274463527)"><path d="M28.56 -7.84 C32.25 -5.2, 39.55 -2.45, 53.81 0.58 M28.28 -8.85 C35.76 -5, 46.51 -1.79, 52.26 1.88" stroke="#000000" stroke-width="1" fill="none"></path></g></g><mask></mask><g stroke-linecap="round" transform="translate(1107.2830776638452 166.99255601186582) rotate(0 65.5 39.5)"><path d="M19.75 0 M19.75 0 C48.2 -1.1, 78.7 2.08, 111.25 0 M19.75 0 C54.04 -0.03, 87.75 0.47, 111.25 0 M111.25 0 C125.47 -0.02, 132.7 7.38, 131 19.75 M111.25 0 C125.61 -2.03, 129.62 4.61, 131 19.75 M131 19.75 C131.08 33.7, 129.55 47.63, 131 59.25 M131 19.75 C131.55 29.83, 131.53 40.7, 131 59.25 M131 59.25 C132.15 72.7, 123.77 79.29, 111.25 79 M131 59.25 C131.15 70.21, 123.99 79.01, 111.25 79 M111.25 79 C86.86 79.01, 66.17 79.38, 19.75 79 M111.25 79 C85.9 79.22, 61.62 77.74, 19.75 79 M19.75 79 C7.19 80.52, -1.79 72.69, 0 59.25 M19.75 79 C4.65 78.43, -0.23 73.15, 0 59.25 M0 59.25 C-0.95 48.5, -1.68 38.79, 0 19.75 M0 59.25 C-0.85 44.14, -0.15 28.22, 0 19.75 M0 19.75 C0.12 5.52, 7.31 -1.25, 19.75 0 M0 19.75 C-0.86 5.25, 8.45 0.44, 19.75 0" stroke="#000000" stroke-width="1" fill="none"></path></g><g transform="translate(1146.113094753689 181.49255601186582) rotate(0 26.66998291015625 25)"><text x="26.66998291015625" y="0" font-family="Virgil, Segoe UI Emoji" font-size="20px" fill="#000000" text-anchor="middle" style="white-space: pre;" direction="ltr" dominant-baseline="text-before-edge">POD </text><text x="26.66998291015625" y="25" font-family="Virgil, Segoe UI Emoji" font-size="20px" fill="#000000" text-anchor="middle" style="white-space: pre;" direction="ltr" dominant-baseline="text-before-edge">env</text></g><g stroke-linecap="round" transform="translate(432.12313043503536 120.305471026708) rotate(0 423.2042904808408 103.75002179827007)"><path d="M32 0 M32 0 C324.96 1.86, 617.62 0.86, 814.41 0 M814.41 0 C834.7 -0.1, 845.87 11.33, 846.41 32 M846.41 32 C847.8 88.33, 845.22 142.07, 846.41 175.5 M846.41 175.5 C844.66 197.16, 837.66 208.38, 814.41 207.5 M814.41 207.5 C544.83 209.74, 276.44 210.46, 32 207.5 M32 207.5 C10.69 206.8, 1.78 195.9, 0 175.5 M0 175.5 C-2.23 145.48, 0.97 114.07, 0 32 M0 32 C0.15 12.6, 10.87 -1.6, 32 0" stroke="#000000" stroke-width="1.5" fill="none" stroke-dasharray="8 9"></path></g><g stroke-linecap="round"><g transform="translate(135.77514164031504 277.0500339326405) rotate(0 -1.996222426817468 87.98437795026024)"><path d="M0.64 -1.03 C0.03 28.25, -2.91 146.25, -3.64 175.92 M-0.49 1.04 C-1.25 30.42, -3.93 147.44, -4.63 177" stroke="#000000" stroke-width="1" fill="none"></path></g><g transform="translate(135.77514164031504 277.0500339326405) rotate(0 -1.996222426817468 87.98437795026024)"><path d="M8.5 27.27 C5.87 18.61, 4.82 10.87, -0.36 -0.15 M9.66 28.29 C6.28 18.25, 4.7 11.25, 1.37 -0.48" stroke="#000000" stroke-width="1" fill="none"></path></g><g transform="translate(135.77514164031504 277.0500339326405) rotate(0 -1.996222426817468 87.98437795026024)"><path d="M-12.02 26.78 C-8.54 18.16, -3.48 10.56, -0.36 -0.15 M-10.86 27.8 C-8.11 17.8, -3.57 10.95, 1.37 -0.48" stroke="#000000" stroke-width="1" fill="none"></path></g><g transform="translate(135.77514164031504 277.0500339326405) rotate(0 -1.996222426817468 87.98437795026024)"><path d="M-15.96 148.46 C-12.76 156.62, -8.1 165.8, -5.63 177.89 M-14.79 149.47 C-12.19 156.3, -8.05 166.26, -3.89 177.55" stroke="#000000" stroke-width="1" fill="none"></path></g><g transform="translate(135.77514164031504 277.0500339326405) rotate(0 -1.996222426817468 87.98437795026024)"><path d="M4.56 148.94 C1.65 157.06, 0.21 166.1, -5.63 177.89 M5.72 149.95 C2.2 156.73, 0.23 166.55, -3.89 177.55" stroke="#000000" stroke-width="1" fill="none"></path></g></g><mask></mask></svg>