<svg version="1.1" xmlns="http://www.w3.org/2000/svg" viewBox="0 0 2690.544530959356 1349.1115347359723" width="5381.089061918712" height="2698.2230694719447">
  <!-- svg-source:excalidraw -->
  
  <defs>
    <style class="style-fonts">
      @font-face {
        font-family: "Virgil";
        src: url("https://file%2B.vscode-resource.vscode-cdn.net/c%3A/Users/mp281x/.vscode/extensions/pomdtr.excalidraw-editor-3.5.1/public//dist/excalidraw-assets/Virgil.woff2");
      }
      @font-face {
        font-family: "Cascadia";
        src: url("https://file%2B.vscode-resource.vscode-cdn.net/c%3A/Users/mp281x/.vscode/extensions/pomdtr.excalidraw-editor-3.5.1/public//dist/excalidraw-assets/Cascadia.woff2");
      }
    </style>
  </defs>
  <g transform="translate(1419.507978893462 10) rotate(0 174.7259521484375 22.5)"><text x="0" y="0" font-family="Virgil, Segoe UI Emoji" font-size="36px" fill="#000000" text-anchor="start" style="white-space: pre;" direction="ltr" dominant-baseline="text-before-edge">Kubernetes Storage</text></g><g stroke-linecap="round" transform="translate(1592.8273656935926 471.11090596516897) rotate(0 101.99999999999994 71)"><path d="M32 0 M32 0 C80.79 -1.25, 130.16 0.58, 172 0 M32 0 C73.81 1, 115.31 0.18, 172 0 M172 0 C195.32 1.2, 202.56 11.34, 204 32 M172 0 C191.23 -0.5, 202.41 12.96, 204 32 M204 32 C203.66 62.16, 205.36 96.25, 204 110 M204 32 C203.35 51.03, 203.29 70.49, 204 110 M204 110 C205 133.13, 193.64 142.59, 172 142 M204 110 C203.6 132.91, 193.81 140.53, 172 142 M172 142 C122 140.56, 73.73 143.65, 32 142 M172 142 C139.66 142.33, 109.25 142.89, 32 142 M32 142 C9.57 140.26, -1.91 133.19, 0 110 M32 142 C12.95 140.83, 1.39 130.29, 0 110 M0 110 C-1.8 84.37, -1.78 58.27, 0 32 M0 110 C0.24 93.33, -0.7 78.79, 0 32 M0 32 C-0.31 9.74, 12.59 0.43, 32 0 M0 32 C-0.98 10.67, 11.59 -1.79, 32 0" stroke="#000000" stroke-width="1" fill="none"></path></g><g transform="translate(1621.6393774123426 497.11090596516897) rotate(0 73.18798828124994 45)"><text x="73.18798828125" y="0" font-family="Virgil, Segoe UI Emoji" font-size="36px" fill="#000000" text-anchor="middle" style="white-space: pre;" direction="ltr" dominant-baseline="text-before-edge">Longhorn</text><text x="73.18798828125" y="45" font-family="Virgil, Segoe UI Emoji" font-size="36px" fill="#000000" text-anchor="middle" style="white-space: pre;" direction="ltr" dominant-baseline="text-before-edge">engine</text></g><g stroke-linecap="round" transform="translate(670.7440933954152 276.25004831949855) rotate(0 122 73)"><path d="M32 0 M32 0 C99.81 1.05, 165.66 1.83, 212 0 M32 0 C80.33 0.34, 128.02 1.24, 212 0 M212 0 C232.52 1.85, 242.71 11.94, 244 32 M212 0 C234.07 -2.2, 243.14 11.32, 244 32 M244 32 C244.04 65.54, 241.57 98.08, 244 114 M244 32 C242.57 56.01, 243.25 79.8, 244 114 M244 114 C242.35 135.07, 233.03 146.67, 212 146 M244 114 C242.79 137.57, 231.26 143.77, 212 146 M212 146 C143.97 149.07, 75.61 147.3, 32 146 M212 146 C165.42 147.35, 117.56 146.29, 32 146 M32 146 C11.43 147.4, -1.76 135.11, 0 114 M32 146 C10.13 145.65, 0.29 133.3, 0 114 M0 114 C-0.07 94.92, -0.3 76.92, 0 32 M0 114 C0.34 96.5, -0.37 80.63, 0 32 M0 32 C-1.54 9.8, 9.33 0.14, 32 0 M0 32 C1.09 8.65, 10.66 1.71, 32 0" stroke="#000000" stroke-width="1" fill="none"></path></g><g transform="translate(687.714132763091 304.25004831949855) rotate(0 105.02996063232422 45)"><text x="105.02996063232422" y="0" font-family="Virgil, Segoe UI Emoji" font-size="36px" fill="#000000" text-anchor="middle" style="white-space: pre;" direction="ltr" dominant-baseline="text-before-edge">Kubernetes </text><text x="105.02996063232422" y="45" font-family="Virgil, Segoe UI Emoji" font-size="36px" fill="#000000" text-anchor="middle" style="white-space: pre;" direction="ltr" dominant-baseline="text-before-edge">PVC</text></g><g stroke-linecap="round" transform="translate(666.855136689686 631.388801574707) rotate(0 122 73)"><path d="M32 0 M32 0 C88.11 0.88, 143.21 -2.67, 212 0 M32 0 C91.09 -1.79, 149.25 -0.81, 212 0 M212 0 C232.49 0, 243.97 11.75, 244 32 M212 0 C232.34 0.94, 245.41 9.3, 244 32 M244 32 C243.85 50.01, 243.18 71.38, 244 114 M244 32 C243.35 58.65, 243.14 86.09, 244 114 M244 114 C242.68 135.45, 233.69 144.24, 212 146 M244 114 C244.34 134.66, 234.68 145.09, 212 146 M212 146 C171.36 146.15, 133.99 146.05, 32 146 M212 146 C172.86 143.95, 131.23 143.68, 32 146 M32 146 C12.36 145.11, -0.99 133.7, 0 114 M32 146 C12.62 144.33, 0.17 134.86, 0 114 M0 114 C-0.67 97.22, 1.81 79.22, 0 32 M0 114 C0.5 87.44, 0.4 62, 0 32 M0 32 C-1.26 12.33, 9.69 -0.87, 32 0 M0 32 C0.99 11.85, 10.66 -0.01, 32 0" stroke="#000000" stroke-width="1" fill="none"></path></g><g transform="translate(683.8251760573618 659.388801574707) rotate(0 105.02996063232422 45)"><text x="105.02996063232422" y="0" font-family="Virgil, Segoe UI Emoji" font-size="36px" fill="#000000" text-anchor="middle" style="white-space: pre;" direction="ltr" dominant-baseline="text-before-edge">Kubernetes </text><text x="105.02996063232422" y="45" font-family="Virgil, Segoe UI Emoji" font-size="36px" fill="#000000" text-anchor="middle" style="white-space: pre;" direction="ltr" dominant-baseline="text-before-edge">PVC</text></g><g stroke-linecap="round" transform="translate(1122.4106379917694 280.7639261881509) rotate(0 126.66668701171864 72.5)"><path d="M32 0 M32 0 C104.89 1.29, 173.65 1.42, 221.33 0 M32 0 C78.8 -0.04, 127.93 -0.97, 221.33 0 M221.33 0 C244.58 -1.3, 254.83 10.2, 253.33 32 M221.33 0 C243.42 1.47, 254.43 9.03, 253.33 32 M253.33 32 C255.14 56.16, 251.61 79.09, 253.33 113 M253.33 32 C252.11 48.64, 252.77 66.98, 253.33 113 M253.33 113 C253.31 134.77, 243.5 145.4, 221.33 145 M253.33 113 C253.54 132.83, 244.59 147.17, 221.33 145 M221.33 145 C147.42 146.06, 76.7 145.45, 32 145 M221.33 145 C149.92 147.08, 79.69 146.5, 32 145 M32 145 C9.68 144.09, 0.91 135.6, 0 113 M32 145 C9.99 145.77, 2.16 134.56, 0 113 M0 113 C2.2 85.49, -0.99 54.53, 0 32 M0 113 C-0.32 89.47, 0.36 67.58, 0 32 M0 32 C0.55 10.99, 10.49 0.81, 32 0 M0 32 C-1.3 9.53, 8.87 -1.65, 32 0" stroke="#000000" stroke-width="1" fill="none"></path></g><g transform="translate(1166.889336722238 285.7639261881509) rotate(0 82.18798828125 67.5)"><text x="82.18798828125" y="0" font-family="Virgil, Segoe UI Emoji" font-size="36px" fill="#000000" text-anchor="middle" style="white-space: pre;" direction="ltr" dominant-baseline="text-before-edge">Longhorn </text><text x="82.18798828125" y="45" font-family="Virgil, Segoe UI Emoji" font-size="36px" fill="#000000" text-anchor="middle" style="white-space: pre;" direction="ltr" dominant-baseline="text-before-edge">volume </text><text x="82.18798828125" y="90" font-family="Virgil, Segoe UI Emoji" font-size="36px" fill="#000000" text-anchor="middle" style="white-space: pre;" direction="ltr" dominant-baseline="text-before-edge">1</text></g><g stroke-linecap="round" transform="translate(1025.1882665724984 634.930419921875) rotate(0 126.66668701171864 72.5)"><path d="M32 0 M32 0 C97.75 -3.47, 160.27 -2.45, 221.33 0 M32 0 C103.03 1.43, 172.32 0.95, 221.33 0 M221.33 0 C242.64 1.09, 252.47 11.48, 253.33 32 M221.33 0 C244.07 -1.37, 251.7 11.91, 253.33 32 M253.33 32 C251.83 66.14, 253.59 96.16, 253.33 113 M253.33 32 C252.28 49.19, 252.3 64.84, 253.33 113 M253.33 113 C253.69 132.58, 242.97 144.41, 221.33 145 M253.33 113 C254.68 133.43, 240.7 145.85, 221.33 145 M221.33 145 C180 148.19, 138.58 144.83, 32 145 M221.33 145 C178.24 142.8, 137.69 143.29, 32 145 M32 145 C9.67 143.37, 1.7 132.89, 0 113 M32 145 C10.83 144.53, -1.98 132.1, 0 113 M0 113 C1.61 88.24, 0.83 62.05, 0 32 M0 113 C-0.07 83.36, -0.75 56.17, 0 32 M0 32 C-0.98 9.8, 11.53 1.03, 32 0 M0 32 C-0.01 10.66, 9.01 -1.79, 32 0" stroke="#000000" stroke-width="1" fill="none"></path></g><g transform="translate(1069.6669653029671 639.930419921875) rotate(0 82.18798828125 67.5)"><text x="82.18798828125" y="0" font-family="Virgil, Segoe UI Emoji" font-size="36px" fill="#000000" text-anchor="middle" style="white-space: pre;" direction="ltr" dominant-baseline="text-before-edge">Longhorn </text><text x="82.18798828125" y="45" font-family="Virgil, Segoe UI Emoji" font-size="36px" fill="#000000" text-anchor="middle" style="white-space: pre;" direction="ltr" dominant-baseline="text-before-edge">volume</text><text x="82.18798828125" y="90" font-family="Virgil, Segoe UI Emoji" font-size="36px" fill="#000000" text-anchor="middle" style="white-space: pre;" direction="ltr" dominant-baseline="text-before-edge">2</text></g><g stroke-linecap="round"><g transform="translate(932.139784313384 343.2691101910202) rotate(0 88.26432212119306 0.23705613526584557)"><path d="M-0.07 1.17 C29.42 1, 146.92 -0.23, 176.6 -0.7" stroke="#000000" stroke-width="1.5" fill="none" stroke-dasharray="8 9"></path></g><g transform="translate(932.139784313384 343.2691101910202) rotate(0 88.26432212119306 0.23705613526584557)"><path d="M29.97 -10.17 C20.71 -4.94, 11.48 -3.7, -1.75 0.58" stroke="#000000" stroke-width="1.5" fill="none"></path></g><g transform="translate(932.139784313384 343.2691101910202) rotate(0 88.26432212119306 0.23705613526584557)"><path d="M30.17 10.35 C20.8 10, 11.52 5.67, -1.75 0.58" stroke="#000000" stroke-width="1.5" fill="none"></path></g><g transform="translate(932.139784313384 343.2691101910202) rotate(0 88.26432212119306 0.23705613526584557)"><path d="M150.5 9.12 C156.43 8.63, 162.46 4.12, 174.93 -1.29" stroke="#000000" stroke-width="1.5" fill="none"></path></g><g transform="translate(932.139784313384 343.2691101910202) rotate(0 88.26432212119306 0.23705613526584557)"><path d="M150.24 -11.4 C156.3 -6.31, 162.4 -5.25, 174.93 -1.29" stroke="#000000" stroke-width="1.5" fill="none"></path></g></g><mask></mask><g stroke-linecap="round"><g transform="translate(928.2508276076547 698.0721481268849) rotate(0 40.98047195747495 0.1412010067459164)"><path d="M-1.2 0.29 C12.51 0.1, 68.84 0.29, 83.16 0" stroke="#000000" stroke-width="1.5" fill="none" stroke-dasharray="8 9"></path></g><g transform="translate(928.2508276076547 698.0721481268849) rotate(0 40.98047195747495 0.1412010067459164)"><path d="M27.45 -11.02 C17.86 -4.84, 4.78 -1.21, -0.24 -0.55" stroke="#000000" stroke-width="1.5" fill="none"></path></g><g transform="translate(928.2508276076547 698.0721481268849) rotate(0 40.98047195747495 0.1412010067459164)"><path d="M27.49 9.5 C17.7 7.93, 4.6 3.81, -0.24 -0.55" stroke="#000000" stroke-width="1.5" fill="none"></path></g><g transform="translate(928.2508276076547 698.0721481268849) rotate(0 40.98047195747495 0.1412010067459164)"><path d="M55.52 9.47 C67 8.36, 75.18 4.15, 84.12 -0.84" stroke="#000000" stroke-width="1.5" fill="none"></path></g><g transform="translate(928.2508276076547 698.0721481268849) rotate(0 40.98047195747495 0.1412010067459164)"><path d="M55.37 -11.05 C67.1 -4.41, 75.34 -0.87, 84.12 -0.84" stroke="#000000" stroke-width="1.5" fill="none"></path></g></g><mask></mask><g stroke-linecap="round" transform="translate(648.8065272739959 152.43754831949855) rotate(0 375.6944402058919 147.3958396911621)"><path d="M32 0 M32 0 C243.08 -2.54, 452.82 -1.82, 719.39 0 M719.39 0 C742.13 -1, 752.32 10.97, 751.39 32 M751.39 32 C750.39 83.75, 751 134.81, 751.39 262.79 M751.39 262.79 C750.34 285.15, 741.28 295.61, 719.39 294.79 M719.39 294.79 C538.39 291.68, 357.59 291.29, 32 294.79 M32 294.79 C10.21 294.29, 0.14 282.9, 0 262.79 M0 262.79 C-1.54 184.36, -2.57 107.17, 0 32 M0 32 C-0.94 12.35, 10.98 0.14, 32 0" stroke="#000000" stroke-width="1.5" fill="none" stroke-dasharray="8 9"></path></g><g stroke-linecap="round" transform="translate(644.9175705682667 507.57630157470703) rotate(0 376.1111577351889 147.3958396911621)"><path d="M32 0 M32 0 C301.9 -0.08, 573.21 -1.06, 720.22 0 M720.22 0 C742.87 0.96, 751.38 10.67, 752.22 32 M752.22 32 C753.98 101.94, 752.28 168.61, 752.22 262.79 M752.22 262.79 C753.3 286.1, 740.97 294.03, 720.22 294.79 M720.22 294.79 C557.08 294.7, 393.94 295.48, 32 294.79 M32 294.79 C9.31 296.38, -1.32 284.24, 0 262.79 M0 262.79 C1.22 190.46, 1.05 114.7, 0 32 M0 32 C0.74 8.96, 8.67 1.69, 32 0" stroke="#000000" stroke-width="1.5" fill="none" stroke-dasharray="8 9"></path></g><g transform="translate(785.2648860386445 173.79176584879542) rotate(0 193.19390869140625 45)"><text x="193.19390869140625" y="0" font-family="Virgil, Segoe UI Emoji" font-size="36px" fill="#000000" text-anchor="middle" style="white-space: pre;" direction="ltr" dominant-baseline="text-before-edge">ReadWriteOnce</text><text x="193.19390869140625" y="45" font-family="Virgil, Segoe UI Emoji" font-size="36px" fill="#000000" text-anchor="middle" style="white-space: pre;" direction="ltr" dominant-baseline="text-before-edge">Volume with fixed size</text></g><g transform="translate(779.9870743524465 528.9305191040039) rotate(0 193.19390869140625 45)"><text x="193.19390869140625" y="0" font-family="Virgil, Segoe UI Emoji" font-size="36px" fill="#000000" text-anchor="middle" style="white-space: pre;" direction="ltr" dominant-baseline="text-before-edge">ReadWriteMany</text><text x="193.19390869140625" y="45" font-family="Virgil, Segoe UI Emoji" font-size="36px" fill="#000000" text-anchor="middle" style="white-space: pre;" direction="ltr" dominant-baseline="text-before-edge">Volume with fixed size</text></g><g stroke-linecap="round"><g transform="translate(1428.315379551479 377.2091016556045) rotate(0 72.84813274484901 65.00671929548432)"><path d="M-0.14 1 C24.38 22.61, 122.88 107.11, 147.37 128.51 M-1.67 0.48 C22.71 22.31, 122.04 107.84, 146.64 129.53" stroke="#000000" stroke-width="1" fill="none"></path></g><g transform="translate(1428.315379551479 377.2091016556045) rotate(0 72.84813274484901 65.00671929548432)"><path d="M29.57 12.37 C17.44 7.96, 9.98 3.21, -0.63 -0.37 M28.87 11.51 C21.38 9.84, 14.23 6.23, 0.35 1.91" stroke="#000000" stroke-width="1" fill="none"></path></g><g transform="translate(1428.315379551479 377.2091016556045) rotate(0 72.84813274484901 65.00671929548432)"><path d="M16.15 27.9 C8.45 18.55, 5.27 8.86, -0.63 -0.37 M15.45 27.04 C11.57 21.38, 7.88 13.76, 0.35 1.91" stroke="#000000" stroke-width="1" fill="none"></path></g><g transform="translate(1428.315379551479 377.2091016556045) rotate(0 72.84813274484901 65.00671929548432)"><path d="M120.31 119.47 C125.85 121.95, 136.25 124.04, 146.15 128.17 M119.61 118.61 C126.4 122.56, 133.71 124.48, 147.13 130.45" stroke="#000000" stroke-width="1" fill="none"></path></g><g transform="translate(1428.315379551479 377.2091016556045) rotate(0 72.84813274484901 65.00671929548432)"><path d="M133.78 103.99 C134.88 111.39, 140.98 118.42, 146.15 128.17 M133.09 103.13 C136.26 111.06, 140.09 116.97, 147.13 130.45" stroke="#000000" stroke-width="1" fill="none"></path></g></g><mask></mask><g mask="url(#mask-0SSMnRxn1v_5KzD3_RQ1_)" stroke-linecap="round"><g transform="translate(243.72513907296332 353.3298528956901) rotate(0 194.82676795795555 -0.902095944556919)"><path d="M-0.43 0.25 C64.65 0.02, 325.13 -1.84, 390.08 -2.05 M1.55 -0.67 C66.52 -0.65, 324.77 -0.27, 389.21 -0.66" stroke="#000000" stroke-width="1" fill="none"></path></g><g transform="translate(243.72513907296332 353.3298528956901) rotate(0 194.82676795795555 -0.902095944556919)"><path d="M28.11 -9.94 C19.62 -8.58, 13.75 -3.98, -0.53 -1.25 M26.92 -9.28 C20.51 -8.24, 15.21 -5.28, -0.44 -0.56" stroke="#000000" stroke-width="1" fill="none"></path></g><g transform="translate(243.72513907296332 353.3298528956901) rotate(0 194.82676795795555 -0.902095944556919)"><path d="M28.24 10.58 C19.83 6.43, 13.93 5.51, -0.53 -1.25 M27.05 11.24 C20.68 7.43, 15.36 5.52, -0.44 -0.56" stroke="#000000" stroke-width="1" fill="none"></path></g><g transform="translate(243.72513907296332 353.3298528956901) rotate(0 194.82676795795555 -0.902095944556919)"><path d="M361.45 9.9 C368.2 5.88, 377.46 4.91, 389.1 -2.16 M360.26 10.56 C367.26 6.38, 375.3 4.42, 389.2 -1.47" stroke="#000000" stroke-width="1" fill="none"></path></g><g transform="translate(243.72513907296332 353.3298528956901) rotate(0 194.82676795795555 -0.902095944556919)"><path d="M361.41 -10.62 C368.05 -9.13, 377.32 -4.59, 389.1 -2.16 M360.22 -9.96 C367.15 -9.28, 375.2 -6.38, 389.2 -1.47" stroke="#000000" stroke-width="1" fill="none"></path></g></g><mask id="mask-0SSMnRxn1v_5KzD3_RQ1_"><rect x="0" y="0" fill="#fff" width="733.6557115827288" height="455.1006228377419"></rect><rect x="347.1964601789203" y="329.9444679246642" fill="#000" width="182.98793029785156" height="45" opacity="1"></rect></mask><g transform="translate(347.1964601789203 329.9444679246642) rotate(0 91.35544685199858 22.48328902646901)"><text x="91.49396514892578" y="0" font-family="Virgil, Segoe UI Emoji" font-size="36px" fill="#000000" text-anchor="middle" style="white-space: pre;" direction="ltr" dominant-baseline="text-before-edge">read/write</text></g><g stroke-linecap="round" transform="translate(10 547.5494533720469) rotate(0 106.5 52.5)"><path d="M26.25 0 M26.25 0 C81.62 0.32, 138.08 0.56, 186.75 0 M26.25 0 C84.74 -0.34, 142.7 -0.64, 186.75 0 M186.75 0 C205.47 -0.73, 211.55 8.09, 213 26.25 M186.75 0 C206.41 2.15, 215.19 8.66, 213 26.25 M213 26.25 C214.25 46.8, 212.97 65.24, 213 78.75 M213 26.25 C213.04 39.55, 212.26 51.93, 213 78.75 M213 78.75 C211.55 94.91, 202.4 106.67, 186.75 105 M213 78.75 C214.92 95.72, 202.99 104.09, 186.75 105 M186.75 105 C136.23 106.67, 82.79 105.18, 26.25 105 M186.75 105 C148.56 105.19, 109.99 106.31, 26.25 105 M26.25 105 C8.62 103.93, -1.5 95.71, 0 78.75 M26.25 105 C7.42 104.69, -2.13 94.12, 0 78.75 M0 78.75 C1.1 64.77, 1.42 48.58, 0 26.25 M0 78.75 C-1.21 61.99, -0.13 46.82, 0 26.25 M0 26.25 C-0.08 10.27, 10.21 0.51, 26.25 0 M0 26.25 C-1.73 6.94, 8.88 -1.41, 26.25 0" stroke="#000000" stroke-width="1" fill="none"></path></g><g transform="translate(62.57201385498047 577.5494533720469) rotate(0 53.92798614501953 22.5)"><text x="53.92798614501953" y="0" font-family="Virgil, Segoe UI Emoji" font-size="36px" fill="#000000" text-anchor="middle" style="white-space: pre;" direction="ltr" dominant-baseline="text-before-edge">Pod 2</text></g><g stroke-linecap="round" transform="translate(10.277811686197879 723.5217942737397) rotate(0 106.5 52.5)"><path d="M26.25 0 M26.25 0 C88.32 -1.1, 146.66 -1.02, 186.75 0 M26.25 0 C73.33 0.58, 121.36 -0.23, 186.75 0 M186.75 0 C205.27 0.61, 213.54 7.55, 213 26.25 M186.75 0 C202.02 -2.12, 213.73 9.16, 213 26.25 M213 26.25 C210.93 41.23, 212.04 59.18, 213 78.75 M213 26.25 C212.01 40.34, 213.75 55.07, 213 78.75 M213 78.75 C211.42 95.9, 204.92 104.81, 186.75 105 M213 78.75 C213.53 96.53, 204.6 102.83, 186.75 105 M186.75 105 C134.13 104.47, 78.3 104.61, 26.25 105 M186.75 105 C124.11 104.17, 61.84 104.96, 26.25 105 M26.25 105 C8.21 106.51, -0.43 97.55, 0 78.75 M26.25 105 C9.6 103.63, 1.54 96.58, 0 78.75 M0 78.75 C-1.31 64.56, -0.6 55.1, 0 26.25 M0 78.75 C1.11 61.61, 0.93 44.28, 0 26.25 M0 26.25 C-0.18 9.25, 10.16 0.53, 26.25 0 M0 26.25 C-0.32 8.66, 10.25 -0.4, 26.25 0" stroke="#000000" stroke-width="1" fill="none"></path></g><g transform="translate(63.40782419840491 753.5217942737397) rotate(0 53.36998748779297 22.5)"><text x="53.36998748779297" y="0" font-family="Virgil, Segoe UI Emoji" font-size="36px" fill="#000000" text-anchor="middle" style="white-space: pre;" direction="ltr" dominant-baseline="text-before-edge">Pod 3</text></g><g stroke-linecap="round" transform="translate(16.111145019531364 298.1051784697037) rotate(0 106.5 52.5)"><path d="M26.25 0 M26.25 0 C73.19 0.17, 119.42 -1.24, 186.75 0 M26.25 0 C74.33 0.1, 122.55 -1.29, 186.75 0 M186.75 0 C204.58 1.31, 212.04 9.67, 213 26.25 M186.75 0 C204.27 -1.61, 214.45 8.1, 213 26.25 M213 26.25 C211.74 38.33, 212.45 51.19, 213 78.75 M213 26.25 C212.32 43.79, 212.64 62, 213 78.75 M213 78.75 C213.49 96.96, 206.21 106.8, 186.75 105 M213 78.75 C211.34 97.27, 205.98 105.89, 186.75 105 M186.75 105 C126.84 106.16, 68.12 102.7, 26.25 105 M186.75 105 C140.27 103.44, 91.5 103.86, 26.25 105 M26.25 105 C6.8 106.16, 0.19 94.26, 0 78.75 M26.25 105 C10.53 104.82, -1.2 97.2, 0 78.75 M0 78.75 C1.76 60.44, -1.5 40.65, 0 26.25 M0 78.75 C0.34 60.22, -0.32 39.63, 0 26.25 M0 26.25 C1.97 9.61, 7.67 -1.07, 26.25 0 M0 26.25 C-1.64 10.96, 8.39 1.14, 26.25 0" stroke="#000000" stroke-width="1" fill="none"></path></g><g transform="translate(76.62115478515636 328.1051784697037) rotate(0 45.989990234375 22.5)"><text x="45.989990234375" y="0" font-family="Virgil, Segoe UI Emoji" font-size="36px" fill="#000000" text-anchor="middle" style="white-space: pre;" direction="ltr" dominant-baseline="text-before-edge">Pod 1</text></g><g mask="url(#mask-JAoEhq5NXpIA8GnF0xyKj)" stroke-linecap="round"><g transform="translate(243.33333333333337 611.27463772848) rotate(0 189.84884263333075 30.413091389029148)"><path d="M0.54 -0.56 C63.88 9.35, 316.92 50.03, 380.33 60.14 M-0.64 1.75 C62.49 11.77, 315.74 51.5, 379.27 61.39" stroke="#000000" stroke-width="1" fill="none"></path></g><g transform="translate(243.33333333333337 611.27463772848) rotate(0 189.84884263333075 30.413091389029148)"><path d="M29.06 -6.62 C19.51 -3.46, 9.8 -2.51, 1.93 -2.12 M29.01 -6.64 C19.77 -5.05, 9.84 -2.95, -0.18 -1.54" stroke="#000000" stroke-width="1" fill="none"></path></g><g transform="translate(243.33333333333337 611.27463772848) rotate(0 189.84884263333075 30.413091389029148)"><path d="M25.82 13.64 C17.22 10.17, 8.57 4.5, 1.93 -2.12 M25.77 13.63 C17.79 8.22, 8.97 3.32, -0.18 -1.54" stroke="#000000" stroke-width="1" fill="none"></path></g><g transform="translate(243.33333333333337 611.27463772848) rotate(0 189.84884263333075 30.413091389029148)"><path d="M348.89 66.8 C358.52 65.95, 368.05 63.15, 380.66 59.83 M348.85 66.78 C360.02 64.47, 370.42 62.6, 378.55 60.42" stroke="#000000" stroke-width="1" fill="none"></path></g><g transform="translate(243.33333333333337 611.27463772848) rotate(0 189.84884263333075 30.413091389029148)"><path d="M352.06 46.53 C360.76 52.31, 369.27 56.14, 380.66 59.83 M352.02 46.51 C361.96 51.2, 371.27 56.33, 378.55 60.42" stroke="#000000" stroke-width="1" fill="none"></path></g></g><mask id="mask-JAoEhq5NXpIA8GnF0xyKj"><rect x="0" y="0" fill="#fff" width="723.8888041178383" height="771.9493859015936"></rect><rect x="342.11710357666004" y="619.1120118150368" fill="#000" width="182.98793029785156" height="45" opacity="1"></rect></mask><g transform="translate(342.11710357666004 619.1120118150368) rotate(0 91.06507239000408 22.575717302472356)"><text x="91.49396514892578" y="0" font-family="Virgil, Segoe UI Emoji" font-size="36px" fill="#000000" text-anchor="middle" style="white-space: pre;" direction="ltr" dominant-baseline="text-before-edge">read/write</text></g><g mask="url(#mask-kaJKzNeDqvUZba2mDewOH)" stroke-linecap="round"><g transform="translate(620.4165649414058 730.2853007621893) rotate(0 -187.38258481272655 24.486252754303678)"><path d="M0.48 0.17 C-61.99 8.55, -311.67 41.59, -374.06 49.76 M-0.72 -0.79 C-63.46 7.31, -312.9 40.17, -375.25 48.15" stroke="#000000" stroke-width="1" fill="none"></path></g><g transform="translate(620.4165649414058 730.2853007621893) rotate(0 -187.38258481272655 24.486252754303678)"><path d="M-25.84 13.29 C-14.76 8.42, -5.97 4.58, -0.32 0.94 M-26.84 14.95 C-19.89 11.2, -15.61 8.43, 0.2 -0.59" stroke="#000000" stroke-width="1" fill="none"></path></g><g transform="translate(620.4165649414058 730.2853007621893) rotate(0 -187.38258481272655 24.486252754303678)"><path d="M-28.53 -7.05 C-16.56 -4.53, -6.79 -0.97, -0.32 0.94 M-29.54 -5.39 C-22.15 -5.08, -17.33 -3.76, 0.2 -0.59" stroke="#000000" stroke-width="1" fill="none"></path></g><g transform="translate(620.4165649414058 730.2853007621893) rotate(0 -187.38258481272655 24.486252754303678)"><path d="M-348.34 33.59 C-356.74 39, -367.32 45.24, -376.05 48.93 M-349.35 35.25 C-353.21 37.29, -359.61 40.08, -375.53 47.39" stroke="#000000" stroke-width="1" fill="none"></path></g><g transform="translate(620.4165649414058 730.2853007621893) rotate(0 -187.38258481272655 24.486252754303678)"><path d="M-345.69 53.94 C-354.97 51.96, -366.51 50.79, -376.05 48.93 M-346.7 55.6 C-350.98 53.57, -357.91 52.28, -375.53 47.39" stroke="#000000" stroke-width="1" fill="none"></path></g></g><mask id="mask-kaJKzNeDqvUZba2mDewOH"><rect x="0" y="0" fill="#fff" width="1094.0276082356768" height="879.0758584957885"></rect><rect x="342.1170781453446" y="732.1805796289889" fill="#000" width="182.98793029785156" height="45" opacity="1"></rect></mask><g transform="translate(342.1170781453445 732.1805796289889) rotate(0 90.91690198333467 22.590973887504106)"><text x="91.49396514892578" y="0" font-family="Virgil, Segoe UI Emoji" font-size="36px" fill="#000000" text-anchor="middle" style="white-space: pre;" direction="ltr" dominant-baseline="text-before-edge">read/write</text></g><g stroke-linecap="round"><g transform="translate(1420.4622744605654 718.0966058099259) rotate(0 76.70109533502693 -83.7374145031057)"><path d="M0.33 -1.18 C25.6 -29, 126.81 -138.97, 152.23 -166.65 M-0.95 0.82 C24.61 -27.35, 128.9 -140.53, 154.36 -168.3" stroke="#000000" stroke-width="1" fill="none"></path></g><g transform="translate(1420.4622744605654 718.0966058099259) rotate(0 76.70109533502693 -83.7374145031057)"><path d="M9.87 -30.73 C9.36 -19.95, 4.34 -8.1, 1.52 0.76 M11.82 -29.32 C9.05 -19.98, 4.86 -9.64, 0.59 -2.1" stroke="#000000" stroke-width="1" fill="none"></path></g><g transform="translate(1420.4622744605654 718.0966058099259) rotate(0 76.70109533502693 -83.7374145031057)"><path d="M24.99 -16.86 C19.13 -10.91, 8.79 -3.94, 1.52 0.76 M26.94 -15.45 C19.07 -10.56, 9.9 -4.79, 0.59 -2.1" stroke="#000000" stroke-width="1" fill="none"></path></g><g transform="translate(1420.4622744605654 718.0966058099259) rotate(0 76.70109533502693 -83.7374145031057)"><path d="M140.87 -142.44 C148.34 -151.22, 151.42 -158.86, 155.54 -166.36 M142.82 -141.03 C147.14 -150.13, 150.54 -158.04, 154.62 -169.22" stroke="#000000" stroke-width="1" fill="none"></path></g><g transform="translate(1420.4622744605654 718.0966058099259) rotate(0 76.70109533502693 -83.7374145031057)"><path d="M125.76 -156.33 C138.58 -160.26, 146.97 -163.02, 155.54 -166.36 M127.72 -154.92 C137.14 -159.56, 145.51 -162.89, 154.62 -169.22" stroke="#000000" stroke-width="1" fill="none"></path></g></g><mask></mask><g stroke-linecap="round"><g transform="translate(1813.5198164440335 480.8387745115491) rotate(0 65.61865829146313 -42.330473838399826)"><path d="M0.31 -1.17 C22.54 -15.24, 110.26 -71.45, 132.22 -85.5 M-0.98 0.84 C21.27 -13, 109.67 -70.11, 131.79 -84.32" stroke="#000000" stroke-width="1" fill="none"></path></g><g transform="translate(1813.5198164440335 480.8387745115491) rotate(0 65.61865829146313 -42.330473838399826)"><path d="M16.6 -23.34 C13.42 -18.62, 9.74 -14.72, 0.47 -2.72 M18.3 -24.53 C13.07 -17.86, 9.67 -12.47, 0.16 -0.45" stroke="#000000" stroke-width="1" fill="none"></path></g><g transform="translate(1813.5198164440335 480.8387745115491) rotate(0 65.61865829146313 -42.330473838399826)"><path d="M27.65 -6.05 C22.34 -4.86, 16.38 -4.54, 0.47 -2.72 M29.35 -7.23 C21.08 -5.17, 14.77 -4.34, 0.16 -0.45" stroke="#000000" stroke-width="1" fill="none"></path></g><g transform="translate(1813.5198164440335 480.8387745115491) rotate(0 65.61865829146313 -42.330473838399826)"><path d="M111.7 -58.78 C116.45 -63.99, 120.27 -69.95, 131.94 -85.87 M113.4 -59.96 C117.44 -65.77, 123.64 -72.97, 131.63 -83.61" stroke="#000000" stroke-width="1" fill="none"></path></g><g transform="translate(1813.5198164440335 480.8387745115491) rotate(0 65.61865829146313 -42.330473838399826)"><path d="M100.59 -76.03 C107.47 -77.72, 113.59 -80.11, 131.94 -85.87 M102.29 -77.22 C109.38 -78.43, 118.51 -81.07, 131.63 -83.61" stroke="#000000" stroke-width="1" fill="none"></path></g></g><mask></mask><g stroke-linecap="round"><g transform="translate(1810.9754463232816 445.5760083677094) rotate(0 66.06149007686804 -81.25415824827257)"><path d="M-0.41 -1.15 C21.75 -28.38, 110.66 -136.54, 132.54 -163.37 M1.57 0.86 C23.69 -26.24, 110.14 -134.77, 132.11 -162.29" stroke="#000000" stroke-width="1" fill="none"></path></g><g transform="translate(1810.9754463232816 445.5760083677094) rotate(0 66.06149007686804 -81.25415824827257)"><path d="M7.61 -27.81 C5.43 -23.18, 4.86 -16.32, 1.04 0.15 M10.18 -29.42 C6.68 -21.73, 5.54 -15.5, -0.27 -0.74" stroke="#000000" stroke-width="1" fill="none"></path></g><g transform="translate(1810.9754463232816 445.5760083677094) rotate(0 66.06149007686804 -81.25415824827257)"><path d="M23.48 -14.8 C17.09 -13.68, 12.3 -10.28, 1.04 0.15 M26.05 -16.41 C18.8 -11.7, 13.88 -8.57, -0.27 -0.74" stroke="#000000" stroke-width="1" fill="none"></path></g><g transform="translate(1810.9754463232816 445.5760083677094) rotate(0 66.06149007686804 -81.25415824827257)"><path d="M120.63 -132.2 C123.64 -142.58, 128.25 -150.79, 133.56 -160.99 M123.21 -133.81 C124.47 -139.77, 127.97 -147.05, 132.25 -161.88" stroke="#000000" stroke-width="1" fill="none"></path></g><g transform="translate(1810.9754463232816 445.5760083677094) rotate(0 66.06149007686804 -81.25415824827257)"><path d="M104.59 -145 C111.86 -151.92, 120.73 -156.74, 133.56 -160.99 M107.16 -146.61 C112.22 -149.63, 119.54 -153.87, 132.25 -161.88" stroke="#000000" stroke-width="1" fill="none"></path></g></g><mask></mask><g stroke-linecap="round"><g transform="translate(1821.793939201883 618.8018052343092) rotate(0 66.94134426376218 38.33311961227895)"><path d="M-0.27 -0.99 C22.28 11.87, 111.71 64.83, 134.15 77.66 M1.79 1.1 C24.26 13.56, 111.1 63.25, 133.08 75.86" stroke="#000000" stroke-width="1" fill="none"></path></g><g transform="translate(1821.793939201883 618.8018052343092) rotate(0 66.94134426376218 38.33311961227895)"><path d="M27.59 4.01 C24.22 3.27, 15.41 1.66, -1.68 -0.69 M29.33 4.7 C18.96 1.98, 7.65 -0.03, 0.11 -1.2" stroke="#000000" stroke-width="1" fill="none"></path></g><g transform="translate(1821.793939201883 618.8018052343092) rotate(0 66.94134426376218 38.33311961227895)"><path d="M17.21 21.72 C15.89 17.39, 9.2 12.16, -1.68 -0.69 M18.96 22.41 C12.51 13.18, 5.01 4.66, 0.11 -1.2" stroke="#000000" stroke-width="1" fill="none"></path></g><g transform="translate(1821.793939201883 618.8018052343092) rotate(0 66.94134426376218 38.33311961227895)"><path d="M101.87 70.36 C110.6 71.9, 113.84 72.43, 131.68 76.16 M103.61 71.05 C114.91 72.25, 125.32 74.11, 133.46 75.65" stroke="#000000" stroke-width="1" fill="none"></path></g><g transform="translate(1821.793939201883 618.8018052343092) rotate(0 66.94134426376218 38.33311961227895)"><path d="M112.06 52.55 C118.79 57.7, 119.95 61.86, 131.68 76.16 M113.81 53.24 C121.25 60.98, 127.91 69.39, 133.46 75.65" stroke="#000000" stroke-width="1" fill="none"></path></g></g><mask></mask><g stroke-linecap="round"><g transform="translate(1795.9048964635087 624.8290056501105) rotate(0 77.47183627313177 86.74941786710161)"><path d="M-0.27 -0.38 C25.79 28.66, 129.36 144.94, 155.21 173.96 M1.8 -1.62 C27.89 27.58, 129.44 145.76, 154.88 175.12" stroke="#000000" stroke-width="1" fill="none"></path></g><g transform="translate(1795.9048964635087 624.8290056501105) rotate(0 77.47183627313177 86.74941786710161)"><path d="M25.52 15.79 C19.52 12.12, 13.66 9.54, -1.42 1.57 M25.91 14.66 C18.42 10.42, 10.77 5.16, 0.36 -0.78" stroke="#000000" stroke-width="1" fill="none"></path></g><g transform="translate(1795.9048964635087 624.8290056501105) rotate(0 77.47183627313177 86.74941786710161)"><path d="M10.21 29.45 C7.42 22.98, 4.74 17.55, -1.42 1.57 M10.59 28.32 C7.8 19.94, 4.73 10.6, 0.36 -0.78" stroke="#000000" stroke-width="1" fill="none"></path></g><g transform="translate(1795.9048964635087 624.8290056501105) rotate(0 77.47183627313177 86.74941786710161)"><path d="M128.06 162.45 C132.92 164.89, 138 168.3, 153.73 177.08 M128.44 161.32 C136.48 165.55, 144.57 168.92, 155.5 174.73" stroke="#000000" stroke-width="1" fill="none"></path></g><g transform="translate(1795.9048964635087 624.8290056501105) rotate(0 77.47183627313177 86.74941786710161)"><path d="M143.6 149.04 C145.2 154.24, 147.04 160.43, 153.73 177.08 M143.98 147.91 C147.26 156.2, 150.7 163.59, 155.5 174.73" stroke="#000000" stroke-width="1" fill="none"></path></g></g><mask></mask><g stroke-linecap="round" transform="translate(1970.3061843145456 643.3569524855841) rotate(0 88.02085876464844 52.34375)"><path d="M26.17 0 M26.17 0 C66.53 1.53, 108.32 -1.29, 149.87 0 M26.17 0 C71.54 -0.4, 117.04 0.07, 149.87 0 M149.87 0 C165.96 1.63, 175.99 9.24, 176.04 26.17 M149.87 0 C166.4 -0.34, 177.28 9.42, 176.04 26.17 M176.04 26.17 C175.53 37.56, 177.83 49.94, 176.04 78.52 M176.04 26.17 C177.19 41.87, 175.7 57.26, 176.04 78.52 M176.04 78.52 C176.6 95.74, 166.09 104.65, 149.87 104.69 M176.04 78.52 C175.29 98.06, 165.23 102.94, 149.87 104.69 M149.87 104.69 C108.96 103.33, 69.39 106.31, 26.17 104.69 M149.87 104.69 C106.88 104.52, 64.49 104.66, 26.17 104.69 M26.17 104.69 C10.06 102.85, -0.46 95.72, 0 78.52 M26.17 104.69 C10.76 106.35, -0.55 97.94, 0 78.52 M0 78.52 C-1.75 67.27, -1.56 52.33, 0 26.17 M0 78.52 C-0.71 57.63, 0.6 37.66, 0 26.17 M0 26.17 C1 9.66, 9.26 1.19, 26.17 0 M0 26.17 C-1.01 7.51, 8.98 -0.43, 26.17 0" stroke="#000000" stroke-width="1" fill="none"></path></g><g transform="translate(1997.685082935151 650.7007024855841) rotate(0 60.64196014404297 45)"><text x="60.64196014404297" y="0" font-family="Virgil, Segoe UI Emoji" font-size="36px" fill="#000000" text-anchor="middle" style="white-space: pre;" direction="ltr" dominant-baseline="text-before-edge">Replica</text><text x="60.64196014404297" y="45" font-family="Virgil, Segoe UI Emoji" font-size="36px" fill="#000000" text-anchor="middle" style="white-space: pre;" direction="ltr" dominant-baseline="text-before-edge">2-1</text></g><g stroke-linecap="round" transform="translate(1969.2945789155503 782.3451131184897) rotate(0 88.02085876464844 52.34375)"><path d="M26.17 0 M26.17 0 C56.16 -0.22, 84.06 0.05, 149.87 0 M26.17 0 C75.87 0.6, 124.19 1.52, 149.87 0 M149.87 0 C165.78 -1.63, 176.22 7.85, 176.04 26.17 M149.87 0 C166.91 -0.37, 174.96 9.31, 176.04 26.17 M176.04 26.17 C177.6 41.34, 176.83 56.27, 176.04 78.52 M176.04 26.17 C176.73 44.73, 176.02 65.31, 176.04 78.52 M176.04 78.52 C177.5 95.88, 166.7 106.58, 149.87 104.69 M176.04 78.52 C173.95 96.37, 166.35 103.23, 149.87 104.69 M149.87 104.69 C115.93 105.01, 83.84 104.62, 26.17 104.69 M149.87 104.69 C107.34 104.82, 64.04 104.16, 26.17 104.69 M26.17 104.69 C7.43 105.47, -2 96.13, 0 78.52 M26.17 104.69 C8.15 103.76, 1.43 96.7, 0 78.52 M0 78.52 C1.24 58.26, -0.1 39.15, 0 26.17 M0 78.52 C0.49 66.64, -1.1 54.57, 0 26.17 M0 26.17 C0.17 10.4, 8.32 -1.37, 26.17 0 M0 26.17 C-1.6 9.9, 10.59 -0.77, 26.17 0" stroke="#000000" stroke-width="1" fill="none"></path></g><g transform="translate(1996.6734775361558 789.6888631184897) rotate(0 60.64196014404297 45)"><text x="60.64196014404297" y="0" font-family="Virgil, Segoe UI Emoji" font-size="36px" fill="#000000" text-anchor="middle" style="white-space: pre;" direction="ltr" dominant-baseline="text-before-edge">Replica</text><text x="60.64196014404297" y="45" font-family="Virgil, Segoe UI Emoji" font-size="36px" fill="#000000" text-anchor="middle" style="white-space: pre;" direction="ltr" dominant-baseline="text-before-edge">2-2</text></g><g stroke-linecap="round" transform="translate(1950.5643252418154 320.85709562755795) rotate(0 88.02085876464844 52.34375000000003)"><path d="M26.17 0 M26.17 0 C70.33 -1.03, 118.93 1.25, 149.87 0 M26.17 0 C58.62 -1.86, 91.69 -0.94, 149.87 0 M149.87 0 C165.75 1.86, 176.53 7.76, 176.04 26.17 M149.87 0 C165.42 1.34, 177.62 9.42, 176.04 26.17 M176.04 26.17 C177.09 45.25, 175.01 67.42, 176.04 78.52 M176.04 26.17 C177.17 44.03, 175.91 64.31, 176.04 78.52 M176.04 78.52 C176.47 97.59, 165.54 104.96, 149.87 104.69 M176.04 78.52 C174.66 94.3, 168.46 102.74, 149.87 104.69 M149.87 104.69 C113.3 107.18, 78.82 106.99, 26.17 104.69 M149.87 104.69 C102.66 104.29, 54.38 103.79, 26.17 104.69 M26.17 104.69 C9.02 105.47, 0.78 95.73, 0 78.52 M26.17 104.69 C9.9 106.28, 1.91 94.33, 0 78.52 M0 78.52 C0.42 59.52, -0.23 44.84, 0 26.17 M0 78.52 C0.47 58.37, 0.16 40.75, 0 26.17 M0 26.17 C1.69 9.45, 7.03 -0.16, 26.17 0 M0 26.17 C2.01 7.34, 7.46 -0.87, 26.17 0" stroke="#000000" stroke-width="1" fill="none"></path></g><g transform="translate(1968.9432238624208 328.20084562755795) rotate(0 69.64196014404297 45.00000000000003)"><text x="69.64196014404297" y="0" font-family="Virgil, Segoe UI Emoji" font-size="36px" fill="#000000" text-anchor="middle" style="white-space: pre;" direction="ltr" dominant-baseline="text-before-edge">Replica </text><text x="69.64196014404297" y="45" font-family="Virgil, Segoe UI Emoji" font-size="36px" fill="#000000" text-anchor="middle" style="white-space: pre;" direction="ltr" dominant-baseline="text-before-edge">1-2</text></g><g stroke-linecap="round" transform="translate(1951.675388881138 186.69041878836526) rotate(0 88.02085876464844 52.34375)"><path d="M26.17 0 M26.17 0 C63.54 -2.74, 99.3 0.7, 149.87 0 M26.17 0 C55.27 0.17, 85.74 0.79, 149.87 0 M149.87 0 C166.92 -1.87, 176.37 8.16, 176.04 26.17 M149.87 0 C165.8 -0.91, 178.06 10.72, 176.04 26.17 M176.04 26.17 C176.25 40.43, 176.87 52.26, 176.04 78.52 M176.04 26.17 C176.15 37.82, 176.34 50.72, 176.04 78.52 M176.04 78.52 C177.61 97.91, 168.31 105.83, 149.87 104.69 M176.04 78.52 C175.77 95.13, 165.41 104.99, 149.87 104.69 M149.87 104.69 C106.43 104.06, 65.87 101.95, 26.17 104.69 M149.87 104.69 C122.24 106.03, 95.41 105.4, 26.17 104.69 M26.17 104.69 C9.46 104.4, 1.22 96.37, 0 78.52 M26.17 104.69 C8.03 104.97, 1.65 96.34, 0 78.52 M0 78.52 C-1.39 67.57, -0.3 57.59, 0 26.17 M0 78.52 C-0.79 62.85, -0.89 46.52, 0 26.17 M0 26.17 C-1.28 7.62, 10.72 -1.21, 26.17 0 M0 26.17 C-2.25 8.25, 7.73 1.44, 26.17 0" stroke="#000000" stroke-width="1" fill="none"></path></g><g transform="translate(1979.0542875017434 194.03416878836526) rotate(0 60.64196014404297 45)"><text x="60.64196014404297" y="0" font-family="Virgil, Segoe UI Emoji" font-size="36px" fill="#000000" text-anchor="middle" style="white-space: pre;" direction="ltr" dominant-baseline="text-before-edge">Replica</text><text x="60.64196014404297" y="45" font-family="Virgil, Segoe UI Emoji" font-size="36px" fill="#000000" text-anchor="middle" style="white-space: pre;" direction="ltr" dominant-baseline="text-before-edge">1-1</text></g><g stroke-linecap="round" transform="translate(2357.5722409202936 548.6427005586171) rotate(0 161 177.5)"><path d="M32 0 M32 0 C118.31 -1.86, 202.72 0.04, 290 0 M32 0 C115.22 0.18, 199.45 -0.71, 290 0 M290 0 C311.5 -0.49, 322.81 9.06, 322 32 M290 0 C310.47 -0.89, 322.35 12.79, 322 32 M322 32 C323.73 114.86, 325.1 196.16, 322 323 M322 32 C322.96 128.61, 323.11 225.96, 322 323 M322 323 C320.87 343.63, 311.9 355.62, 290 355 M322 323 C322.06 346.28, 312.8 356.52, 290 355 M290 355 C216 357.86, 139.39 358.08, 32 355 M290 355 C230.51 356.63, 172.65 357.01, 32 355 M32 355 C11.92 356.64, -1.2 346.28, 0 323 M32 355 C11.07 353.05, -1.67 345.31, 0 323 M0 323 C-0.98 255.7, -1.5 189.95, 0 32 M0 323 C1.13 231.14, 0.27 140.27, 0 32 M0 32 C-0.8 10.03, 11.63 -0.78, 32 0 M0 32 C1.15 8.39, 8.73 1.89, 32 0" stroke="#000000" stroke-width="1" fill="none"></path></g><g transform="translate(2455.104261489141 703.6427005586171) rotate(0 63.467979431152344 22.5)"><text x="63.467979431152344" y="0" font-family="Virgil, Segoe UI Emoji" font-size="36px" fill="#000000" text-anchor="middle" style="white-space: pre;" direction="ltr" dominant-baseline="text-before-edge">Node 2</text></g><g stroke-linecap="round" transform="translate(2358.544530959356 149.61499059767954) rotate(0 161 177.49999999999997)"><path d="M32 0 M32 0 C131.14 1.42, 228.47 0.67, 290 0 M32 0 C103.48 2.22, 172.93 2.08, 290 0 M290 0 C310.79 -0.63, 323.4 11.39, 322 32 M290 0 C312.92 -1.46, 321.45 9.55, 322 32 M322 32 C324.59 143.53, 323.77 254.94, 322 323 M322 32 C321.43 97.31, 321.31 161.28, 322 323 M322 323 C322.92 344.6, 313.05 354.33, 290 355 M322 323 C320.63 344.66, 310.24 352.81, 290 355 M290 355 C216.08 355.58, 140.34 355.25, 32 355 M290 355 C220.33 354.91, 149.47 354.09, 32 355 M32 355 C11.02 355.05, -0.95 346.02, 0 323 M32 355 C8.81 353.92, 1.79 345.31, 0 323 M0 323 C-0.85 248.42, -1.13 171.71, 0 32 M0 323 C-0.65 244.72, -1.61 166.93, 0 32 M0 32 C1.54 10.48, 12.05 0.26, 32 0 M0 32 C-2.13 9.55, 11.84 -1.29, 32 0" stroke="#000000" stroke-width="1" fill="none"></path></g><g transform="translate(2464.0145474388482 304.61499059767954) rotate(0 55.52998352050781 22.5)"><text x="55.52998352050781" y="0" font-family="Virgil, Segoe UI Emoji" font-size="36px" fill="#000000" text-anchor="middle" style="white-space: pre;" direction="ltr" dominant-baseline="text-before-edge">Node 1</text></g><g stroke-linecap="round"><g transform="translate(2162.7944699242 688.9204817272368) rotate(0 88.8951984405719 -135.78944137419256)"><path d="M0.71 -0.31 C30.37 -45.58, 148.56 -226.16, 178.17 -271.27 M-0.38 -1.52 C29.08 -46.66, 147.42 -225.26, 177.07 -269.96" stroke="#000000" stroke-width="1" fill="none"></path></g><g transform="translate(2162.7944699242 688.9204817272368) rotate(0 88.8951984405719 -135.78944137419256)"><path d="M7.05 -30.02 C4.75 -20.39, 3.1 -9.58, 1.6 1.21 M6.73 -28.58 C4.46 -18.92, 2.88 -9.11, -0.2 0.63" stroke="#000000" stroke-width="1" fill="none"></path></g><g transform="translate(2162.7944699242 688.9204817272368) rotate(0 88.8951984405719 -135.78944137419256)"><path d="M24.22 -18.77 C16.43 -12.62, 9.33 -5.38, 1.6 1.21 M23.9 -17.33 C15.59 -11.65, 7.93 -5.82, -0.2 0.63" stroke="#000000" stroke-width="1" fill="none"></path></g><g transform="translate(2162.7944699242 688.9204817272368) rotate(0 88.8951984405719 -135.78944137419256)"><path d="M169.53 -241.29 C171.46 -250.29, 174.21 -258.01, 177.96 -268.44 M169.21 -239.85 C172.08 -250.89, 175.41 -261.76, 176.16 -269.01" stroke="#000000" stroke-width="1" fill="none"></path></g><g transform="translate(2162.7944699242 688.9204817272368) rotate(0 88.8951984405719 -135.78944137419256)"><path d="M152.42 -252.63 C159.82 -258.13, 168.01 -262.25, 177.96 -268.44 M152.11 -251.19 C160.99 -258.23, 170.38 -265.08, 176.16 -269.01" stroke="#000000" stroke-width="1" fill="none"></path></g></g><mask></mask><g stroke-linecap="round"><g transform="translate(2164.8778032575333 820.864858354841) rotate(0 89.88215947076685 -37.66393275960809)"><path d="M-1.14 0.38 C28.84 -11.86, 150.7 -61.57, 180.91 -74.07 M0.46 -0.46 C30.28 -12.97, 150.68 -62.99, 180.51 -75.71" stroke="#000000" stroke-width="1" fill="none"></path></g><g transform="translate(2164.8778032575333 820.864858354841) rotate(0 89.88215947076685 -37.66393275960809)"><path d="M21.71 -18.04 C13.94 -11.88, 4.47 -2.84, -1.47 1.01 M21.92 -20.23 C12.93 -12.44, 3.85 -3.2, -2.09 0.76" stroke="#000000" stroke-width="1" fill="none"></path></g><g transform="translate(2164.8778032575333 820.864858354841) rotate(0 89.88215947076685 -37.66393275960809)"><path d="M29.47 0.96 C18.81 -0.28, 6.34 1.42, -1.47 1.01 M29.68 -1.24 C17.72 -0.95, 5.59 0.85, -2.09 0.76" stroke="#000000" stroke-width="1" fill="none"></path></g><g transform="translate(2164.8778032575333 820.864858354841) rotate(0 89.88215947076685 -37.66393275960809)"><path d="M159.13 -53.59 C168.63 -62.65, 176.22 -69.25, 180.18 -75.08 M159.33 -55.79 C167.82 -63.51, 176.06 -70.16, 179.56 -75.33" stroke="#000000" stroke-width="1" fill="none"></path></g><g transform="translate(2164.8778032575333 820.864858354841) rotate(0 89.88215947076685 -37.66393275960809)"><path d="M151.18 -72.51 C163.65 -74.19, 174.3 -73.5, 180.18 -75.08 M151.38 -74.71 C162.92 -74.95, 174.28 -74.18, 179.56 -75.33" stroke="#000000" stroke-width="1" fill="none"></path></g></g><mask></mask><g stroke-linecap="round"><g transform="translate(2137.7944699242 225.03157588413802) rotate(0 104.49006892161594 33.86962328543734)"><path d="M-0.83 1.15 C33.63 12.41, 172.82 55.93, 207.52 67.03 M0.94 0.71 C35.71 11.65, 175 54.22, 209.81 65.1" stroke="#000000" stroke-width="1" fill="none"></path></g><g transform="translate(2137.7944699242 225.03157588413802) rotate(0 104.49006892161594 33.86962328543734)"><path d="M31.07 -1.49 C18.77 -1.48, 8.99 1.48, 0.11 -0.3 M29.3 -0.33 C18.09 0.5, 8.03 1.01, -0.8 0.84" stroke="#000000" stroke-width="1" fill="none"></path></g><g transform="translate(2137.7944699242 225.03157588413802) rotate(0 104.49006892161594 33.86962328543734)"><path d="M24.88 18.08 C14.94 10.97, 7.42 6.77, 0.11 -0.3 M23.11 19.24 C13.98 13.35, 6.06 7.11, -0.8 0.84" stroke="#000000" stroke-width="1" fill="none"></path></g><g transform="translate(2137.7944699242 225.03157588413802) rotate(0 104.49006892161594 33.86962328543734)"><path d="M181.76 65.23 C191.42 64.63, 203.58 66.58, 210.74 63.64 M179.99 66.39 C189.47 66.67, 200.1 66.23, 209.83 64.78" stroke="#000000" stroke-width="1" fill="none"></path></g><g transform="translate(2137.7944699242 225.03157588413802) rotate(0 104.49006892161594 33.86962328543734)"><path d="M187.82 45.62 C195.17 52.16, 205.11 61.29, 210.74 63.64 M186.04 46.78 C193.49 53.79, 202.03 60.12, 209.83 64.78" stroke="#000000" stroke-width="1" fill="none"></path></g></g><mask></mask><g stroke-linecap="round"><g transform="translate(2143.3499915713355 368.781575884138) rotate(0 98.13675729530075 139.28809482505852)"><path d="M-0.74 0.8 C31.83 47.1, 162.12 231.07, 194.83 277.42 M1.07 0.17 C34.05 46.62, 164.77 232.31, 197.02 278.4" stroke="#000000" stroke-width="1" fill="none"></path></g><g transform="translate(2143.3499915713355 368.781575884138) rotate(0 98.13675729530075 139.28809482505852)"><path d="M25.24 16.23 C16.01 12.92, 12.25 7.84, -1.53 -0.59 M23 18.53 C17.74 12.86, 10.57 8.13, -0.2 1.4" stroke="#000000" stroke-width="1" fill="none"></path></g><g transform="translate(2143.3499915713355 368.781575884138) rotate(0 98.13675729530075 139.28809482505852)"><path d="M8.49 28.07 C3.5 21.89, 3.94 13.84, -1.53 -0.59 M6.25 30.37 C5.32 21.75, 2.45 13.98, -0.2 1.4" stroke="#000000" stroke-width="1" fill="none"></path></g><g transform="translate(2143.3499915713355 368.781575884138) rotate(0 98.13675729530075 139.28809482505852)"><path d="M173.75 259.56 C176.79 265.16, 185.39 268.69, 196.23 277.01 M171.51 261.86 C178.8 265.24, 184.27 269.31, 197.56 279" stroke="#000000" stroke-width="1" fill="none"></path></g><g transform="translate(2143.3499915713355 368.781575884138) rotate(0 98.13675729530075 139.28809482505852)"><path d="M190.55 247.77 C189.33 256.23, 193.72 262.71, 196.23 277.01 M188.31 250.07 C191.25 256.39, 192.4 263.49, 197.56 279" stroke="#000000" stroke-width="1" fill="none"></path></g></g><mask></mask><g stroke-linecap="round"><g transform="translate(1333.1447519973867 428.73659516202406) rotate(0 -0.227347131270335 247.13248657229633)"><path d="M-0.81 0.86 C-0.92 83.03, -1.7 410.65, -1.49 492.85 M0.97 0.27 C1.29 82.59, 0.78 412.05, 0.63 494" stroke="#000000" stroke-width="1" fill="none"></path></g><g transform="translate(1333.1447519973867 428.73659516202406) rotate(0 -0.227347131270335 247.13248657229633)"><path d="M10.84 27.2 C5.87 23.89, 5.56 16.78, -2.69 -0.18 M8.84 29.68 C4.68 18.61, 1.65 7.31, -1.29 0.59" stroke="#000000" stroke-width="1" fill="none"></path></g><g transform="translate(1333.1447519973867 428.73659516202406) rotate(0 -0.227347131270335 247.13248657229633)"><path d="M-9.69 27.16 C-9.95 24, -5.56 16.9, -2.69 -0.18 M-11.68 29.65 C-8.11 18.71, -3.41 7.42, -1.29 0.59" stroke="#000000" stroke-width="1" fill="none"></path></g></g><mask></mask><g stroke-linecap="round"><g transform="translate(1206.5682336737887 795.8047524430974) rotate(0 0.5602658242485745 61.08398253751636)"><path d="M-0.69 -0.47 C-0.31 20.06, 1.73 102.25, 1.81 122.92 M1.15 -1.76 C1.5 18.9, 1.23 102.86, 1.41 123.93" stroke="#000000" stroke-width="1" fill="none"></path></g><g transform="translate(1206.5682336737887 795.8047524430974) rotate(0 0.5602658242485745 61.08398253751636)"><path d="M9.4 29.21 C5.72 18.48, 3.91 14.67, -2.56 -1.83 M10.63 27.25 C7.48 18.56, 3.59 10.97, -0.66 0.18" stroke="#000000" stroke-width="1" fill="none"></path></g><g transform="translate(1206.5682336737887 795.8047524430974) rotate(0 0.5602658242485745 61.08398253751636)"><path d="M-11.12 29.66 C-9.4 18.93, -5.82 15, -2.56 -1.83 M-9.89 27.7 C-6.83 19.01, -4.51 11.29, -0.66 0.18" stroke="#000000" stroke-width="1" fill="none"></path></g></g><mask></mask><g stroke-linecap="round" transform="translate(1158.7121809702073 1142.127342841441) rotate(0 129 50)"><path d="M25 0 M25 0 C68.66 -0.95, 113.91 -0.01, 233 0 M25 0 C103.65 1.12, 183.66 0.29, 233 0 M233 0 C251.43 -1.07, 257.15 8.4, 258 25 M233 0 C251.45 -1.03, 259.71 6.24, 258 25 M258 25 C257.29 35.99, 257.94 43.78, 258 75 M258 25 C258.16 41.82, 257.38 59.21, 258 75 M258 75 C256.86 93.39, 249.94 100.68, 233 100 M258 75 C259.16 93.19, 247.42 100.36, 233 100 M233 100 C166.23 101.41, 97.66 100.97, 25 100 M233 100 C187.45 100.38, 141.28 100.13, 25 100 M25 100 C9.71 98.51, -1.14 90.24, 0 75 M25 100 C7.04 98.7, -2.27 89.8, 0 75 M0 75 C1.38 56.81, 1.81 42.82, 0 25 M0 75 C0.25 63.72, -0.78 53.39, 0 25 M0 25 C1.2 6.38, 6.33 0.51, 25 0 M0 25 C-1.71 8.83, 8.52 1.09, 25 0" stroke="#000000" stroke-width="1" fill="none"></path></g><g transform="translate(1182.8621977548753 1169.627342841441) rotate(0 104.84998321533203 22.5)"><text x="104.84998321533203" y="0" font-family="Virgil, Segoe UI Emoji" font-size="36px" fill="#000000" text-anchor="middle" style="white-space: pre;" direction="ltr" dominant-baseline="text-before-edge">Longhorn UI</text></g><g transform="translate(1188.9094712999135 935.3773297624791) rotate(0 123.89368438720703 42.333010248926826)"><text x="123.89368438720703" y="0" font-family="Virgil, Segoe UI Emoji" font-size="33.866408199141425px" fill="#000000" text-anchor="middle" style="white-space: pre;" direction="ltr" dominant-baseline="text-before-edge">create</text><text x="123.89368438720703" y="42.33301024892678" font-family="Virgil, Segoe UI Emoji" font-size="33.866408199141425px" fill="#000000" text-anchor="middle" style="white-space: pre;" direction="ltr" dominant-baseline="text-before-edge">longhorn volume</text></g><g stroke-linecap="round"><g transform="translate(1207.8196114414784 1036.592666879992) rotate(0 0.0016978967891532193 39.714193495487166)"><path d="M1.03 -0.52 C0.82 12.88, -1.05 66.72, -1.15 79.94 M0.11 1.83 C0.27 14.94, 1.17 65.29, 1.16 78.32" stroke="#000000" stroke-width="1" fill="none"></path></g></g><mask></mask><g stroke-linecap="round"><g transform="translate(1334.6151849908786 1031.2106885271276) rotate(0 -0.459685507827146 45.843870239512285)"><path d="M-1.14 -0.55 C-1.1 14.71, -0.4 75.62, -0.14 90.79 M0.46 1.78 C0.33 17.29, -1.25 77.28, -1.38 92.23" stroke="#000000" stroke-width="1" fill="none"></path></g></g><mask></mask><g stroke-linecap="round"><g transform="translate(1705.1489926700503 629.7798411907686) rotate(0 -1.8469153726475724 132.59233665096951)"><path d="M0.4 -1.18 C-0.14 42.81, -2.85 220.28, -3.43 264.77 M-0.84 0.82 C-1.48 44.94, -3.67 222.51, -4.1 266.36" stroke="#000000" stroke-width="1" fill="none"></path></g><g transform="translate(1705.1489926700503 629.7798411907686) rotate(0 -1.8469153726475724 132.59233665096951)"><path d="M8.29 28.06 C7.43 20.63, 6.26 10.45, 2.28 -1.21 M10.47 27.71 C7.96 20.76, 6.42 13.93, 1.34 -0.86" stroke="#000000" stroke-width="1" fill="none"></path></g><g transform="translate(1705.1489926700503 629.7798411907686) rotate(0 -1.8469153726475724 132.59233665096951)"><path d="M-12.23 27.76 C-7.26 20.35, -2.62 10.25, 2.28 -1.21 M-10.05 27.41 C-7.66 20.68, -4.29 13.93, 1.34 -0.86" stroke="#000000" stroke-width="1" fill="none"></path></g><g transform="translate(1705.1489926700503 629.7798411907686) rotate(0 -1.8469153726475724 132.59233665096951)"><path d="M-16 238.96 C-10.84 247.52, -6.4 253.41, -2.22 266.34 M-13.82 238.61 C-11.57 245.33, -8.38 252.04, -3.16 266.68" stroke="#000000" stroke-width="1" fill="none"></path></g><g transform="translate(1705.1489926700503 629.7798411907686) rotate(0 -1.8469153726475724 132.59233665096951)"><path d="M4.52 239.19 C3.86 247.76, 2.48 253.57, -2.22 266.34 M6.7 238.84 C4.05 245.36, 2.34 252, -3.16 266.68" stroke="#000000" stroke-width="1" fill="none"></path></g></g><mask></mask><g stroke-linecap="round" transform="translate(1517.9442104763457 919.8337027047226) rotate(0 177.5 72.5)"><path d="M32 0 M32 0 C122.26 -0.13, 210.45 0.5, 323 0 M32 0 C139.75 -0.27, 248.13 -0.31, 323 0 M323 0 C344.63 -1.01, 354.15 8.76, 355 32 M323 0 C345.7 -1.57, 353.04 10.38, 355 32 M355 32 C355.63 61.63, 356.62 89.45, 355 113 M355 32 C354.15 59.62, 355.12 86.06, 355 113 M355 113 C355.05 134.56, 345.14 143.99, 323 145 M355 113 C353.97 132.75, 343.01 143.59, 323 145 M323 145 C261.96 146.33, 201.58 147.81, 32 145 M323 145 C229.81 142.48, 137.76 143.33, 32 145 M32 145 C10.59 143.92, 0.72 133.51, 0 113 M32 145 C11.45 144.22, -0.53 135.15, 0 113 M0 113 C-1.37 87.66, -1.55 60.48, 0 32 M0 113 C1 83.3, 0.86 53.94, 0 32 M0 32 C-0.37 11.14, 8.78 -1.17, 32 0 M0 32 C0.67 9.22, 11.12 -1.77, 32 0" stroke="#000000" stroke-width="1" fill="none"></path></g><g transform="translate(1545.9002651638457 947.3337027047226) rotate(0 149.5439453125 45)"><text x="149.5439453125" y="0" font-family="Virgil, Segoe UI Emoji" font-size="36px" fill="#000000" text-anchor="middle" style="white-space: pre;" direction="ltr" dominant-baseline="text-before-edge">Backup /Restore</text><text x="149.5439453125" y="45" font-family="Virgil, Segoe UI Emoji" font-size="36px" fill="#000000" text-anchor="middle" style="white-space: pre;" direction="ltr" dominant-baseline="text-before-edge">Volume</text></g><g stroke-linecap="round" transform="translate(1579.666439480252 1189.8060130888368) rotate(0 117.361094156901 74.65276082356775)"><path d="M32 0 M32 0 C96.04 1.33, 157.63 0.22, 202.72 0 M32 0 C91.39 -0.04, 149.81 -0.38, 202.72 0 M202.72 0 C222.59 -0.67, 234.16 10.41, 234.72 32 M202.72 0 C223.13 -0.82, 236.8 9.55, 234.72 32 M234.72 32 C234.09 50.25, 235.73 68.8, 234.72 117.31 M234.72 32 C235.52 62.26, 234.41 91.08, 234.72 117.31 M234.72 117.31 C236.26 137.57, 223.1 147.44, 202.72 149.31 M234.72 117.31 C235.94 138.59, 222.21 149.5, 202.72 149.31 M202.72 149.31 C163.77 149.98, 123.28 149.07, 32 149.31 M202.72 149.31 C146.7 148.53, 91.12 149.36, 32 149.31 M32 149.31 C9.94 147.76, 0.37 139.84, 0 117.31 M32 149.31 C10.46 148.98, 1.25 138.24, 0 117.31 M0 117.31 C-1.06 92.78, -0.78 66.39, 0 32 M0 117.31 C-1.31 84.8, -1.34 51.65, 0 32 M0 32 C-1.67 9.68, 12.49 1.54, 32 0 M0 32 C-0.4 10.32, 10.35 -2.08, 32 0" stroke="#000000" stroke-width="1" fill="none"></path></g><g transform="translate(1616.7655478583442 1219.4587739124045) rotate(0 80.26198577880865 45)"><text x="80.2619857788086" y="0" font-family="Virgil, Segoe UI Emoji" font-size="36px" fill="#000000" text-anchor="middle" style="white-space: pre;" direction="ltr" dominant-baseline="text-before-edge">Contabo </text><text x="80.2619857788086" y="45" font-family="Virgil, Segoe UI Emoji" font-size="36px" fill="#000000" text-anchor="middle" style="white-space: pre;" direction="ltr" dominant-baseline="text-before-edge">S3</text></g><g stroke-linecap="round"><g transform="translate(1694.7184990635078 1079.6115347359726) rotate(0 0.8833253799458589 44.630051258560115)"><path d="M0.97 -0.44 C0.94 14.84, -0.3 75.79, -0.23 90.97 M0.02 -1.71 C0.36 13.24, 1.83 73.36, 2 88.97" stroke="#000000" stroke-width="1" fill="none"></path></g><g transform="translate(1694.7184990635078 1079.6115347359726) rotate(0 0.8833253799458589 44.630051258560115)"><path d="M10.1 26.35 C8.42 20.74, 4.94 10.83, 2.06 -0.78 M10.54 27.9 C7.68 18.81, 5.81 12.28, 0.03 -1.17" stroke="#000000" stroke-width="1" fill="none"></path></g><g transform="translate(1694.7184990635078 1079.6115347359726) rotate(0 0.8833253799458589 44.630051258560115)"><path d="M-10.42 26.06 C-5.99 20.37, -3.36 10.54, 2.06 -0.78 M-9.98 27.6 C-6.94 18.62, -2.91 12.17, 0.03 -1.17" stroke="#000000" stroke-width="1" fill="none"></path></g><g transform="translate(1694.7184990635078 1079.6115347359726) rotate(0 0.8833253799458589 44.630051258560115)"><path d="M-9.51 59.42 C-5.36 70.42, -2.7 77.27, 3.09 88.62 M-9.07 60.97 C-5.68 68.1, -1.62 77.76, 1.06 88.24" stroke="#000000" stroke-width="1" fill="none"></path></g><g transform="translate(1694.7184990635078 1079.6115347359726) rotate(0 0.8833253799458589 44.630051258560115)"><path d="M11.01 59.05 C9.05 70.32, 5.6 77.29, 3.09 88.62 M11.45 60.59 C8.94 67.81, 7.11 77.58, 1.06 88.24" stroke="#000000" stroke-width="1" fill="none"></path></g></g><mask></mask><g stroke-linecap="round"><g transform="translate(1432.8608500162763 1191.4949984432099) rotate(0 44.86570229566996 -56.38186787763709)"><path d="M1 0.6 C15.78 -18.48, 75.13 -94.33, 89.66 -113.36 M0.07 -0.13 C14.67 -18.53, 74 -93.31, 89.1 -112.07" stroke="#000000" stroke-width="1" fill="none"></path></g><g transform="translate(1432.8608500162763 1191.4949984432099) rotate(0 44.86570229566996 -56.38186787763709)"><path d="M80.53 -82.41 C82.17 -95.87, 85.42 -106.92, 89.73 -112.57 M78.82 -83.84 C82.94 -92.85, 86.72 -103.95, 88.37 -111.98" stroke="#000000" stroke-width="1" fill="none"></path></g><g transform="translate(1432.8608500162763 1191.4949984432099) rotate(0 44.86570229566996 -56.38186787763709)"><path d="M64.49 -95.21 C72.4 -103.9, 81.8 -110.04, 89.73 -112.57 M62.79 -96.64 C72.43 -101.41, 81.67 -108.14, 88.37 -111.98" stroke="#000000" stroke-width="1" fill="none"></path></g></g><mask></mask></svg>